<svg xmlns="http://www.w3.org/2000/svg" viewBox="0 0 568.17 601.16"><defs><style>.cls-1{fill:#fff;}</style></defs><title>calendar</title><g id="Layer_2" data-name="Layer 2"><g id="Layer_1-2" data-name="Layer 1"><g id="calendar"><path class="cls-1" d="M77.73,591.46c-1.37.36-3.51.09-3.3-1.3a7.87,7.87,0,0,1,5.71,0,1.5,1.5,0,0,1-2.28,1.23Z"/><path class="cls-1" d="M163.62,590.53a4.27,4.27,0,0,1-5.22.53c.48-1.81,3.12-1.56,4.87-.89Z"/><path class="cls-1" d="M155.23,589.79c1.05-.23,2.74.33,2.18,1.25-.66,1.32-3.12-.22-2.24-1.39Z"/><path class="cls-1" d="M449.75,475.47c-.48,2.23-1.06,4.57-2.64,6.2-1.75,1.81-4.36,2.4-6.82,2.9a433.61,433.61,0,0,1-104.19,8.07c-11.28-.49-22.57.57-33.81,1.63L210,503c-21.82,2.05-44.31,4.3-63.65,14.61-5.1,2.72-11.74-.52-14.76-5.44s-3.39-11-3.71-16.76A1276.75,1276.75,0,0,0,93,262.39c-.87-3.57,1.63-7.28,4.88-9s7.06-1.93,10.73-2.1c92.51-4.29,185.64-6,276.52-23.8,2.91-.57,5.6,1.76,8.55,2s5.32-4.85,2.37-5.11a46,46,0,0,1,34.1.73c8,3.43,6.45,14.91,4.56,23.37-5.8,25.9-2.1,52.94,3.08,79,4,20.14,8.9,40.13,12.15,60.41,4.65,29,5.9,58.87-.21,87.59M125.56,334.7a90.3,90.3,0,0,1,34.56-4c5.38.43,7.63-6.76,7.55-12.17a96.19,96.19,0,0,0-8.29-37.6,8.26,8.26,0,0,0-2.86-3.93c-1.71-1.05-3.89-.77-5.88-.45l-27.58,4.37a8,8,0,0,0-4.22,1.54c-2,1.78-1.68,4.91-1.21,7.53q16.65,94.11,38.86,187.11c.75,3.16,4.46,4.48,7.64,5.14A107.58,107.58,0,0,0,195.85,484a4.12,4.12,0,0,0,2.37-.72c1.19-1,1-2.82.69-4.32q-6.06-30-12.11-60.06c-.26-1.28-.62-2.71-1.74-3.38a4.3,4.3,0,0,0-2.46-.41c-6.21.28-12.14,2.64-18.29,3.54s-13.25-.09-17.05-5-1.13-14.09,5.09-14.16a150.48,150.48,0,0,0,22.32-2,5,5,0,0,0,3.07-1.28c.92-1,.82-2.61.67-4l-3.75-33.61c-.66-5.88-4-13.73-9.69-12.08-7.6,2.2-15.51,4.43-23.32,3.15s-15.48-7.14-16.09-15M340.35,307c1.8,1.47,4.4,1.3,6.72,1.05l56.67-6.16c4.21-.45,9.77-2.63,8.91-6.77a99.74,99.74,0,0,1,1.28-45.71c-1.86-1.54-4.56-1.35-7-1.07L256.55,265.82a2.77,2.77,0,0,0-2.82,4.19l10.85,39.8c.42,1.55.94,3.24,2.3,4.1a6.6,6.6,0,0,0,3.56.67,464.11,464.11,0,0,0,52-3.14c1.57-.19,3.28-.45,4.31-1.65,1.46-1.7.77-4.29,0-6.4l-9.64-26.78c-1.47-4.07-2.91-8.67-1-12.56s8.79-4.81,10-.68q5.9,19.56,11.78,39.1c.5,1.66,1.06,3.42,2.4,4.52M199.51,423.79q4.68,22.9,9.35,45.81c1,4.92,3.55,11.09,8.55,10.71l45.26-3.4c11.11-.83,22.45-1.72,32.69-6.08q-12.56-31-25.13-62c-.68-1.68-1.93-3.69-3.71-3.34a330.4,330.4,0,0,1-62.28,6.15c-2.5,0-4.53,2.28-5.13,4.71s-.1,5,.4,7.44m151.8-21.15a3.14,3.14,0,0,0-.8-2.48,3,3,0,0,0-2-.4l-58.48,1.66c-2.11.06-4.35.16-6.12,1.31s-2.76,3.78-1.47,5.45c7.87,10.21,9.87,23.59,14.35,35.67s13.68,24.41,26.56,24.91a45,45,0,0,0,10.43-1.32,195,195,0,0,1,30.56-3.59c2.63-.1,3.06-3.83,2.52-6.4-3.94-18.66-15.06-35.75-15.59-54.81m85.63,50.26A92.54,92.54,0,0,0,431,402a11.64,11.64,0,0,0-2-3.52c-2.07-2.2-5.37-2.58-8.39-2.79a335.1,335.1,0,0,0-51.38.47c-1.94.16-4.07.43-5.39,1.86-1.88,2-1.25,5.21-.5,7.86q7.24,25.32,15.54,50.32c.58,1.73,1.22,3.55,2.64,4.7,2.42,2,6,1.17,9,.43a91.84,91.84,0,0,1,30-2.21c3.24.3,6.53.76,9.7,0s6.22-3,6.75-6.22m-77.89-77.32a5.93,5.93,0,0,0,1.74,2.32,6,6,0,0,0,3.49.69l58.49-.36c3,0,3.64-4.34,3.06-7.33-3.26-16.8-11.2-32.83-11.18-49.95,0-1-1.45-1.27-2.48-1.15l-65.9,7.28a4.27,4.27,0,0,0-1.9.51c-1.4.92-1.23,3-.87,4.62a178.28,178.28,0,0,0,15.55,43.37m-171.61,6.53c.53,5,2.56,11.49,7.62,11.44a414.68,414.68,0,0,0,63.52-5.45c2.18-.35,4.64-.93,5.68-2.87.74-1.37.53-3,.3-4.56q-3.15-21.14-6.31-42.27c-.45-3.08-4.75-3.39-7.82-2.88L187.5,345.86c-1.21.2-2.58.5-3.19,1.57a4.21,4.21,0,0,0-.26,2.54l3.39,32.14M168.86,280.28a85.68,85.68,0,0,1,8.44,42.61c-.12,1.91,1.52,3.57,3.35,4.13a12.81,12.81,0,0,0,5.68,0l63.31-9.23c1.2-.17,2.57-.45,3.18-1.51a4,4,0,0,0,.2-2.62,137.07,137.07,0,0,0-9.41-33.11c-1.61-3.77-3.36-8.22-1.25-11.73.81-1.35-1.57-2.27-3.13-2.08l-64.07,7.83A10.52,10.52,0,0,0,170.4,276c-1.38.93-2.27,2.82-1.54,4.32M326.4,328.41c-17.36,4.58-36,.65-53.5,4.87a3.73,3.73,0,0,0-2.33,1.23,3.92,3.92,0,0,0-.28,2.85q3.46,21.86,6.92,43.71a4,4,0,0,0,.66,1.93c1,1.22,2.86.93,4.38.59,20-4.54,41.07,1.44,61.27-2,2.1-.36,4.8-2,3.84-3.87a150.24,150.24,0,0,1-14.93-47.66c-.32-2.35-3.73-2.27-6-1.66M138.87,474.29a16.62,16.62,0,0,0,1.42-16.6,1.85,1.85,0,0,0-2.24-.9q.4,8.74.82,17.5M287.49,319.47a4.66,4.66,0,0,0,4,6.25c1.66,0,3.27-.9,4.9-.62.49-2-1-4-2.86-4.88a13.36,13.36,0,0,0-6-.75M142.42,494.75a7.49,7.49,0,0,0-2-6.2c-.69,1.46-1.39,3-1.08,4.62s2.15,2.93,3.55,2.13M193,330.83c-.78-.63-1.45,1.06-.86,1.87l3.28-.24c.62-1-1.13-1.92-2.31-1.65m206.61-22.22c-.66,1.38,2.2,2.4,2.57.92a2,2,0,0,0-2.75-1Z"/><path class="cls-1" d="M394.32,226.64c-1.34.37-3.45.12-3.24-1.25a3.72,3.72,0,0,1,2.56-.6c.87.23,1.43,1.48.74,2.05Z"/><path class="cls-1" d="M411.21,54.77l55.85-7.41c7.91-1,16.73-1.89,23.16,2.84,6.28,4.62,8.19,13,9.66,20.68l15.06,78.78c5,26.11,10,52.45,9.44,79-1.93,92.74,20.53,184.05,42.85,274.08,4.14,16.69-5.93,34.42-20.21,44S515.11,559.35,498,561c-9.61.92-22.8,6.54-19.34,15.55,3,7.73-8.73,12.22-17,12.21l-254-.29-42.06-.05-88.15-.11c-20.28,0-39.84,18.74-58.57,11C2.34,592.44-.22,570.55,0,552.72,1.82,413.43,18.72,274.1,9,135.14c-1.38-19.85.05-45.32,18.77-52.07,10.84-3.92,22.74.84,34.27.81S87.17,73.37,82,63.07c-5-9.89,0-22.45,8.44-29.6s19.53-10.18,30.22-13c4.25-1.12,8.58-2.26,13-2.08,11.15.45,20.49,9.46,24.76,19.76s4.49,21.78,4.64,32.93A1072.76,1072.76,0,0,1,309.86,58.86c8.76-.12,18.16-.34,25.23-5.5S344.6,36,337.44,31c-7.56-5.31-5.89-18,1.15-24S355.65.21,364.88.7s18.64,2,27.57-.35C403.06-2.44,409.8,12.1,408.77,23s-4.68,23.43,2.44,31.76m98.22,142.44c-.05-4.72-.16-9.67-2.47-13.79-1.34-2.39-3.45-4.61-3.43-7.36,0-1.93,1.11-3.7,1.36-5.63s-1.08-4.36-3-4c-1.38,1.6-.81,4-.3,6.05A44.94,44.94,0,0,1,500.46,198c-.65,1.89.35,3.89,1.21,5.69a48.92,48.92,0,0,1,4.83,20.51c3.08-8.55,3-17.87,2.93-27M452.54,541.05c12.6-.35,25.23-.71,37.71-2.49,7.92-1.14,16-3,22.48-7.7s10.84-13.06,8.86-20.81c-12.4-48.56-16.08-98.87-19.7-148.86q-6.28-86.87-12.58-173.73c-18.71,7.31-39.12,8.74-59.16,10.08L50.29,223.08c-4.13.28-7.17,4.35-7.83,8.44s.44,8.23,1.3,12.28A105,105,0,0,1,44,286.06c-1.67,8.29-4.35,16.7-2.85,25A1801.3,1801.3,0,0,1,66.45,522.54c.56,9.34,8.87,16.75,17.86,19.38s18.59,1.52,27.89.49c28.32-3.15,56.88-5.39,85.27-3,15.86,1.34,31.58,4.14,47.45,5.43,18.4,1.5,36.9,1,55.35.47l152.27-4.27M344.9,88.59c-.07-4.45-3.81-8.18-8-9.67s-8.79-1.22-13.24-.94l-153.11,9.8c-5.52.35-7.93,7.46-6.95,12.91s3.9,10.62,3.46,16.13c-.9,11.28-14.51,16.54-25.8,17.2s-24.15-.11-32.12,7.92c-4.92,4.94-14.07,1.64-17.52-4.41s-3-13.47-2.78-20.44-.14-14.59-4.7-19.86l-41.84,3.35c-2.06.16-4.45.52-5.48,2.31a6.43,6.43,0,0,0-.46,3.82q3.4,40.05,6.8,80.08a4.78,4.78,0,0,0,1,3.09c1,1,2.56.94,4,.81l171.61-15.17,39-3.44,176.68-15.62c19.12-1.69,37.79,11,56.66,7.51q-5.62-46.53-11.26-93.08c-15.94-1.94-32.06.35-48,2.63-4.05.58-8.29,1.24-11.56,3.71S416.18,84.6,418.47,88c4,6,0,14.62-6.27,18.22s-13.83,3.65-21,4-14.94,1.49-20.15,6.47c-5.92,5.67-16.53,2.33-21.12-4.45s-4.88-15.5-5-23.7m56.63-.24a4.76,4.76,0,0,0,.93-3.32c0-2.4,0-4.9-1.18-7-1.64-3.1-5.08-4.72-8.28-6.15s-6.63-3.12-8.18-6.27.27-8,3.78-7.91c2,0,3.76-1.73,4.35-3.69a13.67,13.67,0,0,0-.05-6.07,197.34,197.34,0,0,0-4.33-19.83c-.66-2.4-1.66-5.12-4-5.94a7.84,7.84,0,0,0-4.13.09l-19.31,3.87c-2.29.46-5.22,1.79-4.78,4.09,4,20.8-1.28,43.25,6.65,62.9a4.81,4.81,0,0,0,2.16,2.82,5,5,0,0,0,3,0L399,89.46a4.83,4.83,0,0,0,2.58-1.11M144.76,108a4.39,4.39,0,0,0,.15-2.31,442.13,442.13,0,0,0-8.56-49c-1-4.32-6.56-5.41-11-5.62-6.69-.32-13.66-.59-19.78,2.12a4.7,4.7,0,0,0-2.4,1.88,5.29,5.29,0,0,0-.24,3.06q3.58,29,7.76,57.89A121.53,121.53,0,0,0,142,109.92a4.3,4.3,0,0,0,2.76-1.88m406.7,408.75c-5.1-13.08-4.11-27.64-6.4-41.49-2.69-16.25-9.89-31.38-14.26-47.26-2.26-8.19-3.76-16.56-5.26-24.92q-3.43-19.2-6.88-38.41c-6.62,17.82-1.42,37.57,2.9,56.09a567.15,567.15,0,0,1,14.33,105.6,18.78,18.78,0,0,0,15.57-9.61M346.2,188.48l86-7.58c1.57-2.56-2.83-4.49-5.83-4.33q-97.69,5.19-195.22,13.14c-3,.24-6.55.89-7.68,3.67L326,189.55c4.54-.16,10.13.28,12,4.4a6.35,6.35,0,0,1,3.15-4.31,12.53,12.53,0,0,1,5.05-1.16M377,568.11c-13.83-2.2-27.92-2.15-41.92-2.09-21.7.09-43.43.18-65,2.3-.78.74.59,1.79,1.65,1.94,25.57,3.8,51.75-4.71,77.35-1.08,9.45,1.34,19.92,4.13,27.94-1.07M38.06,504.8l-6.33,16.6-2.49,6.53c5.56.72,11-4.71,10.37-10.28L38.06,504.8m48.51,54.14a12.48,12.48,0,0,1-9.88,4.28,11.63,11.63,0,0,0-11.46,8.55,52.61,52.61,0,0,0,18.36-7.26c2-1.25,4.09-3.53,3-5.57m373.31,19.6a21,21,0,0,0,13.57-3.18,36.56,36.56,0,0,1-13.86-6,3.06,3.06,0,0,0,1.47,3.9c-2.15.32-2.57,3.21-2.45,5.38l.37,6.65a4.74,4.74,0,0,0,.9-6.8M143.45,35.92c-2.21-5-9.77-6.55-13.76-2.8-.92.87-1.57,2.53-.54,3.26a2.46,2.46,0,0,0,1.59.27l12.71-.73M236.5,568.1q-9.25,0-18.5.28c.13,2.68,3.78,3.31,6.46,3.13l14.94-1c.9-1.28-1.33-2.42-2.9-2.42M509,278a58.06,58.06,0,0,0-.22-21.71c-.26-1.3-.78-2.81-2.06-3.11A85.33,85.33,0,0,0,509,278m-2.51-39.84a16.28,16.28,0,0,0,1.24,12.53,9.78,9.78,0,0,0-1.24-12.53M426.58,570.61c1.6.46,4,.47,4.21-1.18a20.6,20.6,0,0,0-13.59-.82,11.16,11.16,0,0,0,9.27,2.08m-236.89,1a1.33,1.33,0,0,0-.7-.91,7.12,7.12,0,0,0-9.64,2.26l8.55-.23c.79,0,1.87-.33,1.79-1.12M36.49,481.46a12.22,12.22,0,0,0-.89-8.22,15.54,15.54,0,0,0-1.76,10.2,1.81,1.81,0,0,0,2.4-1.89M198.31,195c.81-1.05-.28-2.68-1.59-2.88a5.76,5.76,0,0,0-3.7,1.2l-4.75,2.87,7.79-.41a2.9,2.9,0,0,0,2.25-.78M41.22,538.54c-.32-.42-.91.46-.5.79s1,.1,1.5-.15a24.74,24.74,0,0,0,6.15-4.76,7,7,0,0,0-7.12,3.71m2.39-329.49,5.28-1.76A3.11,3.11,0,0,0,43.06,209m8.19,348.27a5,5,0,0,0,4.16-4.3,4.48,4.48,0,0,0-5,4.81M512.9,323.68c.28-1-.22-2.61-1.25-2.31a11.75,11.75,0,0,0,1.69,8.7,6.66,6.66,0,0,0-.68-6.19M359,192.57a4.3,4.3,0,0,0,3.49,5.78,6.61,6.61,0,0,0-3.12-5.49M22.68,385.54A4.73,4.73,0,0,0,24,389.32a6.08,6.08,0,0,0,.69-6.62l-1.93,2.78m211.36-182.3c0-1.8-2.84-2.72-3.87-1.24a2.25,2.25,0,0,0,3.26,1m-152-7.2c-.93.29-.06,1.93.88,1.66s1.31-1.38,1.44-2.35l-2.41.47M21.44,487.17c.49-.86-1.24-1.71-1.64-.8-.79,1.06,1.77,2.13,2,.82Z"/></g></g></g></svg>