<svg xmlns="http://www.w3.org/2000/svg" viewBox="0 0 557.25 443.64"><defs><style>.cls-1{fill:#fff;}</style></defs><title>heart - like</title><g id="Layer_2" data-name="Layer 2"><g id="Layer_1-2" data-name="Layer 1"><g id="heart_-_like" data-name="heart - like"><path class="cls-1" d="M.26,90.83c1.12-.25,2.91.35,2.32,1.32-.7,1.39-3.31-.23-2.38-1.48Z"/><path class="cls-1" d="M452.62,152.51A513.16,513.16,0,0,0,480,91.67c-4.56-.71-8.58,3.44-13.19,3.6-6.63.23-10.73-8.3-8.57-14.57s8.15-10.31,14-13.44a127.71,127.71,0,0,1,12.5-5.82,17,17,0,0,1,6-1.55c7.74-.12,12.16,9,12.54,16.77.6,12.18-3.84,24-8.47,35.28A773.12,773.12,0,0,1,461.32,183c-1,1.85-2.1,3.8-4,4.73C454,189.43,450,187,448,183.9,441.87,174.58,447.39,162.35,452.62,152.51Z"/><path class="cls-1" d="M422.77,215.76c2.89-1,6.17.32,8.4,2.43,4.53,4.3,5.51,11.42,3.78,17.42s-5.74,11.09-10.05,15.61c-1.47,1.53-3.16,3.11-5.28,3.31a6.92,6.92,0,0,1-3.63-.82,13.35,13.35,0,0,1-5.93-17.14l6.6-13.7C418.06,220,419.74,216.82,422.77,215.76Z"/><path class="cls-1" d="M15.54,147.69c11-35.08,52.81-57.06,87.93-46.19-.83-11.11,5.27-21.83,13.55-29.28S135.61,60,145.74,55.39c15.5-7.09,31.5-14.29,48.53-14.91,33-1.19,61.32,22.11,85.29,44.83,12.57-26,26.06-53.1,49.6-69.81,27-19.17,65.41-20.71,93.87-3.77,10.08,6,22,14.35,32.29,8.73C472.61,11,492.55,5.15,512,8.14s38,16.25,43.45,35.18c4.81,16.78-1,34.61-7.13,50.95C506.64,205,445.94,307.58,382.05,407.2c-11.12,17.34-25.87,36.61-46.47,36.44-13.27-.11-25-8.68-34.17-18.27s-17-20.67-27.85-28.35c-1.67,6.41-3.53,13.14-8.23,17.81s-13.24,6.16-17.76,1.31c-36-38.52-72.23-77.31-115.08-108-29-20.76-61.05-37.85-85.9-63.44s-41.7-63-31.05-97M331.12,158c-3,5.76-7.83,11.35-14.28,12-7.31.72-14.28-6.53-13.27-13.81,1.92-13.83-4.82-27.77-14.68-37.66s-22.58-16.36-35.23-22.27c-22.38-10.45-46.32-19.84-71-18.33s-50,16.77-55.87,40.77c-3.71,15.27.83,31.29,6.51,45.94,20.92,54,57.2,100.39,93.27,145.67,26.38,33.11,53.39,66.55,88,90.92,4.17,2.93,8.62,5.8,13.65,6.58s10.83-1.07,13.19-5.59c47.82-91.66,117.45-170.69,164-263,10.77-21.36,20.38-43.74,23.42-67.47,1.2-9.35,1.08-19.72-4.84-27.05-5.34-6.63-14.38-9.26-22.89-9.19-11.65.1-22.8,4.51-33.48,9.18C412.36,68.84,358.72,104.35,331.12,158M107,161c-15.23,21.78-30.58,43.78-40.74,68.33-.76,1.82-1.49,3.85-.88,5.72s3.27,3.09,4.63,1.66a4.68,4.68,0,0,0,.91-2.76c1.13-10,5.91-19.17,11.09-27.79a266,266,0,0,1,23.48-33.07c2.86-3.45,6-7.91,4.2-12-.23-.54-.64-1.1-1.22-1.14s-1.11.54-1.47,1.06m5.32,107.84c-.18-18.39,12.89-33.76,22.49-49.45.81-1.32,1.52-3.25.32-4.24s-3.23.36-4.3,1.72a196.82,196.82,0,0,0-20.61,32c-1.75,3.4-3.44,7-3.5,10.82s2,7.94,5.6,9.14m113.06,79.36c-.7,2.48-3.69,3.79-6.21,3.27a10.08,10.08,0,0,1-6-4.57A18.83,18.83,0,0,1,210,335.54c.17-3.28.61-7.64-2.46-8.8-2,1.87-4,3.8-5.12,6.27s-1.21,5.61.54,7.68a250.79,250.79,0,0,0,25.33,25.9q-.36-10.17-.71-20.34c-.52-1.22-1.9.65-2.25,1.93M121.86,192.28a5.91,5.91,0,0,0-2.83-1.73,323.85,323.85,0,0,0-22.92,32.61c-5.17,8.41-10.12,18.13-7.83,27.72,2.42-.38,2.79-3.63,3-6.07.55-7.33,4.75-13.8,8.83-19.92l21.77-32.61m36.58,62.88a3.79,3.79,0,0,0-1.15,1.33L143.5,278.62c-2.16,3.47-3.89,8.91-.31,10.88,2.2,1.21,5.09-.11,6.53-2.17s1.85-4.64,2.41-7.09a50.94,50.94,0,0,1,7.75-17.67c1-1.46,2.15-3,2.11-4.8s-2-3.53-3.55-2.61m-107-121c-5.67,3.73-11.54,7.67-14.93,13.54-3.48,6.05-3.87,13.41-3.16,20.35l19.9-33.1a1.37,1.37,0,0,0-1.81-.79M175.64,274.46q-5.43,12.69-10.07,25.7a9.31,9.31,0,0,0-.79,4.57c.25,1.54,1.57,3,3.13,2.88q4.76-13.25,9.5-26.49c.91-2.54.92-6.54-1.77-6.66M77.37,164.81a105.46,105.46,0,0,0-20.12,32.08,37.38,37.38,0,0,0-2.51,8.52c3.56-1.11,4.44-5.57,5.63-9.11,3.84-11.46,16.5-19.41,17-31.49M190.79,299.09a2.82,2.82,0,0,0-.78,1.39q-2.82,8.47-5.63,16.93a9,9,0,0,0-.66,4.9c.41,1.62,2.15,3,3.71,2.43l5.94-21.06a5.72,5.72,0,0,0,.23-3.46c-.41-1.1-1.88-1.86-2.81-1.13m56.46,66.56a17.54,17.54,0,0,0-3.07,13.21c3.12-3,9-2,11,1.81,2.55-.61,1.33-4.49-.4-6.46l-7.52-8.56m-212-170.9a41.18,41.18,0,0,0,4.09,9.38,10.05,10.05,0,0,0-3.14-13.23,2.87,2.87,0,0,0-1,3.92M319.29,117a18.61,18.61,0,0,0-3.35,7.43,2.5,2.5,0,0,0,0,1.46c.78,1.77,3.38,0,4.24-1.75.58-1.17,1.17-2.33,1.75-3.5.92-1.84.85-5.17-1.18-4.8a2.7,2.7,0,0,0-1.49,1.16m-241,6.32c-3.52-.12-5.11,5.73-2,7.41a43.56,43.56,0,0,1,7.6-6.48,5.22,5.22,0,0,0-5.51-1.37M54,217.17a6.61,6.61,0,0,0-7.58-4.08,13.45,13.45,0,0,0,6.88,7.82,5,5,0,0,0,.47-3.64M147.22,239c-.6-1.14-1.19-2.28-1.78-3.42a9.15,9.15,0,0,0-2.62,4.65,2.59,2.59,0,0,0,3.85-1.06M411.79,19.11a2.35,2.35,0,0,0,2.11-1.72,3.54,3.54,0,0,0-5,.83,2.2,2.2,0,0,0,2.95,1.09M426.45,34.4c.24-2.15-3-3.68-4.47-2.13a3.78,3.78,0,0,0,3.84,2.23M218.27,64.82a2.17,2.17,0,0,0-3.21-.67c.42,1,1,2.18,2.06,2.44s2.18-1.41,1.22-2Z"/></g></g></g></svg>