<svg xmlns="http://www.w3.org/2000/svg" viewBox="0 0 853.05 707.26"><defs><style>.cls-1{fill:#fff;}</style></defs><title>play circle</title><g id="Layer_2" data-name="Layer 2"><g id="Layer_1-2" data-name="Layer 1"><g id="play_circle" data-name="play circle"><path class="cls-1" d="M659.27,14.82a2.59,2.59,0,0,1,1.08,3.8,1.75,1.75,0,0,1-2.56-1.17,2.48,2.48,0,0,1,1.61-2.62Z"/><path class="cls-1" d="M596,288.56c14.82,10.05,30.13,20.25,40.41,34.9,4.64,6.63,8.23,14.4,7.9,22.49-.7,17.67-18.34,28.82-32.07,40-10.29,8.35-19.23,18.2-28.13,28l-70.42,77.61c-4.72,5.21-13.33-4.8-19.79-2-7.84,3.38-17.2-2.19-21.09-9.79s-3.8-16.54-3.8-25.08c0-48.07-5.64-95.94-11.72-143.63q-6-47-12.53-93.87c-1.89-13.5-3.5-28.43,4.15-39.72,2.18-3.21,6.94-3.72,10.52-2.2s6.25,4.54,8.84,7.43c37,41.31,81.86,74.76,127.73,105.91m-83.45,121.6c-2.71,2.61-5.48,5.31-7,8.74s-1.62,7.81.84,10.66q24.8-28.59,49.58-57.2c-.2-1.84-3.08-1-4.41.27l-39,37.53m26.13-136.91A134.38,134.38,0,0,0,491,240.61c-2-.82-4.83-1.36-6,.5q19,11.2,38.35,21.72c2.91,1.59,4.55,4.73,6.68,7.26s5.68,4.64,8.64,3.16m-52-5.13c.61-2.5-2.15-4.91-4.71-4.59s-4.51,2.61-5.24,5.08a20.15,20.15,0,0,0-.23,7.67c.15,1.54.31,3.09.46,4.63l8.25-10.28a6.6,6.6,0,0,0,1.47-2.51m48.5,110.31a46.76,46.76,0,0,0-9.19,9.13,14.28,14.28,0,0,0,9.19-9.13m37.52-78.89a15,15,0,0,0-8.8-4.61,12.3,12.3,0,0,0,8,5.26m41.48,32.28c-2.58.54-3.28,4.7-1,6.06a4.06,4.06,0,0,0,1.28-6Z"/><path class="cls-1" d="M562.51,63.35a150.55,150.55,0,0,1-32.34-5.72A60.43,60.43,0,0,1,562.51,63.35Z"/><path class="cls-1" d="M713.39,431.54c-2-.58-2.53-3.33-1.58-5.15s2.85-2.91,4.65-3.9c2.6,2.52-.39,6.71-3.2,9Z"/><path class="cls-1" d="M257,426.62l-4.1,2.17c-1.38.74-3.75,1-3.91-.56a13.76,13.76,0,0,1,5.69-4.86c1.6-.74,4.29-.45,4.14,1.3C258.74,425.6,257.81,426.19,257,426.62Z"/><path class="cls-1" d="M488.82,48.63c.09,1.87-2.83,2.94-4,1.46-.17-1.43,2-1.64,3.4-1.23Z"/><path class="cls-1" d="M237.46,199.92c-.83.22-1.47-1-1.12-1.75a3.51,3.51,0,0,1,2-1.52,2,2,0,0,1-1.09,2.88Z"/><path class="cls-1" d="M58.33,402.61c-.94.46-1.8-1.47-.77-1.68a3.53,3.53,0,0,1,4.36.1,3.52,3.52,0,0,1-3.57,1.64Z"/><path class="cls-1" d="M843.27,264.81c18,67.92,10.7,141.92-18.41,205.88S745.32,588.33,684.33,623.23C655,640,623.27,652.64,595.68,672.13l-58.81,11.78c-22.32,4.47-45.7,8.91-67.53,2.46-33.08-9.77-66,14.12-100,19.59-18,2.89-36.38.55-54.24-3C178.94,675.79,60.58,572.67,15,441.55,1.38,402.27-6,359,6.16,319.22a120.07,120.07,0,0,0,2.76-59.1c-1.4-6.76.62-13.7,2.62-20.31C19,215.19,26.48,190.45,37.71,167.3c38-78.2,120.52-132.76,207.35-137,89.88-4.42,178.11-37.1,267.74-29,69.25,6.27,133.76,36.46,196.62,66.19,18.25,8.63,36.84,17.49,51.45,31.43,15.54,14.84,25.51,34.43,35.19,53.61,18.32,36.32,36.77,73,47.21,112.29M754.9,178.36c-6.06-10.37-14.11-19.42-22.55-28A349.21,349.21,0,0,0,579.08,60.18a304,304,0,0,1,62.1,10.35c-15.21-8.3-32.68-11.23-49.78-14-39.59-6.5-79.48-13-119.59-11.89s-80.92,10.46-114,33.19A245.91,245.91,0,0,1,474.13,49.4c-81.36,13-166.27,43.14-213.53,110.65,1.62,1.5,2.87-2.92.73-3.39s-3.9,1.66-5.07,3.52l-36.13,57.41c-6.17,9.81-12.41,19.77-15.78,30.85-3.82,12.56-3.78,25.92-3.7,39.05q.19,34.88.4,69.75c.07,11.76.2,23.83,4.44,34.8,3.07,7.94,8.16,14.91,13.35,21.66,34.3,44.56,75.4,83.42,117.68,120.51,14.27,12.51,28.87,25,45.8,33.53,17.76,9,37.44,13.37,56.88,17.66,49.4,10.91,102,21.66,149.56,4.42,44.94-16.29,77.53-54.77,107.92-91.66,22.29-27.05,44.81-54.48,59.63-86.24,26.09-55.95,26-120.86,15.22-181.64-3.2-18-7.41-36.15-16.63-51.92m-375,413.39c-11.7-6.4-22-15-32.29-23.49-32-26.57-64.08-53.25-92.09-84a451,451,0,0,1-30.59-37.41c-2.31,3.36-.39,7.91,1.55,11.5l33.79,62.55c8.11,15,18.88,31.86,35.88,33.37,3.08.27,6.35,0,9.08,1.5,3.58,1.92,5.11,6.13,7.33,9.54,4.14,6.35,11.08,10.22,17.85,13.64a388.53,388.53,0,0,0,127.26,38.74c9.17,1.13,18.94,1.84,27.23-2.26q-22-2.46-43.79-5.92C420,606.18,398.64,602,379.9,591.75M780.15,449.21A309.56,309.56,0,0,0,799,314.76c-4.7.42-5.44,6.92-5,11.63,3.67,41.4-9.37,82.91-29.61,119.22S717,513.79,690,545.38l-28.5,33.34A437.38,437.38,0,0,0,710.62,548a180.17,180.17,0,0,0,23-19c9.82-9.94,17.71-21.64,24.72-33.73a311.07,311.07,0,0,0,21.86-46.07m25.64,5.37a281.76,281.76,0,0,0,19.38-189.06,11.25,11.25,0,0,0-1.8-4.37,5.73,5.73,0,0,0-2.94-1.93c-3.89-1.06-7.82,2.44-8.82,6.35s.1,8,1.07,11.92c14.32,57.8,3.74,118.5-6.89,177.09M501.85,27.38,557.36,35c-5-4-11.61-5.09-17.94-6L508,24.5A242.58,242.58,0,0,1,587.4,36.81c8.54,2.84,17.72,6.18,26.29,3.44A223,223,0,0,0,553,21.54c-25.88-4.07-52.36-3.55-78.33-.07-3.19.43-7.43,2.61-6.13,5.56,10.85-2.65,22.23-1.16,33.3.35m62.66,602.89c21.46,8.29,47.4,3.44,64.43-12A228.2,228.2,0,0,0,567,628.13c-10.14,3.09-20.16,6.92-30.67,8.3-11.17,1.47-23.13.28-33.06,5.58a597.15,597.15,0,0,0,64.86.2c4.26-.21,9.56-1.29,10.57-5.44a21.29,21.29,0,0,1-17-2.41,10,10,0,0,1,2.83-4.09M134.71,370.42c-1.42-.49-2.91.4-4.13,1.26a245.59,245.59,0,0,0-44.45,39.94c-.94,1.08-1.92,2.61-1.15,3.82s2.91.86,4.36.21a277.31,277.31,0,0,0,48.43-27.88c2.24-1.61,3-4.71,2.53-7.44s-1.89-5.16-3.3-7.54a4.89,4.89,0,0,0-2.29-2.37m-92.52-122,115.47-68.84c3.55-2.11,7.23-4.27,11.33-4.77a16.08,16.08,0,0,0,13.5-12.71c-2.81-.9-5.77.66-8.31,2.17L45.46,240.51c-3,1.74-6.09,6-3.27,7.89M808.36,245a13.25,13.25,0,0,0,7.53.45c-7.21-22.31-17.66-43.41-28.08-64.41-5.19-10.49-10.8-21.45-20.52-28-.57,2.16.37,4.4,1.29,6.43q15.85,34.85,31.69,69.69,3.68,8.1,8.09,15.81m-500-190.68a25.6,25.6,0,0,0-8.38.69c-3.7,1.15-6.66,3.88-9.49,6.54L276,75.21c-1.54,1.45-3.18,3.09-3.36,5.2s2.15,4.35,4,3.26a425.87,425.87,0,0,1,51.68-26.61c-.28-1.77-2.58-2.23-4.37-2.28l-15.55-.43M178.68,294.59,174,329c-.77,5.63-1.54,11.3-1.13,17a41.59,41.59,0,0,0,13.06,27.25,326.14,326.14,0,0,1-4-72.25c.15-2.69-.56-6.4-3.25-6.38M397,668.5l-26.83,8.31c-6.84,2.12-13.75,4.25-20.89,4.81a97.21,97.21,0,0,1-12.77-.15l-34.72-1.92c-2.28-.13-5.11.07-6,2.15,20.14,2.23,40.31,4.45,60.57,4.81,6.52.12,13.41-.06,19-3.43,1.09-.65,1.46-3,.26-2.54-1-1,1.09-2.14,2.5-2.17A24.16,24.16,0,0,0,397,668.5M109.55,446.24a6.71,6.71,0,0,0-2.28,2.83c-.38,1.17.17,2.72,1.37,3l28.6-19.49a57,57,0,0,1,7.36-4.5c3.42-1.64,7.29-2.69,9.88-5.47s2.81-8.18-.67-9.69c-2.89-1.26-6,.92-8.45,3l-35.81,30.4M780.52,142c.17-5.56-2.4-10.84-5.35-15.56a89.49,89.49,0,0,0-27.81-28C737.53,92.25,726.6,88,715.74,83.8L684,71.5c7.77,12.23,24.28,14.31,38.15,18.52a94.6,94.6,0,0,1,58.39,52M348.22,32.61c3.76,4.28,9,9,14.39,7a481.52,481.52,0,0,0,45.72-19.82c-2.19-1.55-5.19-.93-7.78-.24l-28.77,7.63c-3.38.89-6.92,1.88-9.42,4.31-3.5,3.41-9.72-.94-14.14,1.12M265.73,91.14c-9.18,2.62-15.43,10.89-21,18.66L208,161.18c.13,2,3.25.9,4.46-.65C229,139.3,242.34,115.26,262.3,97.2c1.8-1.63,3.82-3.66,3.43-6.06M210.42,457.72c3.19-3,.18-8.18-2.37-11.76-10.06-14.1-11.86-33-22.64-46.54-1.16,3.55.09,7.4,1.41,10.9a262.22,262.22,0,0,0,23.6,47.4M88.29,355.12c2.78,2.61,7.26.66,10.49-1.37l24.48-15.42a8.53,8.53,0,0,0,3.19-2.88c.68-1.28.49-3.14-.78-3.84s-3,.14-4.25,1l-33.13,22.5m-34,43.94a2.5,2.5,0,0,0-.85,2.12,28.69,28.69,0,0,0,6.69,19.46,51.93,51.93,0,0,1,11-30.12,108.53,108.53,0,0,0-16.87,8.54M240.43,578.33q-2.91,4.49-5.72,9a4,4,0,0,0-.83,2.28,2.07,2.07,0,0,0,2.35,1.83l12.67-9.53c2.29-1.72,4.86-4.16,4.13-6.93s-4.33-3.64-6.87-2.53-4.22,3.54-5.73,5.86M312,668.76a58.48,58.48,0,0,0-4.71-10.83c-1-1.85-3.82-1.33-5.74-.43a46.48,46.48,0,0,0-12.66,8.76l23.11,2.5M223.57,534c-1.59-2.4-5.3-.64-7.42,1.31A182.08,182.08,0,0,0,197.6,555.1c1.21,1.3,3.35.19,4.71-1A250,250,0,0,0,223.57,534M121.1,479.49l22.17-18.07a3,3,0,0,0,1.37-1.93,1.56,1.56,0,0,0-1.24-1.6L122.56,472c-1.41.95-2.9,2-3.49,3.61s.33,3.83,2,3.89m30.65-328.13,11.5-7.44c2.28-1.48,4.81-3.38,4.9-6.09a140.15,140.15,0,0,0-31.51,19.73c5.51-.11,10.47-3.21,15.11-6.2m19,106.79a48.12,48.12,0,0,1,8.16-20.8c1.1-1.58,2.36-3.33,2.06-5.22s-3.31-3-4.12-1.3A117.77,117.77,0,0,0,168,258.21a1.93,1.93,0,0,0,2.76-.06m69.52-125.56a109.57,109.57,0,0,1,27.67-22.26c1.22-.69,1-2.49.51-3.82a175.72,175.72,0,0,0-18.13,12.62c-4.49,3.57-9.06,7.81-10.05,13.46M175.11,513.82c-1.39,1.14-2.83,3.28-1.48,4.45a87,87,0,0,0,22.19-17.16c-1.08-2-4.17-.79-6,.67l-14.75,12M234.86,621a39.92,39.92,0,0,0,16.21,6.38c1.65.26,3.63.29,4.66-1A22.49,22.49,0,0,0,234.86,621M144.15,326.62a30,30,0,0,0,3.33-19.9c-.23-1.25-.73-2.69-2-3a34.91,34.91,0,0,0-1.37,22.9m-36.39-86.68a26.87,26.87,0,0,0,3.23-2.38c.69-.61,1.07-2.09.15-2.15-9.35,4.3-18.83,8.67-26.77,15.21a87.64,87.64,0,0,0,23.39-10.68M335.17,669.36a1.45,1.45,0,0,0-.61,1.34c.18,1.53,2.38,1.64,3.84,1.14a20.46,20.46,0,0,0,12-10.9c0-1-1.6-.81-2.43-.24l-12.77,8.66m459.55-495.3A93.32,93.32,0,0,0,783,146.54a62,62,0,0,0,11.68,27.52M443.1,644.2c2,1.27,4.07,2.58,6.41,2.6a6.31,6.31,0,0,0,5.32-2.94,38.5,38.5,0,0,0-17.95-3.68l6.22,4M173.56,612.78c-2.06.17-1.2,3.46.34,4.85a37.5,37.5,0,0,0,11,6.9A21.36,21.36,0,0,0,175,613.2a2.57,2.57,0,0,0-1.4-.42m45.12-49.69a26.47,26.47,0,0,0-8.7,16.25c5.15-4.33,8.38-10.45,11.49-16.42-.34-1-1.95-.56-2.79.17m185.18,107.3a6.88,6.88,0,0,0-5.29,4.24A10.64,10.64,0,0,0,409,664.22a13.75,13.75,0,0,0-10.18,4.52,3.73,3.73,0,0,0,5.39-1.16,1.54,1.54,0,0,1-.34,2.51m3.29-35A24.11,24.11,0,0,0,426,636.87a22.31,22.31,0,0,0-18.92-1.78m-137-36c1.09-.94,2.25-2,2.53-3.38s-.86-3.13-2.26-2.82a3.25,3.25,0,0,0-1.42.9c-2.52,2.31-5.22,5-5.34,8.42a5,5,0,0,0,6.49-2.65M211.4,113.82a4.78,4.78,0,0,0-2.63,4.46A8.23,8.23,0,0,0,219.05,112a9.19,9.19,0,0,0-7.64,1.76m596.93,136,.8,8.89a37.83,37.83,0,0,0,7.78-6.55,12.79,12.79,0,0,0-7.53-1.69m-523,386.3h3a2.37,2.37,0,0,0,.38-2.28,13.68,13.68,0,0,0-12.09-.53,9,9,0,0,0,8.69,2.71m334.26-31.93a32,32,0,0,0-12.84,7,13.75,13.75,0,0,0,12.84-7m5.28-567.12a8.2,8.2,0,0,0-11.39-3.79,26.36,26.36,0,0,0,11.39,3.79m58.87,60.72a8.24,8.24,0,0,0-6.14-4,37.88,37.88,0,0,0,11,10.65,9.56,9.56,0,0,0-4.83-6.52M81.46,442.48c-2.92-2.16-7.78,1.54-6.47,4.93a6.84,6.84,0,0,0,6.46-4.7M313.27,38.33l-6.67,1.14a16.65,16.65,0,0,0,12.58,1c-.55-2.14-3.59-2.09-5.74-1.56M357.72,649l-6.94,5.27c2.55,1.89,6-.65,8.06-3,.49-.55,1-1.23.84-1.94s-1.5-.84-1.5-.1M141.66,117.8A15.71,15.71,0,0,0,130.6,124a19.44,19.44,0,0,0,11.06-6.24M153.41,372c2.73-.65,2.59-5.54-.17-6a3.5,3.5,0,0,0,.15,5.69M18,266.05a3.93,3.93,0,0,0,6-1.93,14.66,14.66,0,0,0-5.63-.42,3.16,3.16,0,0,0-.47,2.48M517.38,10.84a6.61,6.61,0,0,0,3.45-2.68,4.15,4.15,0,0,0-4.52-1.41,2.55,2.55,0,0,0,1.09,3.8m-386.11,554a2.13,2.13,0,0,0,.06-3.8,10.13,10.13,0,0,0-3.6,4.36,2.51,2.51,0,0,0,3.58-.43M327.84,670a3.45,3.45,0,0,0,3.14-3,4.61,4.61,0,0,0-5,1.3c-.94,1,.86,2.79,1.84,1.86M647,71.7c0-1.49-2.57-2-3.06-.56a6.25,6.25,0,0,0,7,2.16c.3-1.49-2-1.84-3.5-1.47M656.94,76c-1.54-.19-2.38,2.21-1.31,3.34s3,.91,4.27,0l-3.06-3.08M56.54,351.68,57,349c-2.09-.48-4.08,2.28-3,4.11.71.9,2.47-.26,1.93-1.27m545.9,261.47a2.5,2.5,0,0,0-3,1.75c1.1,1.53,4.09-.25,3.26-1.95M703.84,90.18l2-2.07c-1.25-.4-2.85-.63-3.66.4s1.14,2.79,1.65,1.58M207,488.14a2.08,2.08,0,0,0,2.94,1.07,3.22,3.22,0,0,0-1.3-2.33c-.81-.42-2.09.46-1.61,1.24m28.11-351.63c-.93.53.44,2,1.36,1.51s1-1.82,1-2.89l-2.26,1.42m-204.06,294c.64-.61-.32-1.78-1.17-1.53a2,2,0,0,0-1.15,2.16,1.62,1.62,0,0,0,2.43-.56M622.2,49.58c-.84,1.33,1.73,2.92,2.54,1.57.64-1-1.23-1.63-2.38-1.37m-28.06,0c-.82-.65-1.63,1.09-.94,1.88a2.27,2.27,0,0,0,1.95-.71c.39-.6-.43-1.63-.94-1.13m201,125a1.68,1.68,0,0,0,1,2.89,2,2,0,0,0-1.12-2.87M630.71,51.25c-.42-.93-2.18,0-1.64.89.46,1.27,2.84-.13,1.95-1.15Z"/></g></g></g></svg>