<svg xmlns="http://www.w3.org/2000/svg" viewBox="0 0 287.62 380.1"><defs><style>.cls-1{fill:#fff;}</style></defs><title>Delete-ex</title><g id="Layer_2" data-name="Layer 2"><g id="Layer_1-2" data-name="Layer 1"><g id="Delete-ex"><path class="cls-1" d="M250.65,25.71c6.16-6.92,12-13.79,18.18-20.32C271.4,2.68,274-.28,278.67,0c3.19.21,4.81,1.43,5.43,4.19,2,9,4.88,18-1.94,26.46-.68.84-.3,2.64-.22,4,.08,1.17.52,2.32.67,3.49,1.12,8.78-1.55,16.21-6.93,23.27a168.48,168.48,0,0,1-21.79,23.45,186.82,186.82,0,0,0-21.71,23.85c-7.58,9.65-14.34,20-21.2,30.15-3.88,5.76-6.94,12.08-10.92,17.76-4.24,6-9.1,11.66-13.76,17.4-1.94,2.39-4.24,4.5-6.09,7-1.66,2.2-2.25,4.6.47,6.7,5.26,4.06,10.64,8,15.69,12.3,5.36,4.6,10.44,9.52,15.54,14.41,4.07,3.89,8.17,7.77,11.92,12,8.77,9.8,17.51,19.65,25.94,29.74,8.16,9.77,16.52,19.46,23.67,30,5.91,8.66,11.94,17.68,12.27,28.94a17.5,17.5,0,0,0,1.49,5.78c1.07,2.68,0,3.51-2.49,4.1-3,.7-6.35,1.74-6,5.8.16,1.72,1.38,3.4,2.33,5a4.83,4.83,0,0,0,2.05,1.36c2.51,1.24,4.17,3,3.6,6-.79,4.19-3.1,7.13-7.31,8.19a4.06,4.06,0,0,1-3-.73c-6.05-4.59-12.68-8.68-17.83-14.14A157.86,157.86,0,0,1,241.4,314c-4.14-6.39-9.84-10.38-16-14.34a180,180,0,0,1-19.18-13.93c-7.1-6.07-13.57-12.9-20.32-19.38-5.77-5.54-11.61-11-17.33-16.6-5.48-5.36-10.85-10.85-16.29-16.26-3.57-3.55-5.42-3.18-8.68.56-9,10.25-15.8,22.1-25.41,32-8.75,9-15.58,19.91-23.28,30-4.77,6.23-9.75,12.31-14.35,18.66-4.24,5.87-8,12.05-12.14,18-2.57,3.76-5.37,7.35-7.95,11.1-2.22,3.21-4.32,6.52-6.4,9.82C50.45,359.37,45.8,364.1,39,365.81a15,15,0,0,1-8.06-.43c-2.44-.82-4.06-.6-5.47,1.29-2.14,2.87-4.3,5.75-6.16,8.8-2.49,4.07-7.85,5.87-11.86,3.71-4.36-2.35-9-13-7-17.43A77.4,77.4,0,0,1,8,349.37c4.46-6.28,9.16-12.38,13.88-18.47S32,318.76,36.54,312.34c6.16-8.71,11.71-17.86,17.76-26.66C60.92,276,67.89,266.61,74.57,257c5.89-8.5,11.62-17.11,17.35-25.72,6.31-9.49,12.37-19.13,18.87-28.48,2.1-3,1.53-4.92-.77-7.11-6.15-5.84-12.23-11.75-18.38-17.59C88.4,175,84.88,172.2,81.83,169c-8.84-9.4-17.39-19.07-26.32-28.38-3-3.11-7.07-5.14-10.14-8.18a21.42,21.42,0,0,1-5.49-8.19A45.64,45.64,0,0,0,30,107.51c-5.36-6-11.38-11.38-17-17.17C7.6,84.72,2.91,78.41,1.13,70.72a38.58,38.58,0,0,1-.4-13.6C1.39,52.25,6.56,50.3,12,52.93c5.76,2.78,11.81,5,17.78,7.29,6.53,2.52,13.4,4.31,19.6,7.45A87,87,0,0,1,66.58,79.08c9,7.66,16.43,17,26.59,23.31,5.4,3.34,11.51,5.77,16.28,9.82,5.67,4.83,10.38,10.83,15.27,16.53,6.11,7.12,12,14.41,17.94,21.69,2.19,2.7,4.45,2.28,6.47.16s3.49-4.64,5.42-6.79c3.81-4.23,7.85-8.24,11.64-12.48,9.86-11,19.75-22,29.4-33.22q10.86-12.6,21.12-25.68c5.77-7.36,11.08-15.08,16.65-22.6,4.5-6.09,9.12-12.1,13.61-18.2,1.31-1.8,2.33-3.81,3.68-5.91M110.09,172.32c3.7,3.19,7.33,6.47,11.16,9.51.84.68,2.38.49,3.59.7-.28-1.54,0-3.68-.93-4.52a136.61,136.61,0,0,0-12.2-9.77c-1.08-.77-2.95-.46-4.46-.65.68,1.06,1.35,2.12,2,3.16a3.45,3.45,0,0,1,.79,1.57m-80.21-90c.78,1.78,1.54,3.57,2.39,5.32a11.73,11.73,0,0,0,1.4-.5C32.43,85.43,33.49,82.25,29.88,82.27Z"/></g></g></g></svg>