<svg xmlns="http://www.w3.org/2000/svg" viewBox="0 0 491.93 404.29"><defs><style>.cls-1{fill:#fff;}</style></defs><title>facebook like - thumbs up</title><g id="Layer_2" data-name="Layer 2"><g id="Layer_1-2" data-name="Layer 1"><g id="facebook_like_-_thumbs_up" data-name="facebook like - thumbs up"><path class="cls-1" d="M457.43,365.91c-4.13,8.64-8.74,17.28-15.66,23.89C430.12,400.93,413.1,405,397,404.19s-31.63-5.89-46.92-10.95L284.7,371.61c-3.9-1.29-9.14-2.13-11.28,1.37-6.75,11.06-21.5,13.46-34.39,14.75-67.6,6.75-135.25,13.51-203.14,15.69-8.87.28-18.45.28-25.64-4.91-12.36-8.91-11.13-27.35-8.6-42.37q10-59.08,19.9-118.17c5-29.45,10.07-59.39,23.27-86.19,2.26-4.6,5.32-9.54,10.32-10.69a995.3,995.3,0,0,1,218.45-25.48c3.81,0,7.84,0,11.08,2,3.75,2.29,5.64,6.63,7.21,10.74a291.68,291.68,0,0,1,10.7,34.06,163.49,163.49,0,0,0,52-103.59c1-10.19,1.08-20.61,4.16-30.37C362.49,16.56,371.24,5.86,383,1.7s26.4-.61,33.51,9.66c23.87,34.51,16.86,81.12,6,121.66,15.29-8.81,34.81-17.59,49.48-7.77,10.14,6.78,13.49,19.95,15.44,32a355.64,355.64,0,0,1-30.06,208.67m4.65-168.39c-3.34-1-3.44-6.08-1.21-8.77s5.72-3.93,8.52-6a17.34,17.34,0,0,0,4.93-21.06c-6.13-12-23.3-12.28-36.22-8.41a110.26,110.26,0,0,0-23,9.83c-8.83,5-19.86-5.2-20.18-15.35s5.7-19.25,10.28-28.32a110,110,0,0,0,11-62.33C415,46.75,410.6,34.87,400.5,32.36a15.14,15.14,0,0,0-16.83,8,15.14,15.14,0,0,0,4.67,18c4-2.72,10.32-.67,12,3.87s-1.93,10.16-6.74,10.62c-7.09.67-12.65,6.68-15.48,13.21s-3.62,13.75-5.49,20.62C366,131,346.72,149.29,328.27,166.29l-25,23c-4.26,3.93-8.91,8-14.65,8.85s-12.52-3.53-11.89-9.29L233.66,306.72c-2,5.35-3.28,12.7,1.64,15.59,43.1,25.3,89.56,46.91,139.21,52.61,7.09.81,14.32,1.29,21.32-.11,14.4-2.89,26-13.29,36.38-23.69,9.16-9.17,18.68-21.57,14.46-33.83-1.14-3.32,2.89-5.85,5.93-7.61,8.6-5,14-14.3,16.32-23.95S471,266,470.7,256.09c-.09-2.79-1.19-6.53-4-6.25-3.63.36-5.87-4.4-4.85-7.91s3.92-6.07,6.1-9c6.63-8.95,6.38-21.07,5.85-32.19a5.54,5.54,0,0,0-1-3.63c-2.55-2.74-7.13,1.51-10.71.42m-274.68-21a739.55,739.55,0,0,0-144.65,181c-1.43,2.52-2.85,5.67-1.37,8.16A928.34,928.34,0,0,1,221.13,162.55c-12.24-3.56-24.31,5.38-33.73,14M74.58,358.89c23.15-23.61,33.61-58.7,60.52-77.93,11.09-7.93,20.58-17.85,30-27.71l80.36-84.14c3-3.1,7.88-2.72,12.13-3.24s9.23-3.8,8-7.9c-12.48-1.41-23.66,7.15-33.15,15.38A1034.75,1034.75,0,0,0,61.73,363.22c4.16,2.6,9.42-.83,12.85-4.33M238.91,229.5q7.32-20.73,14.63-41.47c-.51-1.45-2.71-.53-3.78.58l-80.49,83.81c-2.6,2.71.9,7.56,4.66,7.51s6.8-2.91,9.45-5.56q17.7-17.73,36.45-34.35c4.44-3.92,9.77-8.06,15.61-7.11,1.75.28,2.88-1.74,3.47-3.41M41.28,331.58C65.74,287.73,94.51,246,129.55,210.09c15.1-15.49,31.3-29.85,47.49-44.2-9.14-3.41-18.37,4.27-25,11.39A1292,1292,0,0,0,49.52,301.18c-6.51,8.95-13.17,20.49-8.24,30.4m73.09-148.5-62,80c-3.11,4-6.31,9.49-3.56,13.74a948.17,948.17,0,0,1,89.62-105.72c-4.36-2.17-9.79-1.07-13.89,1.55s-7.18,6.56-10.17,10.41m92.41,135.63a5.8,5.8,0,0,0,1.68-2.3,30.12,30.12,0,0,0,3-13.53L154.5,357.61a14.55,14.55,0,0,0,18.92-3.53l19.79-27c2.33-3.19,5-6.63,8.95-7.31,1.57-.27,3.33-.09,4.62-1m20-59.26c-.79-1.28-2.74-.33-3.84.69l-30.27,28.27c-2.86,2.66-5.91,5.73-6.14,9.63a4.32,4.32,0,0,0,1.24,3.59,2.37,2.37,0,0,0,3.45-.3c2.64-4.4,5.48-9,10-11.52s11.06-2.06,13.7,2.34a184.56,184.56,0,0,1,11.91-32.7M56.22,226.34a8.18,8.18,0,0,0-1.77,4.18c0,1.53,1.13,3.2,2.66,3.12q21.75-29,44.35-57.38c-2.5-2.25-6.64-1.54-9.26.59s-4.12,5.28-5.73,8.24c-8.15,15-20.67,27.13-30.25,41.25m38.4,137.1c2.67-1.14,5.66-1.29,8.41-2.22,6.74-2.27,11-8.75,14.74-14.8a16.33,16.33,0,0,0,2.71-6.16c.3-2.24-.57-4.8-2.6-5.78-3.42-1.64-7,1.87-9.14,5L94.38,359.92c-.83,1.18-1.2,3.44.24,3.52m96.42-5.9a23,23,0,0,0,16.54-.05,12.93,12.93,0,0,1-3-13.36c-1.77-.94-3.73.82-5,2.4l-8.56,11m-117.9-176a6,6,0,0,0,1.24-3.11,3,3,0,0,0-.27-1.23c-1-2.22-4.43-2.3-6.23-.66s-2.33,4.23-2.5,6.66-.1,5-1.09,7.18c1.45,1.32,3.58-.52,4.63-2.18q2.11-3.33,4.22-6.66m78.67,22.71c-8.72,6.49-16.2,14.47-23.62,22.41a4.68,4.68,0,0,0-1.63,3,215.39,215.39,0,0,0,25.25-25.38m68.41,143.23c1.66,1.37,4.13.87,6.16.16a50.47,50.47,0,0,0,5.05-2.07c-2.74-3.84-9.89-2.62-11.21,1.91M280.35,178.6c-1.9.28-2.26,3.53-.46,4.22a41.67,41.67,0,0,0,8.52-7.77,5.72,5.72,0,0,0-7.73,3.35M136.76,351.92a5,5,0,0,0-6.37,4.5,4.44,4.44,0,0,0,7.17-5M370.35,47.31a12.82,12.82,0,0,0-.28,9.77,7.72,7.72,0,0,0,.88-10.5m-116.55,312c-2.13.49-2.6,4-.68,5,1.76-.62,3.78-1.51,4.2-3.33s-2.61-3.51-3.27-1.76M51,365.53A15,15,0,0,0,58.22,355,26.14,26.14,0,0,0,51,365.53m95.85-224.84c2,.49,4.71-.53,4.41-2.52a12,12,0,0,0-7.06,2,2.94,2.94,0,0,0,2.6.6M185.23,247a4.34,4.34,0,0,0,2.85-4.18,10.63,10.63,0,0,0-5.86,5.42,5.12,5.12,0,0,0,3.07-1m168-124a1.21,1.21,0,0,0,1.46,1.37,4.56,4.56,0,0,0,2.53-4.74,5.32,5.32,0,0,0-3.7,3.48M65.42,345.54a2.27,2.27,0,0,0-1.77,2.77c1.32-.36,2.85-.92,3.18-2.25s-2-2.43-2.33-1.09m224.75,18.35a1.65,1.65,0,0,0-2.91,0l2.47,2.47a1.66,1.66,0,0,0,.58-2.53m-128.13-94a1.38,1.38,0,0,0,1.55,1.45,3.64,3.64,0,0,0,1.52-2.48,2,2,0,0,0-2.85,1.09M72.92,338c1.31-.29.19-2.77-1-2.08s.07,2.85,1.31,2.34Z"/></g></g></g></svg>