<svg xmlns="http://www.w3.org/2000/svg" viewBox="0 0 74.04 209.52"><defs><style>.cls-1{fill:#fff;}</style></defs><title>information</title><g id="Layer_2" data-name="Layer 2"><g id="Layer_1-2" data-name="Layer 1"><g id="information"><path class="cls-1" d="M8.13,144.05c.42-2.13.84-4.07,1.25-6,1-4.83,2.29-9.62,2.89-14.49.41-3.32-.25-6.76-.22-10.15,0-4-1.4-7.6-2.36-11.3-1.29-5-3.36-9.78-5-14.69a6.89,6.89,0,0,1,.76-5.84,19,19,0,0,1,2.89-3.91,32.22,32.22,0,0,1,5.3-4.24c3.06-1.9,6.23-3.66,9.47-5.26C28,65.73,33,63.36,38.55,62.75c2-.22,4.05-.81,6.1-1a13.18,13.18,0,0,1,3.9.33c2.2.49,4.32,1.35,6.53,1.7,4.3.68,6.22,3.43,7.13,7.36a32.24,32.24,0,0,1-1.21,18,108.68,108.68,0,0,0-4.77,17.09c-1.44,8.6-4.07,16.89-6.43,25.25-.87,3.09-2.26,6-3.1,9.13a101,101,0,0,0-2.14,10.06,76.58,76.58,0,0,0-1,8.92,8.38,8.38,0,0,0,1,3.44c1.38,3.23,2.77,6.63,6.49,7.77a16.86,16.86,0,0,0,11.75-.33c1.85-.78,3.71-1.55,5.53-2.42s4.25.11,5.08,2.61a9.22,9.22,0,0,1-.29,7.44c-2.52,4.63-5.31,9.11-7.93,13.68-2.17,3.76-4.32,7.62-7.69,10.37-3.61,3-7.51,5.65-12.41,6.22-2.11.24-4.18.75-6.28,1-4.44.59-8.21-1.14-11.78-3.54-3-2-6-4-9-6a21.12,21.12,0,0,1-6.16-6.67c-1.41-2.36-3-4.65-4.2-7.1a17,17,0,0,1-1.94-5.7A112.37,112.37,0,0,1,5,166.93a55.41,55.41,0,0,1,2.61-17.27,5.35,5.35,0,0,0,.16-1.34c.12-1.37.24-2.73.35-4.27m4.24,36.22a28,28,0,0,0,1.45,4.16c2,3.74,5.56,5.88,8.77,8.37.19.14.53.08.8.12a2.26,2.26,0,0,0-.08-.79c-.19-.45-.48-.86-.71-1.29-1-1.75-1.17-3.66.06-5.22a62.5,62.5,0,0,1,5-5.13c2.28-2.28,4.57-4.56,6.83-6.86.2-.21.19-.64.28-1-.32.08-.72.07-.94.26-1.92,1.64-3.82,3.31-5.71,5-.53.46-1,1-1.51,1.46-1.94,2-4,3.94-5.75,6.1-1.25,1.54-2.67,2.23-3.69.93s-2.21-3-2.21-4.47c0-1.95-1.35-3.17-1.63-4.87,0-.29-.62-.49-1-.73a3.94,3.94,0,0,0-.36,1.25c0,.77.21,1.55.32,2.68m15.91,14.84c.2-.68.22-1.55.65-2,1.51-1.58,3.13-3.08,4.79-4.52s3.68-2.82,5.41-4.37a65.79,65.79,0,0,0,4.93-5c.43-.48.8-1.7.55-2a1.71,1.71,0,0,0-2.71-.05c-.92,1-1.73,2.14-2.68,3.12-2.67,2.76-5.28,5.59-8.11,8.16a15.69,15.69,0,0,0-4.33,5.34c-.19.45.49,1.27.77,1.92a1.34,1.34,0,0,0,.73-.68m-7.43-51.24c1.69-1.45,3.44-2.82,5-4.36s3.11-3.28,4.62-5a2.52,2.52,0,0,0,.32-.86c-.33,0-.74,0-1,.15-1.36,1-2.6,2.19-4,3.12-2.71,1.78-5.21,3.76-6.6,6.78a1.92,1.92,0,0,1-2.39,1.3c-1.15-.4-1.41.33-1.6.94a12.14,12.14,0,0,0-.39,2.83,3.1,3.1,0,0,0,.35,1.08,4.62,4.62,0,0,0,1-.68c1-1.17,1.9-2.39,2.89-3.56.48-.57,1.05-1.07,1.76-1.78m3.54-44.52c.82-.71,1.67-1.39,2.46-2.14a4.94,4.94,0,0,0,.68-1.08,3.24,3.24,0,0,0-1.19.24,42.83,42.83,0,0,0-4.12,2.82c-2.9,2.35-5,5.23-5.57,9.06,0,.35.45.77.69,1.17a6.52,6.52,0,0,0,.33-.83c.87-4,3.41-6.73,6.72-9.24M15.2,155.88c-.88-1.2-1.35,0-1.36.44a10.83,10.83,0,0,1-1.67,5.83c-.16.24.14.78.23,1.18.25-.15.57-.24.73-.46a40.07,40.07,0,0,0,2.4-3.4,2.83,2.83,0,0,0-.33-3.59m27.21-30c-1.64,1.21-3.23,2.51-5.42,2.68-.31,0-.62.5-.88.81a.77.77,0,0,0-.17.6.67.67,0,0,0,.54.31c1.81-.45,3.65-.82,5.39-1.44,1.38-.49,1.74-2.47.54-3m1.06-19.08c.45-.18.91-.34,1.36-.54,1.39-.6,2.8-1.15,4.15-1.84.38-.2.55-.78.82-1.19-.47,0-1-.28-1.4-.11q-2.84,1.2-5.59,2.6a6.86,6.86,0,0,0-1.32,1.22,8.36,8.36,0,0,0,2-.14m-4.59,33.57,0-1.45a14.24,14.24,0,0,0-1.44.47,1.52,1.52,0,0,0-.5.48l-1.4,1.72c1-.13,1.92-.23,2.88-.39.18,0,.33-.32.5-.83M13.26,170.19c.41-.63.25-3.43-.3-3.77a1.13,1.13,0,0,0-.9.39,21.52,21.52,0,0,0,0,3.31c.07.8.51.95,1.22.07M44,116.48c.56.15,1.51.55,1.63.38a9.23,9.23,0,0,0,1-2.35c0-.06-.53-.41-.57-.36a10.8,10.8,0,0,0-2,2.33M39.94,99.35a14.9,14.9,0,0,0,.06-2c0-.11-.66-.16-1-.24,0,.52-.08,1-.11,1.56,0,.12,0,.23,0,.34-.07.81-.07.81,1.08.34m-5.3,53.35c.32-.2.81-.34.92-.62.22-.55,1.9-.76.56-1.57-.31-.19-1.42.85-2.09,1.4-.83.7-.15.84.61.79m3.18-66.78a5.91,5.91,0,0,0,5.13-2c.11-.11.06-.38.08-.58-.08,0-.21,0-.24.07-1.11,1.78-3.29,1.35-5,2.49m20.84,96.82a17.55,17.55,0,0,0-.32,1.76c0,.14.37.31.58.46l1.09-1.8a3,3,0,0,0-1.35-.42M55.84,74.26l.33-.37c-.79-.15-1.57-.31-2.37-.4-.11,0-.25.3-.38.46.57.16,1.14.33,1.72.48a1.06,1.06,0,0,0,.7-.17M37.46,197.58c-.74-.89-1.26-.21-1.68.32-.19.24-.08.71-.1,1.07.41-.28.83-.55,1.23-.85a6.08,6.08,0,0,0,.55-.54m1.24-28.8-1.55.84c.09.13.23.37.28.35a8,8,0,0,0,1.32-.56c.1,0,.09-.3,0-.63m-14.14-58.3-.77,1,.49.35A1.85,1.85,0,0,0,24.56,110.48Z"/><path class="cls-1" d="M46.3,5.88A20.42,20.42,0,0,1,52.73,16a16.81,16.81,0,0,1,.15,10.72,41.32,41.32,0,0,0-1.6,6.4c-.53,3.12-2.66,5.12-4.83,7a103.63,103.63,0,0,1-8.34,6.26,15.16,15.16,0,0,1-7.06,3,15.23,15.23,0,0,0-3.62,1c-4,1.47-7.76.63-11.53-1.05C8.52,46.08,4,40.2,1.19,33c-2-5.1-1.29-10.32.61-15.37a6.72,6.72,0,0,1,1.46-2c1.91-2.09,3.8-4.23,5.85-6.19A30.67,30.67,0,0,1,19.93,2.69C22.14,1.9,24.26.77,26.52.31a14.51,14.51,0,0,1,6.19,0A88.82,88.82,0,0,1,42.92,3.8,29.24,29.24,0,0,1,46.3,5.88M20.68,35.56c3.08-1.66,6.17-3.3,9.22-5A13.85,13.85,0,0,0,32,28.82a10.3,10.3,0,0,0-2.64.64c-2.33,1.24-4.44,3-6.88,3.86a20.11,20.11,0,0,0-6.17,3.86,3,3,0,0,0-.52.86c.44,0,1,.23,1.31,0,1.19-.71,2.31-1.55,3.63-2.52M9.37,33.09c-.15-2-.49-3.94.51-5.82a4.13,4.13,0,0,0,.25-1.2,4.4,4.4,0,0,0-1.31.54c-1.19,1.05-1.48,5.63-.45,6.85.09.09.54-.12,1-.37m37.1-9.89c.83-1.84-.9-2.7-1.51-4a17.23,17.23,0,0,1-1.51,1.34c-.34.25-.82.31-1.18.53-.13.08-.14.39-.14.59a.59.59,0,0,0,.45.11c1.74-.91,2.54.51,3.89,1.43m0-12.73c.62.27,1.17,1.24,1.92.2-.3-.2-.59-.52-.92-.57a1.17,1.17,0,0,0-1,.37M34.28,5.35c-.54-.17-1.08-.34-1.62-.48,0,0-.09.28-.14.43.41.08.83.16,1.24.22.11,0,.23,0,.52-.17m4.95,3.53,1,.81.41-.5a3.26,3.26,0,0,0-1.37-.31M28.81,17.19l.82-.59L29,16.13A1.14,1.14,0,0,0,28.81,17.19Z"/></g></g></g></svg>