<svg xmlns="http://www.w3.org/2000/svg" viewBox="0 0 487.74 500.71"><defs><style>.cls-1{fill:#fff;}</style></defs><title>instagram icon</title><g id="Layer_2" data-name="Layer 2"><g id="Layer_1-2" data-name="Layer 1"><g id="instagram_icon" data-name="instagram icon"><path class="cls-1" d="M321.24,196.72c13,41.23-3.49,90-38.87,114.83-24.42,17.15-59.88,22-83.51,3.81a70.69,70.69,0,0,1-13.29-13.91A103.16,103.16,0,0,1,216.4,150.63c6.78-3.94,14.17-7.15,22-7.82,9-.77,17.86,1.83,26.15,5.28a128.09,128.09,0,0,1,49.71,37c2.89,3.52,5.63,7.3,7,11.64m-85.9,64.49a7.12,7.12,0,0,0,2,3.05l1.94-2.49a36.42,36.42,0,0,0,36-36.33,19.2,19.2,0,0,0-1.63-8.52,18.63,18.63,0,0,0-3.57-4.81,32.23,32.23,0,0,0-54.79,17.52,1.66,1.66,0,0,1-2.33-.28c-1.8.84-1.62,3.5-.7,5.25s2.37,3.45,2.17,5.42c-1.09,11.27,9.66,22.15,20.94,21.19m-16.14,2.61a35.84,35.84,0,0,0-3-7.46,19.73,19.73,0,0,0-4.71-6.05,17.17,17.17,0,0,0,.69,11.18,5,5,0,0,0,7.06,2.33m19.2,56.06,12.8-2.95c1.06-.24,2.41-.91,2.16-2-9.13,1.87-18.4,3.76-27.71,3.17,2.91,3.47,8.34,2.77,12.75,1.75m55.75-145.67a3.78,3.78,0,0,0-3.9-1.1,9.29,9.29,0,0,0,6.49,6.26,3.44,3.44,0,0,0,1.43-2.34l-3.9-2.92M282.55,180a5.46,5.46,0,0,0-4.63-2.2,16.24,16.24,0,0,0,6.07,6.68,2.91,2.91,0,0,0-1.46-4.3m26.87,73.36a19,19,0,0,0-4.59,5.19l2.6,1.49a6.08,6.08,0,0,0,2.1-6.77M194.9,223.76l1.06-3.45a5.33,5.33,0,0,0-3.45,7.09,4.09,4.09,0,0,0,2.26-3.61M247,157.38l5.21,1.4c.26-2.79-4.35-4.27-5.76-1.85Z"/><path class="cls-1" d="M360.84,161.27A32.23,32.23,0,0,1,345,174.86a12.78,12.78,0,0,1-6.52,1.22,26.45,26.45,0,0,1-16.65-43.27c7.2-8.54,20.51-11.59,30.3-6.21C363.73,133,367.36,149.72,360.84,161.27Z"/><path class="cls-1" d="M377.57,335.37a3.24,3.24,0,0,1,2.47.38c0,1.3-1.14,2.69-2.43,2.42s-1.27-2.7,0-2.63Z"/><path class="cls-1" d="M478.26,463.75a32.75,32.75,0,0,1-2.78,10.33c-4.36,8.47-14.52,11.88-23.76,14.19A418.12,418.12,0,0,1,303.26,498,2058.87,2058.87,0,0,0,35.77,485c-13.49.22-25.26-10.4-30.54-22.81S-.15,435.85.06,422.36C2,298.79,23.2,175.82,19.59,52.29c-.39-13.51-.28-29,9.9-37.86C37.26,7.65,48.49,7,58.8,6.77L291.17.67C334-.45,377.48-1.5,418.91,9.37,435.45,13.71,451.72,20,468.8,20.85c11.42.6,18.37,13.47,18.89,24.9s-3,22.84-1.8,34.22c6.83,65-10.83,130-11.87,195.3-1,63,13.43,126.2,4.24,188.48M86.75,126.93a3.46,3.46,0,0,0-3.85,2.79,11.45,11.45,0,0,0,6.81-5.44,2.22,2.22,0,0,0-2.58,2.52M107,212.13c-1,8.31-3.56,16.36-5.15,24.59-2.33,12.14-2.63,24.57-2.92,36.92L97,353.31c-.23,9.65-.42,19.53,2.67,28.67s10.2,17.53,19.67,19.39c26.09,5.12,52.68,7.25,79.23,8.57q25.14,1.26,50.3,1.56c37.58.45,75.43-.7,112.19-8.51,7.7-1.64,13.64-8.13,16.71-15.37s3.74-15.25,4.34-23.1q10.17-132.19,12.34-264.86a7.16,7.16,0,0,0-.34-2.88c-1.2-3-5.31-3-8.51-2.7a207.38,207.38,0,0,1-70.49-4.27c-18.67-4.41-38-4.84-57.19-5.25l-44.82-1c-29.73-.64-60.2-1.17-88.28,8.6-2.37.83-4.82,1.8-6.44,3.72-1.72,2.07-2.19,4.87-2.6,7.53q-2.7,17.81-5.41,35.59c-1.75,11.45-3.49,22.95-3.6,34.53-.12,12.87,1.79,25.8.19,38.57m320.6-90.77L462.43,90c5.61-5,11.44-10.4,14-17.51,1.12-3.15,2.43-7.29,5.77-7.35,2.31-9.47-3.84-18.74-9.66-26.56-3-4.08-6.15-8.23-10.3-11.19s-9.56-4.57-14.41-3a54.55,54.55,0,0,0,16.19,11,8.45,8.45,0,0,0-4.46,8.1c.9-3.21,5.41-4.25,8.28-2.55s4.25,5.14,4.71,8.44a22.66,22.66,0,0,0-14.85,6.77,143,143,0,0,1-31,24.12c-5.15,3-4.07,10.62-2.31,16.3,5.33-6,11.1-11.62,16.86-17.23l23.38-22.73c1.49-1.45,4.7-2.39,4.95-.33a17.73,17.73,0,0,0-3.86,4.84,2.83,2.83,0,0,0,1.45,2.35c4.47-1.18,4.37-9.92,9-9.55,2,.16,3.31,2.33,3.25,4.32a10.88,10.88,0,0,1-2.2,5.45c-10,15.39-24.14,27.57-38.06,39.54-3.72,3.19-8.92,6.55-13.1,4a34.51,34.51,0,0,0-1.13,14.29,1.73,1.73,0,0,0,2.67-.14M113.23,38.71c2.17-3,4.44-6.74,2.86-10.06a521.12,521.12,0,0,0-61.63,79.63c-4.58,7.28-9.08,14.93-10.33,23.44q22.65-30,45-60.18,12.1-16.38,24.14-32.83M444.88,202a15.86,15.86,0,0,0,2.38-9,81.88,81.88,0,0,0-21.46,22.17c-2,3-6.82,3-9.43.57s-3.18-6.54-2.26-10,3.09-6.46,5.31-9.28a149.85,149.85,0,0,1,21.32-22c5.93-5,12.9-10.84,12.38-18.57-2.85.8-5.09,3-7.2,5.06l-19.59,19.39c-2.25,2.23-5.05,4.65-8.18,4.09-2.81-.5-4.27,3.19-4.64,6q-2.72,20.64-5.42,41.27c1.14.64,2.51-.23,3.52-1.06l26.19-21.43c2.61-2.15,5.28-4.34,7.08-7.21m-6,203.64a4.78,4.78,0,0,0-1.56.86A905.58,905.58,0,0,0,362,468.64c3.6,2.17,8.34,1.62,12.09-.29s6.75-5,9.72-8a413.2,413.2,0,0,1,54-45.69c1.77-1.25,3.68-2.66,4.26-4.76s-1.16-4.83-3.27-4.29M236.78,34.54c-6.11-.91-12.87-1.68-18,1.79a142.72,142.72,0,0,0-26.67,23.43c.56,1.56,2.64,1.77,4.29,1.71l16.73-.62c1.73-.07,3.15-1.35,4.39-2.56l21.28-20.68a2.1,2.1,0,0,0,.56-.73c.51-1.26-1.26-2.14-2.6-2.34M295.69,439.2c-2.88,0-6.47.59-7.29,3.34-2.66,8.87-14.54,12-17.95,20.66-.38.95-.09,2.55.89,2.27a30.09,30.09,0,0,1,14.18.23c1.93.5,3.79-.88,5.31-2.18l28.85-24.65-24,.33M471,109.12,480.24,98c-.15-.85-1.46-.49-2.11.07l-52.4,45.23c-4.28,3.69-5,10-5.38,15.6a2.2,2.2,0,0,0,0,.81c.46,1.52,2.76.54,3.82-.63a176.11,176.11,0,0,1,32.48-27.95c6.13-4.08,3.44-16,10.35-18.6a10.18,10.18,0,0,0,4-3.37M164.64,437.72c1.12-1.14,2.35-2.64,1.86-4.17-3.34-1-6.76-2.1-10.26-2s-7.17,1.48-9.07,4.42c-6.61,10.24-20.42,15.11-24.56,26.57,6.43.9,13.36.84,18.92-2.5a35.16,35.16,0,0,0,6.8-5.81l16.31-16.48M78.52,385.21c-1.7-.45-3.46.76-4.35,2.29a22.44,22.44,0,0,0-1.67,5c-1.26,4.14-4,7.67-6.67,11.07Q48.57,425.4,30.11,446.23c-1.86,2.1-3.84,4.49-3.72,7.29,2.95,2.33,7.06-.69,9.55-3.5,9.65-10.88,19.29-21.79,28.2-33.28,7.2-9.3,14.19-19.77,14.38-31.53m338.63,83.5c1.42,0,3-.07,4-1,5.08-4.54,11.06-8.06,15.73-13s7.95-12.06,5.93-18.57c-1.81-.78-3.79.5-5.33,1.71-12.49,9.8-25,19.63-36.08,31l15.72-.1m-359.76-13a16.28,16.28,0,0,0,10.84-1.07q12.7-14,26.62-26.94a6.34,6.34,0,0,0-7.49-10.13,12.69,12.69,0,0,0-3.22,3.07l-23.3,28.13c-1.69,2-3.46,4.3-3.45,6.94M410.3,255.91a23,23,0,0,0-2.74,14.7L431,252.56a41.29,41.29,0,0,0,5.29-4.58,21.09,21.09,0,0,0,5.44-16,2.81,2.81,0,0,0-.27-1.14c-.89-1.68-3.44-.62-4.89.59l-15.3,12.82c-4.11,3.44-8.3,7-11,11.64M241.73,60.36a30.3,30.3,0,0,1,14.85-2.12c4.1.45,7.89-2,11.25-4.43Q280.65,44.65,293.09,35l-12.48-.59c-2.79-.13-5.79-.21-8.14,1.3q-14.27,9.14-27.71,19.5c-1.68,1.3-3.54,3.12-3,5.18M83.86,38.53c-6.6,1.65-10.7,8-14.13,13.93L53.22,80.74c-2.3,3.94-4.69,8.32-3.9,12.81a31.38,31.38,0,0,0,6-7.12C68.85,66.88,82.8,47.58,98.62,29.87c-2.14-2.38-6.16-.46-8.11,2.06s-3.55,5.82-6.65,6.6m380,402.84a124.73,124.73,0,0,0,2.77-27.52,146.13,146.13,0,0,0-3.44-29.1c-1.43-1.92-4.75-1.12-6.06.89s-1.19,4.59-1,7l2.55,38.78c.27,4,1.3,9,5.22,10M114.86,72.2c.82-.61.43-2-.34-2.63A29.82,29.82,0,0,1,112,67.83c-2.61-2.79,1.69-7.76-.34-11a728.58,728.58,0,0,1-49.28,66.88c-2.45,3-4.95,7.36-2.41,10.24a15.82,15.82,0,0,0,2.75-1.61c5.2-3.71,8.45-9.49,11.74-15a268.25,268.25,0,0,1,27.39-37.73c3.42-3.92,7.82-8.1,13-7.44m-17.08,377c-3.68,3.06-8,6-9.35,10.59l14.4-.35a10.29,10.29,0,0,0,4.64-.85,3.51,3.51,0,0,0,1.94-3.92c-1.5-4.49,2.16-8.94,5.61-12.17q7-6.58,14.59-12.57c-5.07-5.16-15.07-3.68-18.44,2.72a54.71,54.71,0,0,1-13.39,16.55M377.29,63.83c2-1.73,4.8-3.54,7.06-2.17s5.17-.21,7.35-1.76L416,42.54c1.94-1.38,4.06-3.09,4.16-5.47l-21.84.56c-1.62,0-3.81.7-3.6,2.31.68,5.15-4.13,9.2-8.47,12.07s-9.26,6.63-9,11.82M32.67,309q19.52-26,37-53.47c1.4-2.19,2.45-5.74.1-6.86Q57.5,263.47,45.7,278.64c-6.94,8.93-14.12,19.15-13,30.4M375,38.6c-3.31-2.91-8.45-2.74-12.44-.9s-7.17,5-10.43,8a106.74,106.74,0,0,1-18.64,13.47c-2.33,1.33-5,4.43-2.9,6.12,5.64-3,12.82-1.74,18.49-4.71a27.29,27.29,0,0,0,5.11-3.79L375,38.6M49.89,386.16l-7.16,10.46q-6.94,10.14-13.88,20.29c-1.23,1.79-2.26,4.65-.39,5.75C41,407.88,53.7,392.91,62.38,375.57c2-3.92,5.7-6.62,8.41-10.07s4.29-8.68,1.5-12.06q-11.21,16.35-22.4,32.72M26,351.85a26,26,0,0,0,4.56-5.09l32.25-42.95c3.26-4.35,6.64-9,7.34-14.35-2.33.51-4,2.52-5.41,4.42-10,13.1-19.59,26.55-31,38.41-2.61,2.72-5.35,5.4-7.11,8.73s-2.39,7.51-.62,10.83M41,231.3a102.38,102.38,0,0,0,9.27-12.6l23.37-35.46c2.66-4,5.3-9.54,2.28-13.31-11.06,16.3-22.16,32.68-30.66,50.46-1.71,3.58-3.73,7.59-7.52,8.77-4.24,1.31-4,7.33-2.95,11.63,2,.09,3.46-2,4-3.9s.8-4.1,2.16-5.59m29.59,90.8a279.22,279.22,0,0,0-42.82,63c-1.14,2.29-1.95,5.66.29,6.9l10.41-17c8.77-14.32,17.57-28.7,28.29-41.62,2.67-3.22,5.64-7.44,3.83-11.22m264-283.66c-3.72-2.31-8.56-2.2-12.69-.75s-7.74,4.09-11.27,6.7l-17.2,12.67c2.77,2.77,7.23,3.22,11,2.12s7-3.48,10.12-5.81l20.05-14.93M169.69,60.37a8.21,8.21,0,0,0,3.65-.71c1.47-.81,2.27-2.42,3.06-3.9a62.2,62.2,0,0,1,18-21c1.13-.83.22-2.84-1.15-3.13s-2.73.48-3.91,1.24a199.45,199.45,0,0,0-31.42,25c-.83.81-1.69,2.14-.91,3l12.66-.47M403.63,336.7l1.6.92a356.15,356.15,0,0,0,28.41-27.22c1.26-1.34,2.57-2.83,2.8-4.65s-1.21-4-3-3.69a4.65,4.65,0,0,0-2.18,1.28l-20.71,18.11c-4.53,4-9.51,9.84-6.88,15.25M398.15,9.86a272.39,272.39,0,0,0-51.75-3,2.09,2.09,0,0,0-.18,2.49c14.74-.32,29.46.93,44.15,2.18a37.32,37.32,0,0,1,9.71,1.7,224.71,224.71,0,0,0,31.25,9c2.64.55,5.94.82,7.48-1.4-12.92-5.59-26.75-8.84-40.66-11M221.43,439.75a32.4,32.4,0,0,0-7.21,6.18l-13,13.56c-.92,1-1.83,2.6-.79,3.44a2.15,2.15,0,0,0,1.05.38c5.4.84,10.3-3,14.43-6.56l20.23-17.5a16.37,16.37,0,0,0-14.73.5m-20.27-5.21c-3.74-2.83-8.88.63-12.23,3.92l-20.08,19.7c-.64.63-1.33,1.47-1,2.31s1.57,1,2.55,1l11.89-.52c1.82-.08,4.31-1,3.79-2.78-1.42-4.69,1.45-9.62,4.91-13.09s7.71-6.3,10.19-10.53M401.24,73.81c6.84.42,13-3.74,18.6-7.71l17.74-12.61c5.28-3.76,10.61-7.56,14.79-12.51-1.09-2.66-5.1-1.34-7.41.37L401.24,73.81M42.82,192.32c.93-1.6,1.76-3.86.36-5.06-3.1-2.68-4-7.2-3.45-11.26s2.39-7.8,4-11.57c.8-1.88,1.05-4.84-.95-5.25-1.64-.34-2.77,1.57-3.31,3.15a96.85,96.85,0,0,0-4.36,43q3.91-6.5,7.71-13.05M408.32,358c-1.65,1.43-3.43,3.09-3.58,5.27s2.61,4.34,4.23,2.88l9.17-8.27c6.45-5.81,13-11.78,17.14-19.42-.77-1.81-3.51-.76-5,.53l-22,19m-3.78-58c.41,1,1.94.51,2.81-.16q10-7.62,20-15.25c5.89-4.49,12-9.23,15.25-15.88-1.08-2.19-4.41-.89-6.28.68A318.68,318.68,0,0,0,404.54,300M462,362.11q.52-9.35,1.07-18.68c-2.72-1.29-6,.32-8.08,2.46A14.26,14.26,0,0,0,450.68,357a10.59,10.59,0,0,0,7.17,9.1,3.45,3.45,0,0,0,2.33,0c1.41-.62,1.7-2.47,1.79-4M258.64,441.82l-20.08,18.39a1.68,1.68,0,0,0-.75,1.34,1.38,1.38,0,0,0,.77.92c2.5,1.4,5.51-.5,7.69-2.36a211.7,211.7,0,0,0,21.2-20.73c-2.57-2.16-6.36.17-8.83,2.44M140.75,64.36a23.84,23.84,0,0,1,3.71-13c.71-1.12,1.34-2.93.13-3.46L123,68.17c5.91,1.85,11.73-5.3,17.75-3.81m315.8,169.88c1.62,1.69,4.1-1,4.7-3.28a44.69,44.69,0,0,0,.87-18.56c-4,.78-5.13,5.83-5.43,9.87-.24,3.07-.47,6.15-.71,9.23a3.5,3.5,0,0,0,.57,2.74M325.65,468a3.66,3.66,0,0,0,2.43-.4c.89-.64,1-1.89,1.14-3a20.71,20.71,0,0,1,5.34-11.54c-.77-1.53-3.09-.5-4.34.68q-7,6.64-13.6,13.64l9,.6m124.5-139.87c6.06-.82,11.27-8.07,7.92-13.19a4.46,4.46,0,0,0-2.57-2,18.25,18.25,0,0,0-5.35,15.2m-366-80.67q3.3-11.08,5.81-22.39c.25-1.11.39-2.51-.54-3.17-1.42-1-3.1.93-3.68,2.59a43.16,43.16,0,0,0-1.59,23M313.7,7.36l1.4,2L337,9.94c2.65.06,5.83-.17,7.1-2.49-3.69-2-8.17.06-12.37.17-6.18.17-13-3.85-18.06-.26M476.5,138.24c1-.52,2.22-.63,3.08-1.35.62-.51.92-1.59.28-2-8.22,1.54-13.56,11.63-10.22,19.29,3-.81,3.75-4.61,3.81-7.68s.32-6.8,3.05-8.21M462.73,252.83c-1.87-1-4.34.3-5.28,2.22s-.76,4.17-.57,6.3l.75,8.26c1.24,1.12,2.75-1.06,3-2.7l2.1-14.08m-378.13,41a118,118,0,0,0,.14-26.3,81.47,81.47,0,0,0-2.08,27.95c.68.87,1.82-.56,1.94-1.65m378.7,170.3c.81-2-1-4.17-.59-6.28a3.17,3.17,0,0,1,1.87-2.33c.57-.89-.49-2.11-1.55-2.08a4.24,4.24,0,0,0-2.67,1.58c-2,2.07-3.92,4.75-3.33,7.56s5.17,4.2,6.27,1.55M93,209.9a87.8,87.8,0,0,0,1-20.16c-.12-1.7-1.67-4-2.88-2.8a83.34,83.34,0,0,0,1.12,12.61A7.57,7.57,0,0,0,93,209.9m376.15-33.07c-.8-1.76-3.61-1.58-4.87-.11s-1.37,3.57-1.4,5.5c0,2.39,0,4.77.07,7.16,2.16.51,3.55-2.2,4.1-4.35l2.1-8.2M437.6,27.08a13.85,13.85,0,0,0-6,2c-.76.5-1.18,2-.27,2,2.23,1.46,4.78,3,7.4,2.45s4.35-4.37,2.18-5.92a4.81,4.81,0,0,0-3.33-.5m17.25,272.48a16.73,16.73,0,0,0,2.06-12,4.79,4.79,0,0,0-1.74-3.13,14.15,14.15,0,0,0-.32,15.16M130.58,41.34a21.07,21.07,0,0,0,9.83-9.42L137,30.5a16.71,16.71,0,0,0-6.43,10.84m231-13.56c-2-2.59-4.89-5.49-7.92-4.35L347,25.92c.35,1.49,2.34,1.87,3.83,1.52s3-1.13,4.46-.81c2.3.49,5.11,3.19,6.28,1.15M97.73,125.64a6,6,0,0,0,.4-7.67,10.19,10.19,0,0,0-2.24,13,5.68,5.68,0,0,0,1.76-5M474,118.1h-2.92a1.8,1.8,0,0,0-.28,2.09,7.77,7.77,0,0,0,10.81-2.63,10.44,10.44,0,0,0-7.63.49M82.79,158.39a23.43,23.43,0,0,0-4.7,8.55A21.92,21.92,0,0,0,87,154.67a6.17,6.17,0,0,0-4.6,3.34M66.64,38a26.09,26.09,0,0,0,4.53-6.84c-3.9-.63-7.67,3.72-6.5,7.49.41.86,2-.06,1.5-.85m328-9.5a31.72,31.72,0,0,0,9.48.27,10.14,10.14,0,0,0-12.09-1.8l2.59,1.65M351.07,439.59c1.5-1.14-.89-3.56-2.63-2.86s-2.55,2.66-3.7,4.15a4.49,4.49,0,0,0,2.62,1.6l3.41-3.41M481.76,84a4.77,4.77,0,0,0-5.31-1.85,5.74,5.74,0,0,0,4.46,5.41,2.45,2.45,0,0,0,.93-3.6M91.73,150.76a2.61,2.61,0,0,0,2.36,3.33,8.08,8.08,0,0,0,1.4-6.44,3.41,3.41,0,0,0-3.84,3.09M404.9,83.88c1.89.68,4.45-.58,4.43-2.59a4.68,4.68,0,0,0-6.64,1.44c-.36,1,1.27,1.87,1.9,1m21,19.44c.85.88,3,1,2.55-.14-.68-1.43-1.47-3-2.89-3.66s-3.61.12-3.6,1.71l3.67,2.36M370.79,68.56a2,2,0,0,0-1,2.8,7.63,7.63,0,0,0,6.33-2.44,3.7,3.7,0,0,0-5.4-.56M64.37,226.66a3.69,3.69,0,0,0,2.56-4.32,9.78,9.78,0,0,0-5.41,8.83,6.5,6.5,0,0,0,2.79-4.46M403.59,60.4a5.18,5.18,0,0,0-5.9,4.63,1.93,1.93,0,0,0,2.12.31l3.89-3.9m-109.45-54a1.45,1.45,0,0,0,.51-2.37,14.93,14.93,0,0,0-6.47,2.38,3.65,3.65,0,0,0,5.73,0m-9,60.93c2.3.37,5.75-.34,5.29-2.63A10.08,10.08,0,0,0,282.7,68a1.51,1.51,0,0,0,2.38.42M248,69.24A1.88,1.88,0,0,0,249,66.55a11.65,11.65,0,0,0-6.75,4.31,4.34,4.34,0,0,0,5.29-1.73m-224,176.09c-.47.85,1.13,1.77,1.63.94l1-6.13a3.65,3.65,0,0,0-2.93,5.34M419,379.58a4.16,4.16,0,0,0-5.83,3.26,5.59,5.59,0,0,0,5.81-3.2M77.87,256.6a8,8,0,0,0-1.17-8.22,7.74,7.74,0,0,0,1,7.89m291.09,179.5a10.35,10.35,0,0,0,4.33-1.58,5.73,5.73,0,0,0-3.29-2.33,4.07,4.07,0,0,0-2,1.7c-.36.8.09,2,1,2M275.28,12.9h2.93a3.42,3.42,0,0,0,.47-2.44,8.66,8.66,0,0,0-4.39-.5,1.9,1.9,0,0,0,1,2.78m135.73,93.14c.7-1.45-.76-3.25-2.38-3.32-.42,1.23-.83,2.67-.13,3.78s2.94.84,2.8-.46M167,17.92a4.35,4.35,0,0,0-5.34-.59c.13,2.14,3.79,2.76,4.61.77M263.66,7.17a1.41,1.41,0,0,0-.17,2.57l3.57-1.23c.18-1.43-2-1.68-3.39-1.3M75.57,282.89c1.7,0,1.68-2.59,1.06-4.17-1.68-.14-1.75,2.46-1.14,4m80.94-246.4c1.49-.07,2.91-1.89,1.95-3-1.48,0-2.9,1.86-1.93,3M142.83,18.69c.44.58,1.38-.4,1-1s-1.24-.71-2-.72c-.86.48,0,2.12.89,1.68m272.89,80c-.2.72,1.17.88,1.45.2s-.16-1.44-.58-2c-.86-.56-1.69,1.16-.92,1.83Z"/></g></g></g></svg>