<svg xmlns="http://www.w3.org/2000/svg" viewBox="0 0 776.87 601.27"><defs><style>.cls-1{fill:#fff;}</style></defs><title>mail icon</title><g id="Layer_2" data-name="Layer 2"><g id="Layer_1-2" data-name="Layer 1"><g id="mail_icon" data-name="mail icon"><path class="cls-1" d="M681.27,537.19c.63,17.83-.74,37.69-13.55,50.12s-32.33,13.18-50,13.29c-188,1.19-376.35,2.37-563.9-11.43-5.61-.41-11.53-.95-16.13-4.19-6.69-4.72-8.62-13.63-10-21.7a1983.45,1983.45,0,0,1-26-412.06c.64-15.49,1.8-32,11-44.45s29.48-18,40.28-6.83c6-11.86,1.65-26,.46-39.26s4.24-30.07,17.49-31.27Q380.1,1.44,690.9,0C711-.09,728.74,14.57,738.23,32.24s12.28,38.06,14.92,58q4.43,33.38,8.86,66.75c7.2,54.24,14.41,108.64,14.84,163.36a662.18,662.18,0,0,1-21.14,171.2c-4,15.35-23.69,18.89-39.46,20.6s-35.54,9.24-35,25.09M501.16,270.42c-4.15-3.65-10.63-7.24-14.6-3.41-2,1.95-2.29,5-2.57,7.82-1.71,17.42-8.37,34.64-20.39,47.36s-29.66,20.52-47.09,18.9A64.69,64.69,0,0,1,392,333.2a88.75,88.75,0,0,1-41.63-49.62Q281.25,354,212.12,424.35c-19.21,19.56-38.52,39.24-54.21,61.72a1256.56,1256.56,0,0,1,194-4.91c33.54,1.75,67-5.54,100.55-5.33,20.26.13,40.44,3,60.7,2.84,25.83-.21,51.46-5.32,77.29-5.21,37.2.16,75.7,11,110.78-1.41-19.83-41.37-59.54-68.74-94-99.05-36.93-32.51-69.13-70.1-106.08-102.58m-37.57-67.19c43.23-32,78.11-74.45,122.49-104.84a324.72,324.72,0,0,0,64.47-58.28,1253.17,1253.17,0,0,0-240.26,1.15c-30.88,3.12-61.94-2-93-2.82-64.22-1.61-127.9,15.57-192.09,13,.25,4.67,4.89,7.67,9,9.93,80.73,44.71,148.2,110,226.55,158.78,4,2.51,9.92,4.71,12.88,1,8.23-10.29,21.37-15.72,34.47-17.2s26.3.6,39.26,3c2.76.51,5.6,1,8.35.46,2.94-.61,5.47-2.41,7.88-4.19m-215.31,8.92c-13.53-9.11-25.2-20.68-38.09-30.69-22.34-17.34-48.05-29.76-71.87-45s-46.53-34.3-58.32-60a306.69,306.69,0,0,0,1.6,35.21c1.66,16.1,4.59,32,6.82,48.07C103,265,86.83,374.1,113.49,477c.94,3.64,2.13,7.56,5.19,9.76,3.92,2.81,9.62,1.65,13.41-1.32s6.17-7.35,8.6-11.51a192.45,192.45,0,0,1,38.76-47.19c8.32-7.36,16-15.44,23.59-23.52q69.18-73.16,138.35-146.33c-29.25-18.27-64.5-25.47-93.11-44.74M711,449.27c2.91,4.07,9.73,3,13-.72s4-9.06,4.54-14A720.67,720.67,0,0,0,727,270.65c-5.55-44.84-15.34-90.11-8.55-134.79,3.48-22.92-6.57-47.4-25.17-61.25-3-2.22-7.06.33-9.84,2.78l-94.8,83.52c-7.23,6.37-14.48,12.76-20.76,20.06s-11.65,15.59-17.79,23.14c-8.37,10.28-18.25,19.24-28.4,27.77-3.11,2.62-6.35,5.32-8.18,9s-1.88,8.52,1,11.38l80.31,79.12c9.4,9.26,18.81,18.53,28.95,27,10.94,9.13,22.7,17.27,33.39,26.69,21,18.5,37.49,41.49,53.77,64.26M139.34,538.59l12.08-6.83A64.54,64.54,0,0,0,126.17,526c-3.72-.08-7.62.12-11-1.53-2.35-1.17-4.17-3.16-6.09-5a48.6,48.6,0,0,0-13.69-9,5.42,5.42,0,0,0-3.5-.62,5.77,5.77,0,0,0-2.84,2.43L72.56,534.58c-3.19,4.29-.1,11.7,5.24,12.07s9-4.92,11.66-9.56l7.65-13.6c1.48-2.62,5.36-3.07,8-1.56s4.09,4.4,5,7.29a26.85,26.85,0,0,1-2.66,21.17c-1.4,2.33,2,4.55,4.65,5.19,3.89.94,8.37,1.77,11.59-.61,2.59-1.91,3.5-5.3,5.25-8,2.46-3.79,6.55-6.16,10.49-8.38M257,566.94c5.69.27,11.4.29,17.09.07a25.31,25.31,0,0,0,7.8-1.19c3.71-1.38,6.59-4.3,9.45-7,11.46-10.94,24.5-20.06,37.48-29.13l-22.79-1c-4.32-.19-10.05.72-10.61,5-1.14,8.54-10.72,12.62-18.31,16.69A66.46,66.46,0,0,0,257,566.94m-59.33-3.72c4.45,1.82,9,3.66,13.81,4s10-1.21,12.92-5a141.71,141.71,0,0,1,30.87-29.31c1.83-1.27,3.85-2.76,4.14-5l-30.59,2.29a12.44,12.44,0,0,0-5.31,1.2c-1.59.91-2.77,2.79-2.27,4.55,1.79,6.25-2,12.87-7,17s-11.18,6.6-16.53,10.28M552.5,524.83c-8.25-2.45-17.31.1-24.64,4.63s-13.31,10.87-19.55,16.81a234.8,234.8,0,0,1-21.33,18c-1.52,1.12-3.15,3.31-1.78,4.6a2.87,2.87,0,0,0,1.16.57c5.56,1.59,11.1-2.15,15.67-5.68l50.47-38.92m-132.15,4c-1.46,0-3.22.23-3.85,1.55-7.63,15.94-28.15,21.67-37.75,36.5,4.1,2.18,9.23,1.58,13.44-.38s7.74-5.12,11.28-8.13a246.93,246.93,0,0,1,38.75-27.08,2,2,0,0,0,.83-2.86l-22.7.4m110-347.35c-.87-1.41-3.05-.42-4.3.67l-41.3,36.07c-1.94,1.69-4.05,4.34-2.68,6.51,1.52,2.41,5.25,1.13,7.61-.47a138.31,138.31,0,0,0,40.67-42.78M322,569.35c5.89,1.12,12.68,1.26,17.09-2.8L376,532.48a2,2,0,0,0,.6-.74c.49-1.27-1.41-2-2.77-2.06-3.45-.07-7.83.49-8.81,3.8-2.05,7-9.13,10.95-15.44,14.55a212.2,212.2,0,0,0-22.82,15.07c-2.16,1.63-4.44,3.58-4.78,6.25M54.49,517.88Q64,505.09,72.65,491.66c1.19-1.84-.14-4.21-1.26-6.11s-1.86-4.73,0-6c-2.21-2-5.69.1-7.76,2.27-4.6,4.83-8.68,10.35-10.74,16.69S51,512.2,54.49,517.88m541.43,46.27c4.74.46,8.78-3.19,12.13-6.58,10.49-10.59,21-21.21,30.36-32.81,1.27-1.58-.71-4-2.73-4s-3.66,1.6-5.08,3.05L594.08,561a2.52,2.52,0,0,0-.58.76c-.5,1.23,1.1,2.28,2.42,2.41M64.45,425c-.64-1.45-2.84-.53-4,.56-6.83,6.43-14.19,14-14.14,23.38a17.33,17.33,0,0,0,1.83,7.64c.33.65.8,1.35,1.52,1.47,1.21.2,1.93-1.25,2.5-2.33,2.63-4.94,9.65-6.35,12-11.4,1.11-2.34,1-5,.89-7.62-.17-3.6-.33-7.2-.5-10.8a2.47,2.47,0,0,0-.15-.9M557.32,560.08l37.4-32.82c1.55-1.36,3.21-3.55,2-5.21-1.38-1.9-4.33-.37-6.06,1.22Q567.18,545,542.1,564.81c4.85,3,10.93-1,15.22-4.73m-283.4-362.2c1.37.7,3.53,1.1,4-.35a160.41,160.41,0,0,0-53.49-35.4c-.49.92.35,2,1.13,2.64a237,237,0,0,0,48.35,33.11M60.27,385.37c1.69-5.38.3-11.21-1.32-16.61a58.86,58.86,0,0,0-16.9,36.59c1,1.23,2.93,0,4-1.16l7.36-8.38c2.77-3.15,5.62-6.44,6.89-10.44M469.32,546.15c-4.61.64-8.61,3.41-12.41,6.11L431,570.64a89.38,89.38,0,0,0,13.34,1.65,13.92,13.92,0,0,0,6.26-.76c1.94-.86,3.55-2.81,3.35-4.92-.4-4.4,3.08-8.14,6.56-10.86s7.46-5.39,8.8-9.6m-409-339-.06-23.33a6,6,0,0,0-.93-3.94c-.88-1.05-2.93-1.15-3.42.14A141.4,141.4,0,0,1,40,210.09c3.7.57,7-2.07,10.3-3.85s8.24-2.35,10.05.93M171.63,548.59A52.27,52.27,0,0,1,196,535.29c-1.39-2-4.26-1.95-6.65-1.73l-19.43,1.78a2.94,2.94,0,0,0-2.31.94c-.85,1.28.61,2.8,1,4.28.47,1.74-.61,3.47-1.08,5.21s.34,4.23,2.13,4.06a3.56,3.56,0,0,0,2-1.24M730,84.77c3.68-3.19,3.59-9.3.88-13.35s-7.35-6.4-12-7.93c-2.13-.7-4.3-1.27-6.47-1.84-.59,1.34.41,2.81,1.36,3.93L730,84.77M42.21,334.41,55,321.71c3.87-3.84,4.1-9.92,4.09-15.37-.77-1.28-2.69,0-3.55,1.18L42.43,326.2c-1.83,2.6-3.18,7.07-.22,8.21M736,193.23c-2.23,17.42,5.9,34.57,6.13,52.13,0,3.16.12,6.94,2.8,8.63,1.08-2,.93-4.42.71-6.68A329.31,329.31,0,0,0,736,193.23M61.35,238.31c-1.56-1.5-4,.3-5.37,2l-12.8,16c.39,2,3.44,1.26,5.08,0,6.18-4.6,13-10.31,13.09-18M640,560.9c-1.5,1.73.94,4.55,3.22,4.23s3.86-2.35,5.19-4.22c2.79-3.9,5.64-9.18,2.92-13.14q-5.65,6.57-11.33,13.13M765.2,294.58l-.05,2.72c0,2.27,0,4.66,1.05,6.65s3.72,3.32,5.71,2.22,1.54-4.94-.73-5a3.28,3.28,0,0,1-3-3.63c1.77-.88,3.13-2.87,2.7-4.8s-3.12-3.13-4.58-1.78c-.94.87-1,2.3-1,3.59m-358,13.29c.06,1.5,2,2.35,3.4,1.9a7.44,7.44,0,0,0,3.37-2.88l9.42-12.19a29.33,29.33,0,0,0-15.36,11.13,3.58,3.58,0,0,0-.83,2M32.6,126.81a7,7,0,0,0,2.59-3.5,4.49,4.49,0,1,0-5.76,6.83l3.19-3.29M766.79,366.44a5.36,5.36,0,0,0-6.67-3.41,41.68,41.68,0,0,0,11.76,10.57,8.75,8.75,0,0,0-4.85-7.06M37.66,292.62c1.81.58,3.18-2.35,1.92-3.78s-3.68-1.18-5.22-.06-2.5,3.23-1.55,4.83,4.1,1.11,4-.74m707.12-171c-.18,1.34,2.17.68,2.74-.54a11.35,11.35,0,0,0,.34-8.82,10.52,10.52,0,0,0-3.61,9.35M81.59,62.08l-1.88-3.25c-1.16,1.37-2.37,2.84-2.63,4.62s.9,3.88,2.7,3.93c2.17.05,3.06-3.62,1.09-4.56M770.14,315.29c.23.71,1.4.55,1.75-.1a2.92,2.92,0,0,0-.06-2.17c-.64-2.2-2.27-5-4.43-4.2a6.23,6.23,0,0,0,2.78,6.44M65,550.29a5,5,0,0,0-.11,5.77,18.71,18.71,0,0,0,3.25-9.23,2.77,2.77,0,0,0-2.93,3.45m704.1-210,.13-3.06c-3.44,3-2.93,9.28.94,11.65q-.79-4.25-1.61-8.48M736.19,185.3c-1.45-2-5.21-1.29-5.82,1.1,1.25,2.26,5.43,1.49,5.81-1.07m4.94-91c-1.93,1.53-.78,5.31,1.68,5.51l-.06-6.6c-.55-.76-2,.32-1.43,1.07m-82,428.09a1.62,1.62,0,0,0,1.35,2.4c.5-1.16,1-2.32,1.49-3.49a3.5,3.5,0,0,0-3.49-1.49,1.59,1.59,0,0,0,.54,2.42M214.53,153.05a9.58,9.58,0,0,1-3.93-3.31c-1.87,1,.1,3.69,2,4.64.8.41,1.79.81,2.55.34s.24-2.09-.55-1.66M753.3,223c.89,1,2.76,0,2.88-1.41s-.81-2.56-1.68-3.6a3.74,3.74,0,0,0-.9,4.87m2.09,8.06a3.17,3.17,0,0,0,2,4.94,6,6,0,0,0-1.86-5.28m-3.15,125.22a2.2,2.2,0,0,0,3.32.54,2,2,0,1,0-3.92-.48m-5.44-183a2,2,0,0,0-2.38,2,2.15,2.15,0,0,0,2.42,2,4.34,4.34,0,0,0,.05-4M756,446.4a2.78,2.78,0,0,0-3.9-1.13c.09,2,3.19,3,4.38,1.35M566.64,481.93c-1.11-.25-2.9.35-2.31,1.33.7,1.38,3.31-.24,2.38-1.48m175-302.8a1.6,1.6,0,0,0,.83,2.81,1.72,1.72,0,0,0-.92-2.95Z"/></g></g></g></svg>