<svg xmlns="http://www.w3.org/2000/svg" viewBox="0 0 586.45 539.63"><defs><style>.cls-1{fill:#fff;}</style></defs><title>spotify icon</title><g id="Layer_2" data-name="Layer 2"><g id="Layer_1-2" data-name="Layer 1"><g id="spotify_icon" data-name="spotify icon"><path class="cls-1" d="M171,518.49c-17.5-7-32.93-17.19-49-26.06s-32.36-17.68-48.38-26.78a50.47,50.47,0,0,1-10.56-8.27C51.85,446.14,40.54,435,30,423.13c-4.35-4.89-7-11.35-10.18-17.2A142.57,142.57,0,0,1,5.54,368.87,106.55,106.55,0,0,1,2.9,349.49C2.48,338.34,3,327.16,2.73,316c-.43-15.73-.32-31.56-2.24-47.13C-1.09,256,1.47,244,3.64,231.72c.89-5.07.14-10.42.15-15.65a70.27,70.27,0,0,1,9-34.93c3.56-6.32,6.76-12.85,10-19.36,10.59-21.5,23.6-41.28,41.77-57.14,8.89-7.76,18.6-14.57,27.86-21.93,4.3-3.42,8.54-6.95,12.56-10.7,13.62-12.73,27.47-25.19,43.71-34.52A116.32,116.32,0,0,1,167.14,29c12.34-4.44,24.85-8.42,37.35-12.42,4.46-1.42,8.79-2.38,12.89-5.36,2.91-2.12,8.16-.79,12.26-1.57,6.43-1.22,12.73-3.13,19.16-4.36a151,151,0,0,1,17.95-2.47c6.36-.42,12.79.23,19.16-.16C298.34,1.9,310.77-.26,323.15,0c11.7.27,23.33,3,35,4.55,3.34.45,6.74.54,10,1.24,2.05.45,3.86,1.93,5.89,2.62,3.23,1.1,6.61,1.74,9.8,2.9,8.11,3,16.2,6,24.19,9.19,7.7,3.12,15.6,6,22.82,10A87.08,87.08,0,0,1,449.22,44c6.36,6.24,14.26,8.06,22.07,10.92a84.94,84.94,0,0,1,38.35,28c7.56,9.69,15.35,19.35,24.09,27.95,11.46,11.28,16.75,25.57,22,40q7.59,20.88,14,42.19a173.48,173.48,0,0,1,6,26.5c1.89,14,2.82,28.2,4.15,42.31.67,7.22,1.11,14.48,2.06,21.66,1.08,8.31,3.13,16.53,3.8,24.86.75,9.23,1.5,18.33-.35,27.86s-3.38,19.09-6.43,28.42c-4.67,14.27-12.52,26.68-21.19,38.72-6,8.33-12.3,16.39-20.15,23-11,9.36-22.1,18.74-33.61,27.52-9,6.86-18.76,12.66-28,19.22-12.52,8.92-24.46,18.7-37.38,27-9.16,5.87-19.43,10.08-29.39,14.62a225.43,225.43,0,0,1-24.4,9.86,268.34,268.34,0,0,1-27.57,7c-11.26,2.34-22.64,4.14-34,6a79.9,79.9,0,0,1-10.58,1c-12.53.42-25.06,1.15-37.58.86-7.05-.15-14.07-2-21.11-3.18a16.24,16.24,0,0,0-3.23-.61,108,108,0,0,1-40.93-5c-12.78-4.16-25.66-8-38.74-12.28M477.79,121.24c-1.12-.5-2.23-1-3.37-1.47-.09,0-.35.37-.53.57,1.13.47,2.27.94,3.4,1.39.15.06.33,0,.5.51,0,1.22.47,2.75-.09,3.6-2.18,3.3-4.62,6.44-7.08,9.55-5.35,6.75-10.92,13.32-16,20.28-.78,1.07.66,3.8,1.17,5.73a4.69,4.69,0,0,0,.93,1.34c.4-1.23.74-2.48,1.23-3.67a12.11,12.11,0,0,1,1.4-2.41c9.73-13.42,19.55-26.78,29.14-40.31,1.1-1.56.88-4,1.28-6.1-1.65,1.3-4,2.28-4.78,4-1.54,3.55-2.95,6.78-7.23,7m-44.5,51.5q-3.36-7.86-6.72-15.72c-2.77-6.54-7.38-11-13.9-14.08-6-2.84-11.52-6.78-17.32-10.1-3.75-2.16-7.43-5-11.51-5.92a305.23,305.23,0,0,0-31.39-5.06,163.84,163.84,0,0,0-26.56-1,326.11,326.11,0,0,0-33.82,4c-8.6,1.4-17.34,3-25.46,6.06-13.41,5-26,12.15-39.6,16.59-20.87,6.83-36.22,21-51.09,35.83-7,7-12.87,15.25-19.19,23a30,30,0,0,0-6.93,17.62c-.23,4,2.29,5.55,5.62,4.68,4-1.06,8.16-2.39,11.49-4.71,9.52-6.61,18.6-13.86,28-20.71,8.54-6.25,16.75-13.15,25.93-18.29,18-10,37.74-16,57.33-22A365,365,0,0,1,320,153c7.31-1.32,15.14-.88,22.6-.05a111.42,111.42,0,0,1,20.91,4.91c9.55,3,19.61,5.29,27.57,11.8a86.08,86.08,0,0,0,30.89,16c2.7.79,7,.92,8.66-.66,2.9-2.83,5.22-7,2.69-12.19m-172,109c7.18-3.18,14.27-6.57,21.55-9.49,9.59-3.84,19.17-8.12,29.86-7.46a174.42,174.42,0,0,1,17.66,2c9.45,1.57,19.28,2.34,28.15,5.62,8.68,3.22,17.19,1.69,25.68,2,7.81.32,12.84-7.26,9.41-12.88-1.78-2.9-5.22-5.3-8.43-6.72-14.72-6.53-29.43-12.66-45.62-15.57-10.54-1.9-20.73-1.29-30.77-.17-9.85,1.09-19.41,5.1-29,8.18q-13.65,4.37-27,9.49A62.17,62.17,0,0,0,227,275.2c-7.16,8.56-13.67,17.65-20.6,26.4-2.4,3-2.06,9.08,1.1,11.21.42.29,2-.19,2-.32,0-3.7,2.75-2.85,4.77-2.71a16.54,16.54,0,0,0,12-3.79c6.83-5.36,14-10.31,21.15-15.24,4.36-3,9-5.69,14-9m-20,101c-2.45,2.12-5,4.1-7.27,6.43a3.92,3.92,0,0,0-.52,3.63c2.77,4.8,6.08,5.05,10.29,1.5,5.14-4.33,10.39-8.53,15.78-12.53,9-6.7,19.22-11.32,28.94-16.78,12.33-6.93,25.24-9.08,38.75-10.28,11-1,20.58,3.79,30.57,7,5.68,1.83,11.3,4.18,17.46,1.15,2.78-1.36,4.44-3,3.16-5.88-2.93-6.66-18.73-14.11-25.86-13.4-5.89.58-11.92-.3-17.89-.41-5.27-.1-11.42-1.8-15.65.3-12.89,6.4-26.23,11.41-39.69,16.36-13.85,5.1-28.6,9-38.07,22.91m236.5-158.5c.12-.45.1-1,.37-1.34,4.52-5.47,9.18-10.83,13.61-16.38q9.57-12,18.86-24.18c3.24-4.26,5.78-9.11,9.32-13.08,4.18-4.68,1.4-8.4-.59-12.45a14.18,14.18,0,0,0-1.6-2.82c-1-1.17-2-2.78-3.25-3.06-1-.21-2.71,1.07-3.45,2.14-10.22,14.74-20,29.78-30.54,44.3-12.15,16.77-16.08,37.56-27.45,54.65-.37.57-.13,1.54-.17,2.33A8,8,0,0,0,455,253c7.46-9.39,14.88-18.82,22.8-28.74M39.29,406.74a7.86,7.86,0,0,0,1.08,2c7.13,7.2,14,14.76,21.56,21.41,9.51,8.32,19.65,15.92,29.62,23.71.91.71,2.5.56,3.78.81-.52-1.16-.78-2.55-1.59-3.44-8.06-8.85-16.38-17.46-24.3-26.44-13.9-15.77-23.54-34.42-34.63-52.09-3.21-5.13-6.05-10.5-9.29-15.61A3.52,3.52,0,0,0,22.28,356a3.79,3.79,0,0,0-1.4,3.23c.73,4.64,1.75,9.24,2.74,13.84C26.22,385.23,32,396,39.29,406.74m27.5-183.5c7-14.75,14.1-29.46,21-44.27,10.43-22.48,20.65-45.06,31.07-67.55,2.07-4.48,4.67-8.72,6.92-13.13a8.44,8.44,0,0,0,.33-2.76c-.81-.06-1.9-.48-2.37-.11a139,139,0,0,0-11.81,10c-1,1-.56,3.48-.68,5.29-.14,2.13.49,4.6-.37,6.35-4.83,9.84-10.07,19.48-15,29.25-3.43,6.72-6.81,13.49-10,20.34C80.05,179,74.53,191.56,68.76,204c-3.51,7.54-7.7,14.79-10.86,22.47-3.46,8.4-6,17.14-9.07,25.72-2.19,6.25-4.6,12.43-6.58,18.74-.42,1.35.6,3.14,1,4.73,1-1,2.5-1.77,3-3,1.7-3.78,2.94-7.78,4.57-11.59,5.27-12.31,10.65-24.57,16-37.84m329,242c6.12-10.46,12.43-20.81,18.31-31.39,6.23-11.21,11.57-22.94,18.19-33.9,7.44-12.35,15.91-24.07,23.86-36.1,4-6,7.89-12,11.54-18.22.73-1.24.15-3.24.18-4.89-1.36,1.12-3.09,2-4,3.42-7,10.55-12.94,22-21.05,31.63-10.47,12.42-17.24,27.09-26.86,40-6.31,8.45-11.08,18-16.72,27-8.14,13-16.5,25.8-24.59,38.8-.56.89.32,2.68.54,4.05,3.05-1,7.2-1,9-3.11,4.3-5.09,7.51-11.11,11.66-17.26m-16-405c2.82-3.83,5.7-7.62,8.43-11.51.59-.84,1.27-2.47.88-3-2.94-4.18-12.85-3.83-16.05.22-8.16,10.3-16.51,20.45-24.67,30.76-4.14,5.22-8.12,10.59-11.94,16-.64.91-.13,2.64-.16,4h3.17c3,0,6.1-.48,8.91.23,4.29,1.08,7-1.09,8.31-4.15C362,80.51,371.08,71,379.79,60.24m-214,321c3-7.26,6.06-14.49,9-21.78,3.78-9.43,7.47-18.9,11.14-28.38a8.69,8.69,0,0,0,.8-3.63,22.84,22.84,0,0,0-1.19-4.48,18.7,18.7,0,0,0-2.78,3.38c-7,14.41-14.56,28.62-20.78,43.38-5.8,13.76-9.91,28.22-15.28,42.17-2.69,7-6.05,13.53-1.4,20.85.79,1.24,1.42,2.57,2.13,3.86.79-1.5,1.9-2.92,2.32-4.53,1.48-5.57,2.3-11.35,4.13-16.8,3.72-11.1,7.92-22,11.93-34m-32,14q5.51-13.22,11-26.42c4.92-11.78,9.72-23.62,14.8-35.33,4-9.32,8-18.75,12.83-27.64,3.65-6.66,4.5-15.38,12.74-19.13a3.78,3.78,0,0,0,1.53-3.22c-.88-4.91.11-9.41,2-13.88.25-.58-.66-1.66-1-2.5a7.39,7.39,0,0,0-1.85,1.48,49.29,49.29,0,0,0-3,5.23q-12,24.74-24,49.5c-1.89,3.88-4,7.66-5.67,11.64-4.55,10.94-8.74,22-13.37,32.92-5.49,12.89-11.27,25.65-17,38.43-2,4.59,0,8.16,2.72,11.53a3.85,3.85,0,0,0,2.59.78c.2,0,.52-1.27.69-2,1.68-6.8,3.34-13.6,5-21.4m391-202c-1.89,2.22-3.82,4.4-5.65,6.66-6.47,8-13,15.93-19.33,24-6,7.64-11.81,15.46-17.81,23.1-5.45,6.94-11.32,13.56-16.53,20.68-8,10.93-15.69,22.12-23.36,33.3-3.72,5.41-7.17,11-10.55,16.63-.41.69.34,2.08.55,3.14,2.56-2.18,5.41-4.12,7.57-6.64,1.31-1.53,1.12-4.28,2.33-6,5.85-8.13,11.91-16.1,18-24.07q14.88-19.6,29.82-39.15c6-7.85,11.77-15.85,17.94-23.54,6.76-8.44,13.93-16.55,20.76-24.93a31.49,31.49,0,0,0,4.19-7.25c.4-.88-.41-2.29-.67-3.46a12.54,12.54,0,0,0-3.18,1.7,20.79,20.79,0,0,0-4,5.8m-347,206c-3.89,10.55-7.1,21.41-11.86,31.55-4.07,8.69-.43,14.71,4.43,20.86.68.85,2.62.72,4,1.05a19.83,19.83,0,0,0-.57-3.39c-.91-2.61-3.31-5.52-2.75-7.7,3-11.69,6.53-23.23,10.2-34.73,3.32-10.43,6.82-20.81,10.64-31.07,3.33-8.94,4-18.82,9.87-26.91,4.53-6.21,7.37-6.8,13.06-1.7a18,18,0,0,0,2.35,1.54,10.53,10.53,0,0,0,.62-2.64c-.06-3.93,1.66-6.12,5.71-6.4a5.13,5.13,0,0,0,2.56-1,23.92,23.92,0,0,0,2.61-2.62c-1.15-.45-2.37-1.39-3.43-1.24a24.62,24.62,0,0,0-6.16,1.93c-3.81,1.68-7.18,3.85-11.95,2.27-1.86-.62-6.07,1.5-7.08,3.46a234.7,234.7,0,0,0-9.2,21.65c-4.43,11.33-8.69,22.72-13,35.09m-43-63c5-10.92,9.94-21.87,15-32.75,3.13-6.71,6.46-13.32,9.69-20,4.72-9.71,9.47-19.4,14.08-29.15a19.59,19.59,0,0,0,1.15-5c0-.14-.94-.69-1.06-.59-1.34,1.17-3,2.21-3.81,3.69-2.82,5.14-5.15,10.55-8,15.65-3.44,6.1-7.76,11.75-10.77,18-3.51,7.33-5.76,15.26-9,22.74-10.11,23.29-20.52,46.46-30.6,69.77a145.49,145.49,0,0,0-5.57,16.67c-.26.9.87,2.23,1.36,3.36.82-.8,2-1.45,2.41-2.42,3.79-9.26,7.26-18.65,11.18-27.85,4.46-10.48,9.28-20.8,13.95-32.19m111-266q9.5-16,19-32.1c.39-.67.78-1.91.46-2.3a3,3,0,0,0-2.45-1,5.79,5.79,0,0,0-3.22,1.74c-4.34,5.49-8.91,10.86-12.67,16.74-4.75,7.43-8.93,15.23-13.13,23q-11.44,21.21-22.51,42.62c-.29.55.86,1.85,1.34,2.8,3.4-2.2,9.56-4.21,9.72-6.62.63-9.24,8.69-14.24,11-22.67,2.06-7.64,8.19-14.18,12.52-22.21m251,193c-6.25,8.58-12.43,17.21-18.76,25.72q-12.09,16.28-24.38,32.4c-6.82,9-12.84,18.42-16.94,29a11.59,11.59,0,0,0-.4,2.39c.83-.44,1.89-.68,2.43-1.35,1.79-2.22,3.45-4.54,5-6.91,4.8-7.16,9.55-14.37,14.32-21.56,5.56-8.36,11-16.79,16.72-25.06q7-10.17,14.43-20c3.31-4.37,7-8.42,10.53-12.65,7.57-9.19,15.27-18.28,22.62-27.65,6.33-8.06,15.29-14,19.12-24.06a12.11,12.11,0,0,0,.4-2.11c-.69-.07-1.5-.4-2-.15a9.19,9.19,0,0,0-3.11,2.1c-6.38,7.49-12.74,15-19,22.63-7.09,8.7-14,17.52-21,27.29m-253.5,205.5c3.5-7.54,7.06-15.06,10.47-22.63,1.19-2.66,1.91-5.54,3.05-8.23,4.62-10.9,9.33-21.77,14-32.66.22-.53.4-1.54.18-1.69-.53-.35-1.71-.68-1.95-.41-4.7,5.21-13.14,7.34-13.41,16.24,0,.82-.89,1.61-1.35,2.42-2.49,4.29-5.22,8.47-7.41,12.91-4.5,9.11-8.87,18.3-12.92,27.61-.76,1.76-.62,5,.52,6.26,2.13,2.41,5.3,3.77,8.85.18m51-20c.59-1.26,1.11-2.55,1.77-3.76,2.22-4.08,4.94-8,6.63-12.24,3.05-7.73,5.33-15.77,8.24-23.56,1.51-4,3.89-7.71,5.47-11.71.46-1.18-.46-2.9-.75-4.37-.94.7-2.29,1.19-2.76,2.13-4.45,8.8-8.69,17.71-13.13,26.52-3.05,6.07-6.49,11.95-9.49,18.05-5.64,11.47-10.94,23.11-16.71,34.52-1.6,3.18-.1,4.53,2.19,4.73,3.3.27,6.87,4,10-.05.86-1.13,1.52-3.45.94-4.44-2.25-3.83.51-6.59,1.53-9.67,1.75-5.26,3.73-10.44,6.11-16.15m-201.5-79.5c-.71,2.37-1.58,4.71-2.05,7.12a15.18,15.18,0,0,0,.28,4.11c1-.86,2.58-1.51,3-2.61,4.94-11.77,9.62-23.66,14.57-35.42,4.59-10.92,9.39-21.75,14.17-32.59,4.28-9.71,8.48-19.47,13.07-29,1.82-3.78,6-6.89,6.59-10.68a31.79,31.79,0,0,1,6.67-15.32c.5-.65.39-1.77.57-2.67-.77-.14-1.67-.59-2.3-.35-1.57.61-3.54,1.18-4.41,2.42a52.91,52.91,0,0,0-5.16,9.32c-6.76,15.51-13.35,31.09-20.05,46.63-4.88,11.3-9.87,22.54-14.75,33.84-3.47,8.05-6.83,16.15-10.24,25.23m43-200c4.23-8.93,9.43-17.49,10.59-27.6.06-.56.07-1.14.11-1.71-.69.23-1.56.26-2,.71A7.54,7.54,0,0,0,143,143c-4.15,9.44-8.06,19-12.42,28.33-8.09,17.32-16.51,34.48-24.67,51.76q-13.71,29-27.18,58.21c-2.25,4.88-4.08,10-6,15a15.08,15.08,0,0,0-.49,3.4c.8-.79,1.88-1.44,2.36-2.4,3.13-6.19,6.12-12.45,9.16-18.69,5.79-11.92,11.63-23.83,17.37-35.78,4.6-9.59,9.06-19.24,13.64-28.83,7-14.61,14-29.19,21-44.78m322.5,247.5a7.11,7.11,0,0,1-.72,1.69c-12.21,14.91-24.47,29.76-36.63,44.71-2.89,3.55-5.55,7.31-8.07,11.13-.61.91-.25,2.46-.33,3.71a21.28,21.28,0,0,0,3.1-.63c4.2-1.49,8.58-2.68,12.47-4.77,2-1.08,3.5-3.63,4.58-5.83,1.22-2.46,1.21-5.58,2.61-7.88,4.81-7.86,10-15.52,15.07-23.2,6.07-9.14,12.24-18.21,18.29-27.36a17.13,17.13,0,0,0,2.06-4.62c.25-.83-.18-1.87-.3-2.82a10.15,10.15,0,0,0-1.74,1.51c-3.33,4.6-6.6,9.23-10.39,14.36m46-90c2.11-2.45,4.38-4.79,6.32-7.37,10.75-14.32,21.59-28.58,32-43.13,4.08-5.69,8.58-11.59,7.13-19.45a16.84,16.84,0,0,0-1.21-3.05c-.92.7-2.12,1.22-2.71,2.14-1.59,2.46-2.78,5.19-4.38,7.64C534,275,526.93,286.69,518.1,297.35c-7.18,8.68-12.26,19.11-18.33,28.72-1.19,1.87-2.76,3.5-3.92,5.38-.42.67-.14,1.77-.17,2.67a6.79,6.79,0,0,0,2.08-.92c2.07-1.92,4-4,6.53-6.46M210.79,69.24c3.67-6.47,7.39-12.92,10.94-19.45.6-1.1.49-2.59.71-3.9-1.47.37-3.68.26-4.28,1.19-2.76,4.28-5.06,8.86-7.54,13.33-5.88,10.55-12,21-17.58,31.68-5.39,10.38-9.91,21.21-15.33,31.58-5,9.48-10.61,18.59-15.89,27.89a12.17,12.17,0,0,0-.76,2.95c1.14-.32,2.46-.38,3.37-1s1.46-2.09,2.38-2.95c4.57-4.28,3-12.56,10-15.27,6-12.33,12-24.69,18-37,3.15-6.37,6.49-12.64,9.85-18.89,1.76-3.29,3.75-6.45,6.13-10.16M99.29,310.74c2.71-6.38,5.17-12.87,8.19-19.09,3.16-6.54,7.06-12.73,10.17-19.29.82-1.73-.08-4.28-.2-6.46-1.49,1.05-3.64,1.76-4.36,3.2-4.28,8.53-8.45,17.13-12.25,25.89-7,16.23-14.12,32.47-20.53,49-2.18,5.62-2.5,12-3.41,18.05-.12.79,1.3,1.82,2,2.74.62-.83,1.64-1.59,1.82-2.51,3.51-17.89,11.68-34.13,18.56-51.49m171.5-252.5c-2,3.33-4.08,6.62-6,10-3,5.29-3.54,5.33-7.06.41a11.38,11.38,0,0,0-2.43-1.92,10.9,10.9,0,0,0,.51,2.83c.9,2,2.18,3.76,3,5.77a4.93,4.93,0,0,1,.09,3.69c-5.41,9.27-11,18.43-16.49,27.66a2.22,2.22,0,0,0,0,2c.4.53,1.55,1.14,2,.93,2.94-1.57,7.71-1.49,6.55-7a5.29,5.29,0,0,1,.76-3.15c3-5.75,6.06-11.49,9.28-17.12.24-.44,2.33-.5,2.83,0,5.18,5.11,5.42,12.68.92,19.15-.32.45.19,1.48.32,2.25,2.88-1.1,6.09-1.74,8.47-3.51,1-.78,1.07-4.21.3-5.84a125.59,125.59,0,0,0-7.29-12.47c-2-3.14-2-5.64.21-9.08,6-9.57,11.4-19.55,16.88-29.45.6-1.09.24-2.71.33-4.08a18.94,18.94,0,0,0-2.8,2.71c-3.48,5-6.86,10.14-10.27,16.22m148,189q10.2-13.71,20.39-27.44a2.15,2.15,0,0,0,.44-1.67c-.87-2.61-9.65-4.65-11.21-2.4-6.85,9.91-13.75,19.81-19.81,30.2-1,1.65,2.31,5.76,3.62,8.74,1.52-1.26,3.1-2.45,4.54-3.8a8.5,8.5,0,0,0,2-3.63m-11.5,162.5c1.53-2.53,2.91-5.17,4.62-7.57,4.5-6.32,9.28-12.43,13.7-18.81,7.06-10.19,13.93-20.51,20.84-30.8q9-13.47,18-27a17.19,17.19,0,0,0,1.28-3.39,16.81,16.81,0,0,0-2.79,2,35.79,35.79,0,0,0-3.2,4.15c-7.31,10.62-14.43,21.37-21.93,31.84-8.49,11.86-17.73,23.19-25.89,35.26-8.64,12.77-16.45,26.1-24.5,39.26-2.57,4.22-4.78,8.66-7,13.05a8.34,8.34,0,0,0-.38,2.69,9,9,0,0,0,1.79-1.62c2.39-3.83,4.58-7.78,7.05-11.55,5.93-9.05,12-18,18.48-27.51m51.5-319.5L460,86.41a20.59,20.59,0,0,0-3.15,1.87c-1.12,1-2.62,2-2.92,3.25-1.46,6.09-4.18,11.15-9.75,14.43-1.12.65-1.88,1.88-2.86,2.77-2.89,2.6-5.74,5.25-8.74,7.7-2.12,1.73-4.17,1.14-6.18-.58-4.11-3.53-4.3-5.86-.44-9.73,7-7.05,13.74-14.36,18.26-23.36.74-1.47.69-3.34,1-5-1.47,1-3.28,1.76-4.35,3.1-7.89,9.86-15.56,19.89-23.48,29.73-2,2.48-2.45,3.55.92,5.36a131.54,131.54,0,0,1,14.93,9.82c3,2.2,3,.1,3.64-1.9a23.09,23.09,0,0,1,3.12-6.68c4.53-5.85,9.57-11.32,14-17.26,2-2.66,2.92-6.09,4.84-9.67m-54,202c-2.65,1.64-5.11,3.78-8,4.82-5.24,1.91-9,4.95-11.13,10.19-1.94,4.69-3.64,9.81-6.84,13.53s-1.7,5.45,1,7.43c2.92,2.14,5.88,2.6,8-1.32,1.73-3.27,3.22-6.7,5.22-9.8,4.67-7.24,9.65-14.29,14.34-21.52.69-1.06.49-2.7.7-4.07a9.78,9.78,0,0,0-3.26.74m-32.5,125.5c2.12-3.46,4-7,6.4-10.34,5.42-7.62,11.09-15.06,16.51-22.68.75-1.06.68-2.7,1-4.08-1.09.37-2.22.66-3.28,1.11-1.7.74-3.27,1.92-5,2.32-5.35,1.22-8.14,4.87-10.11,9.61-4.61,11.09-9.44,22.08-13.92,33.22a128.82,128.82,0,0,0-4,13.33,6.36,6.36,0,0,0,.3,2.35c.59-.49,1.45-.85,1.72-1.47,3.36-7.6,6.64-15.24,10.44-23.37m-314.5-42.5c-4.11-9.11-8.93-18-12.06-27.4-2.07-6.25-1.66-13.31-5.48-19.2a35.59,35.59,0,0,1-2.22-4.9,41.73,41.73,0,0,1-2.71,4.91c-3.65,5-3,10-.17,14.94,3.85,6.89,7.71,13.76,11.65,20.6q7,12.09,14.08,24.08a13.68,13.68,0,0,0,2.43,2.44c.09-1.23.6-2.64.18-3.66a130.5,130.5,0,0,0-5.7-11.81m514-60c-.33-4.68-.64-9.37-1-14.05a11.49,11.49,0,0,0-.8-2.45c-.73.9-1.91,1.71-2.1,2.71-1.46,7.73-2.84,15.49-4,23.27-.78,5-1.19,10.15-1.76,15.23-.76,6.84-1.6,13.66-2.2,20.51-.09,1,1,2.18,1.5,3.28.79-.82,2-1.51,2.32-2.49,4.87-14.6,9.45-29.28,8.1-46m-265,147c-2.47,6.8-5,13.58-7.33,20.44-.28.82.55,2,.87,3.06.9-.58,2.16-1,2.63-1.78a62.46,62.46,0,0,0,3.8-7.91c5.39-13.59,10.6-27.25,16.06-40.81,4.2-10.42,8.76-20.69,13-31.11.74-1.85.52-4.09.75-6.15-1.51,1.68-3.6,3.11-4.45,5.08-8.38,19.51-16.56,39.11-25.3,59.18m64.5-238.5c5.61-1.36,13.17-13,10.19-17.21-2.13-3-7-4.27-10.88-5.6-1.21-.41-3.67,1.13-4.78,2.44a63.85,63.85,0,0,0-7.32,10.42c-.59,1.07.35,4.05,1.48,4.8,3.19,2.09,6.84,3.48,11.31,5.15m25-158q-8.46,11.45-16.91,22.91c-1.88,2.54-3.67,5.16-5.66,7.61s-.45,3.07,1.58,3.46c4.19.82,5.25-2.08,7.34-5,9.09-12.8,18.87-25.13,28.3-37.7.7-.94.57-2.51.82-3.78-1.82-.16-4.55-1.16-5.3-.34-3.52,3.85-6.5,8.2-10.17,12.87m-190.5,367.5a10.16,10.16,0,0,0,1-1.59c2-5.15,3.36-10.75,6.3-15.31,2.1-3.26,5.24-5.44,2.74-9.77a29.2,29.2,0,0,1-1.55-3.83c-1,1-2.47,1.9-3,3.16-3.08,6.87-6.58,13.65-8.71,20.83-2.61,8.77-9,15.84-10.06,25.41-.35,3.36-.48,5.75,2.38,6.27,1.32.24,4.06-2.73,4.82-4.75,2.38-6.34,4.14-12.93,6.14-20.42m-81.5-268.5c3.87-8.88,7.51-17.87,11.68-26.6,5.38-11.26,11.21-22.31,16.75-33.5.2-.39-.55-1.26-.87-1.9-1.35.76-3.11,1.22-4,2.37a35.14,35.14,0,0,0-3.81,6.88q-12.69,28.42-25.28,56.9c-3.8,8.57-7.65,17.13-11.3,25.76-.42,1,.27,2.48.44,3.73A9.92,9.92,0,0,0,110,196c1.41-3.58,2.37-7.35,4-10.83,3.09-6.71,6.52-13.27,10.31-20.39m273.5-63.5c0,1.16-.48,2.75.1,3.4a16.89,16.89,0,0,0,4.41,3,5.06,5.06,0,0,0,1.23-1.64c.74-1.81,1-3.95,2.09-5.47,4.25-5.79,8.84-11.31,13.14-17.06,4.64-6.2,9.12-12.53,13.6-18.84a11.8,11.8,0,0,0,1.06-2.75c-1.25-.17-3.06-.95-3.67-.4a72,72,0,0,0-8.9,9.17c-7.67,9.92-15.06,20-23.06,30.6m-57,341c-.83-.18-2.22-.72-2.39-.47a39.16,39.16,0,0,0-3.57,6.5c-4.1,10.3-7.86,20.74-12.15,31-2.77,6.61-1.41,8.9,5.79,8.53,2.79-.14,3.65-1,3-3.95a16.82,16.82,0,0,1,.16-7.37c2.89-11.11,6.05-22.15,9.12-34.21m-35-371c-5.28,7.61-10.68,15.15-15.72,22.92-.82,1.26,0,3.56,0,5.38,1.61-.81,3.66-1.24,4.72-2.5a40.94,40.94,0,0,0,5-7.87c5.85-11.53,16.47-20.16,20.08-33,.5-1.78.88-3.59,1.32-5.39a35.14,35.14,0,0,0-4.37,4.15,185,185,0,0,0-11,16.35m31,124c-4,4.66-8.05,9.27-11.93,14-.63.79-.47,2.22-.68,3.36,1,0,2.08,0,3.11.12a37,37,0,0,1,5.69.73c4.59,1.17,7.95-.14,8.87-3.23,1.15-3.82,1.8-8.45,4.37-11,4.64-4.66.88-5.64-2-7.48-3.76-2.38-4.81,1.5-7.4,3.5m-280,112q6.15-12.66,12.28-25.32c.39-.82.89-1.93.63-2.65-.49-1.35-8.21-.79-8.87.71-2.76,6.16-5,12.58-8.15,18.53-2.83,5.37-3.41,10.48-.85,15.91a11.27,11.27,0,0,0,2,2.32c.31-.79.65-1.56.92-2.36a62.06,62.06,0,0,0,2-7.14m214-101c-1.53,2.19-3.15,4.33-4.54,6.61a10.53,10.53,0,0,0-.76,3.09,23,23,0,0,0,2.76-.19c3.39-.63,6.74-1.67,10.16-1.92,3.71-.29,4-2.28,3-4.91a8.43,8.43,0,0,1,1.51-8.87c2.84-3.59,5.49-7.35,8.11-11.11a8.37,8.37,0,0,0,.77-2.67c-.75-.18-1.72-.75-2.22-.47-2.66,1.49-5.8,2.69-7.66,4.92-3.91,4.7-7.12,10-11.12,15.52m-8,111c0-1.37-.07-2.74-.11-4.11-.8.21-2.11.18-2.33.65-3.05,6.77-13.87,8.76-11.6,18.79.08.36-.35.83-.54,1.25-1.81,3.9-3.77,7.74-5.34,11.73-.61,1.55-.33,3.45-.45,5.19,1.36-.74,2.78-1.38,4.06-2.23,2.35-1.56,4.9-3,6.84-5,1.3-1.34,2.61-3.74,2.31-5.37-1.48-8.13,2.83-14.15,7.16-20.91m52-123c1.67-2.31,3.44-4.55,4.95-7a16.74,16.74,0,0,0,1.28-3.81c-1.71.22-4.13-.21-5,.76a180,180,0,0,0-12,15c-1.89,2.64-2.9,5.94-7.05,3.23a1.42,1.42,0,0,0-1.34.12c-.25.25-.2.92-.1,1.36,1,4.95,3.88,7.94,9,8.94,2,.39,3.52.79,3.23-1.8-.73-6.66,3-11.41,7.05-16.8m110.5,103.5c5.41-7.42,11-14.71,16.17-22.29a166.39,166.39,0,0,0,8.28-14.55c.37-.69.06-1.75.07-2.65-.71.37-1.66.55-2.09,1.12-4.69,6.36-9.4,12.71-13.89,19.22-2.65,3.84-5,7.89-7.31,12-3.38,5.91-6.62,11.9-9.89,17.88a10.37,10.37,0,0,0-.61,2.05c.81-.29,2-.35,2.35-.92,2.24-3.71,4.3-7.53,6.92-11.81m23.5-160.5a22.2,22.2,0,0,0,2.1-2.13c6.47-8.76,13-17.47,19.3-26.38a84.67,84.67,0,0,0,6-11c.41-.83.1-2,.13-3-.9.56-2.1.92-2.64,1.72-1.46,2.18-2.44,4.69-4,6.8-4.55,6.29-9.14,12.55-13.95,18.63-3.21,4-6.29,8.53-10.43,11.35-2.59,1.75-4,1.92-1.78,4.82a52.23,52.23,0,0,1,3.39,5.68,55.37,55.37,0,0,0,1.86-6.5m-145.5,184.5c1.15-.16,2.9.11,3.37-.54,3.69-5.07,7.32-10.2,10.61-15.54,2.41-3.92,4.26-8.2,6.41-12.29a23.27,23.27,0,0,1,1.76-2.48c-1.19-.72-2.81-2.32-3.51-2-2.23,1.05-4.92,2.39-6,4.39-3.4,6.35-6.14,13.07-9.16,19.63a49.41,49.41,0,0,0-3.49,8.82m117,15c-6.12,9.12-12.3,18.2-18.32,27.39a25.75,25.75,0,0,0-3.07,6.7c-.3,1,.62,2.33,1,3.51a16.59,16.59,0,0,0,2.86-2.53c1.52-2.15,2.59-4.66,4.24-6.71a142.76,142.76,0,0,0,20.42-34.52,4.76,4.76,0,0,0,0-1.69c-.57.13-1.39.07-1.67.43-1.73,2.26-3.33,4.6-5.48,7.42m-13.5-118.5c-1-1.5-1.71-3.92-3-4.28a7,7,0,0,0-5.73,1.25c-3.18,3.12-5.77,6.83-8.55,10.34a2.45,2.45,0,0,0-.67,1.68c.52,2.43,10.27,5.78,11.92,3.92,3-3.4,6.37-6.76,6-12.91m-76,96c-1,1.24-3.5,2.26-.82,4.14,2.46,1.72,9.44-.37,10.81-3.16,1.9-3.86,3.65-7.79,5.66-11.58,1.32-2.48,2.36-5-.82-6.44-2.94-1.34-5.27-.52-6.94,2.88-2.24,4.58-5.22,8.79-7.89,14.16m-34.5-262.5c-3.06,5-6.15,10.08-9.11,15.19-.39.67,0,1.77,0,2.67a12.12,12.12,0,0,0,1.75-1.5c4.65-5.88,9.62-11.55,13.79-17.76,3.95-5.88,7.09-12.33,10.52-18.56A26.16,26.16,0,0,0,314.58,28c-1.58.39-3.36.46-4.7,1.27-1.11.67-1.8,2.15-2.51,3.38-3.56,6.17-7.06,12.37-11.08,19.06m-83.5,409.5,1.87,3.5a15.5,15.5,0,0,0,2.26-2.7,83,83,0,0,0,3.55-7.51c3.46-8.39,7-16.77,10.13-25.26.59-1.57-.29-3.68-.5-5.53-1.13,1.2-2.74,2.2-3.34,3.63-4.6,11.08-9,22.23-14,33.87m-110-268c4-9,8-18,12-27q4.53-10.36,8.79-20.84c.29-.71-.18-1.74-.3-2.62a10.4,10.4,0,0,0-1.45,1.9c-2,4.64-4,9.33-6,14-5.61,12.83-11.37,25.6-16.81,38.5-2.1,5-3.52,10.2-5.13,15.35-.2.63.3,1.47.48,2.21a8.82,8.82,0,0,0,1.44-1.9c2.38-6.18,4.7-12.38,7-19.57m139.5,26.5c-2.59,2.92-5.28,5.75-7.68,8.82-.56.72-.13,2.21-.15,3.35.92,0,2.06.27,2.73-.16,5.14-3.31,10.25-6.67,15.2-10.25,1-.73,2.14-2.86,1.76-3.67a39.41,39.41,0,0,0-4.74-7,3,3,0,0,0-2,.89c-1.64,2.45-3.1,5-5.13,8.05m249,62c-8.29,8.77-13.91,19.33-19.75,29.73-1.36,2.44-2.84,4.81-4.2,7.25a6,6,0,0,0-.38,1.69,5.68,5.68,0,0,0,1.39-.78,11,11,0,0,0,1.43-1.89c5.41-8.57,10.39-17.45,16.33-25.63,6.68-9.19,14.24-17.75,21.38-26.61a12.62,12.62,0,0,0,1.17-2.39c-.92.34-2.16.41-2.72,1.06-4.78,5.63-9.45,11.36-14.65,17.57m-200.5,28.5c.7-2,1.49-4.06,2.08-6.13a10.6,10.6,0,0,0,0-2.76c-.82.42-2,.61-2.42,1.28-5.29,7.78-10.55,15.58-15.63,23.51-1,1.55-1.15,3.63-1.69,5.47,2.06-1,4.17-1.86,6.15-3,.56-.32.69-1.34,1.1-2,3.28-5.3,6.58-10.6,10.38-16.39m-271-76c0,5.55-.1,11.11.09,16.66,0,1,1.27,1.89,1.95,2.84a14.5,14.5,0,0,0,.93-2.84c.72-6.38,1-12.82,2.14-19.14.76-4.37,2.66-8.54,3.8-12.87.24-.9-.66-2.1-1-3.15a22.93,22.93,0,0,0-1.86,3c-2,4.81-4,9.66-6,15.5m317.5-169.5c4.45-5.78,8.93-11.54,13.3-17.38.51-.68.41-1.8.6-2.72-1.13-.14-2.42-.67-3.36-.31a6.87,6.87,0,0,0-3,2.58c-3.52,5.48-6.93,11-10.28,16.61a36.29,36.29,0,0,0-2,4.5c1.41-.93,2.81-1.86,4.72-3.28m61.5,275.5c4.69-7,9.49-14,14-21.14,1.08-1.71,1.22-4,1.8-6.06-1.63,1.42-3.34,2.75-4.85,4.29a24.68,24.68,0,0,0-2.83,3.8c-3.08,4.7-6.33,9.31-9,14.22-.73,1.32.22,3.57.9,4.89m-316-125a65.43,65.43,0,0,0,1.93-6.65,13.35,13.35,0,0,0-.36-3.78,20.38,20.38,0,0,0-2.08,3Q76.09,221.37,70.05,235a11,11,0,0,0-.38,3.08,9.86,9.86,0,0,0,2.44-1.26c6.14-5.7,6.46-14.23,10.68-21.62m49,25c-3.17-3.32-4.69-.91-6,1.79-2.38,5-4.74,10-7,15-.48,1.08-.3,2.46-.42,3.7,1-.74,2.43-1.24,3-2.24,3.4-5.86,6.6-11.83,10.37-18.26m24-121c-.67,1.54-1.41,3.06-2,4.64a16.87,16.87,0,0,0-.54,2.85c.84-.61,2-1,2.46-1.87,4-6.77,7.94-13.6,11.82-20.45a9.85,9.85,0,0,0,.65-2.67c-1.11.13-2.53-.12-3.24.48-1,.84-1.5,2.3-2.18,3.51-2.34,4.17-4.67,8.34-7,13.51m201.5,198.5.77,4.76c1.27-.78,3.14-1.27,3.72-2.41,2.23-4.39,4.11-8.95,5.92-13.53.24-.6-.69-1.65-1.07-2.49-.59.37-1.41.59-1.74,1.12-2.42,4-4.75,8-7.6,12.55m-302.5-40.5c3-5.05,6.05-10.06,9-15.16.52-.92.39-2.21.56-3.33-1,.69-2.5,1.14-3,2.11-3.39,6.18-6.6,12.47-9.82,18.75a6.11,6.11,0,0,0-.25,2,13.54,13.54,0,0,0,1.67-1.53c.56-.73,1-1.58,1.92-2.88m20,108c-.2.46-.68,1-.56,1.38,1.13,3.64,2.29,7.27,3.6,10.85a18.45,18.45,0,0,0,2,3.27c.64-1.3,2.15-3,1.78-3.82a59,59,0,0,0-6.85-11.68m466.5-71.5c-1.17,2.15-2.37,4.29-3.48,6.48a6.11,6.11,0,0,0-.29,1.75c.7-.19,1.67-.15,2.05-.6a39.06,39.06,0,0,0,5.12-6.78c1.26-2.4,1.73-5.22,2.55-7.85-3.9.42-4.18,3.87-6,7m-301-269a9.52,9.52,0,0,0,1.43,2.35,13.61,13.61,0,0,0,2.7,1.51,9.79,9.79,0,0,0-.67-2.88c-2.36-4-4.8-7.93-7.36-11.79-.39-.58-1.54-.65-2.34-1,.06.9-.19,2,.21,2.66,1.74,2.93,3.67,5.75,6,9.11m111-5c2.67,2.39,4.1.24,5.47-1.59a44.53,44.53,0,0,0,3.51-5.5,2,2,0,0,0-.64-1.84c-2.53-.82-8.93,5.36-8.34,8.93m-144,213,.73,3.73a21.6,21.6,0,0,0,3.06-1.59,9.59,9.59,0,0,0,2.44-2.44,29.19,29.19,0,0,0,1.78-3.69c-1.54,0-3.28-.47-4.54.12s-2,2.2-3.47,3.87m-144,88c1.5-3.17,3-6.33,4.41-9.53,0,0-1.43-1-1.93-.87-5.25,1.9-6.06,4.74-2.48,10.4m253.5-243.5c.51-2.82,1-5.64,1.54-8.46-1.62,1.93-3.26,3.85-4.86,5.8-.29.35-.69.83-.64,1.2.28,2.11.59,4.36,4,1.46m177,200a16,16,0,0,0-2,2.67,11.27,11.27,0,0,0-.54,2.83c.8-.47,1.87-.76,2.36-1.45,2.13-3.07,4.14-6.22,6.08-9.42.26-.42-.1-1.23-.18-1.86a6.37,6.37,0,0,0-1.73,1.24c-1.25,1.78-2.37,3.65-4,6m-8,19,.27-2.73c-.81.3-1.92.35-2.38.93a69.64,69.64,0,0,0-4.83,6.84c-.32.51.15,1.51.26,2.28.79-.34,1.87-.47,2.33-1.06,1.41-1.83,2.58-3.83,4.35-6.26m10.5-183.5a61,61,0,0,0,6.55,3.43c1.14.45,2.62,0,4,0a19.73,19.73,0,0,0-2.51-2.34,13.85,13.85,0,0,0-4.47-2.39,4.36,4.36,0,0,0-3.52,1.34M274.79,17.24c.67,2.33,1.25,4.69,2.06,7,.19.55,1.09.86,1.67,1.29.42-.81,1.42-1.94,1.17-2.36a21.2,21.2,0,0,0-4.9-5.91m21,14L294.08,28c-1.1.82-2.51,1.45-3.18,2.54-.44.72.18,2.1.33,3.19a45.06,45.06,0,0,0,4.56-2.44m162,136a13.82,13.82,0,0,0,0,2.95,13.26,13.26,0,0,0,1.39,3.35c.06.1,1.84-.4,1.86-.7a7.7,7.7,0,0,0-.38-3.74,3.93,3.93,0,0,0-2.91-1.86m-357,247-3.69-1.32a17.32,17.32,0,0,0-.2,4.23c.11.64,1.38,1.07,2.13,1.59a21.77,21.77,0,0,0,1.76-4.5m314.5-379.5a7.49,7.49,0,0,0,2.54.91c.66,0,1.31-.78,2-1.21l-5.17-2.7a8.25,8.25,0,0,0,.67,3m21.5,6.5h-3a10,10,0,0,0,1.4,2.33,10.63,10.63,0,0,0,2.69,1.72,5,5,0,0,0,1.66.19c-.06-.55.07-1.24-.22-1.64a24.88,24.88,0,0,0-2.53-2.6M88.29,285.74c-.59.59-1.58,1.12-1.67,1.78a9.66,9.66,0,0,0,.55,3.1c.87-.53,2.21-.89,2.5-1.64.34-.9-.21-2.15-1.38-3.24m402.5,58.5c-.58-.76-1.15-1.52-1.73-2.27a19.24,19.24,0,0,0-2.19,3c-.18.34.57,1.15.9,1.74.84-.67,1.68-1.34,3-2.5m48.5-200.5L537,145.43a16.18,16.18,0,0,0,3.35,1.24,6.73,6.73,0,0,0,2.46-.67,10.37,10.37,0,0,0-3.5-2.26m-58.5-62.5c.91.75,1.81,1.53,2.77,2.21a4,4,0,0,0,.94-.94c-.92-1.18-1.91-2.31-2.89-3.45a2.91,2.91,0,0,0-.82,2.18m11,303,1.76,2.23c.24-1.25.47-2.51.71-3.76a3.38,3.38,0,0,0-2.47,1.53m-86-354c-1.33,0-2.67,0-4,.05,0,0,0,.9,0,.9a5.8,5.8,0,0,0,4-1m-180.5-9.5a20.71,20.71,0,0,0-.15-3.06c0-.14-1.06-.12-1.62-.17a21.47,21.47,0,0,0,1.77,3.23m249.5,376.5-2.05-1c-.17.8-.33,1.61-.5,2.41a16,16,0,0,0,2.55-1.45m-199-311a4.75,4.75,0,0,0,1.94-.55c.24-.22-.14-1.14-.23-1.75A4.56,4.56,0,0,0,275.79,86.24Z"/></g></g></g></svg>