<svg xmlns="http://www.w3.org/2000/svg" viewBox="0 0 49.31 322.78"><defs><style>.cls-1{fill:#fff;}</style></defs><title>three dot menu</title><g id="Layer_2" data-name="Layer 2"><g id="Layer_1-2" data-name="Layer 1"><g id="three_dot_menu" data-name="three dot menu"><path class="cls-1" d="M4.29,310.9c-1.22-4-2-8-3.39-11.67-2.29-6,.27-10.6,2.42-15.29,3.25-7.07,9-9.45,15-11.53,4.24-1.48,8.36-3.41,12.89-1.54a18.11,18.11,0,0,1,10.94,11.59c1.26,3.87,2.76,7.9,2.94,11.93a26.6,26.6,0,0,1-2,11.87c-3.46,7.33-8.19,13.34-15.26,15.87-4.47,1.6-8.6-.1-12.78-1.3C10.35,319.49,7.07,315.77,4.29,310.9Z"/><path class="cls-1" d="M32.66,54.46C28.23,54.34,24,55,20,53.94,11.85,51.82,8.66,43.66,6.73,34.88c-2-9-.93-17.69,3.8-25.16a20,20,0,0,1,13-9.34C30.53-1,36.86,1.47,41.3,7.8c2.67,3.8,4.05,9.27,5.16,14.27.91,4.08.83,8.59.72,12.89C47,42.39,39.14,52.92,32.66,54.46Z"/><path class="cls-1" d="M48,166c-1.13,8.62-10.37,17-16.64,17-6.86,0-12.8-1.87-17.56-8.06-2.82-3.67-3.55-8.42-4.75-13-1.48-5.68,1.73-9.11,3.37-13.19,3.35-8.38,8.93-13.7,16.46-15.78,4.79-1.32,10.9.4,13.83,6.92,1.42,3.15,3,6.17,4.45,9.33A22.08,22.08,0,0,1,48,166Z"/></g></g></g></svg>