<svg xmlns="http://www.w3.org/2000/svg" viewBox="0 0 70.93 189.19"><defs><style>.cls-1{fill:#96474e;}</style></defs><title>bonus-pastor</title><g id="Layer_2" data-name="Layer 2"><g id="Layer_1-2" data-name="Layer 1"><path class="cls-1" d="M48.28.14c7.26-1.38-1.63,7.49-1.79,18.57s-2.73,26.38,2.3,42.51,11.38,34.85,11.06,59.61-1.63,47.06-1.47,51,13,8.31,12.54,12.06-9.58,7-25.23,4.39S27,186.14,13.43,186.46s-21.34,2.28-1.14-3.09,37.3-.17,46.09,0-7.82-1.14-7.17-7.17,3.42-29.8,2.77-47.72S48.77,72.29,43.72,58.12s-4.39-35.5-.81-43.81A150.85,150.85,0,0,0,48.28.14Z"/></g></g></svg>