<svg xmlns="http://www.w3.org/2000/svg" viewBox="0 0 816.33 733.83"><defs><style>.cls-1{fill:#313a5c;}.cls-2{fill:#56a3a0;}.cls-3{fill:#38906c;}.cls-4{fill:#ee7858;}.cls-5{fill:#e4b254;}.cls-6{fill:#07595b;}</style></defs><title>colored</title><g id="Layer_2" data-name="Layer 2"><g id="Layer_1-2" data-name="Layer 1"><path class="cls-1" d="M109.3,726.22a90.89,90.89,0,0,1-24.91-.45,95.85,95.85,0,0,1-24.33-7.25A100.16,100.16,0,0,1,38.1,705c-.86-.65-1.65-1.4-2.48-2.1s-1.65-1.4-2.44-2.15c-1.55-1.51-3.18-3-4.65-4.58l-2.23-2.39-2.12-2.49c-1.45-1.64-2.72-3.42-4.07-5.14A97.69,97.69,0,0,1,13,675.08c-.53-1-1.07-1.92-1.58-2.89l-1.45-3c-1-2-1.78-4-2.65-6.05A105.12,105.12,0,0,1,.88,611.05c.23-2.21.66-4.38,1-6.57.17-1.1.45-2.17.7-3.25L3.38,598a113.12,113.12,0,0,1,4.17-12.63,103.78,103.78,0,0,1,5.67-12,113.35,113.35,0,0,1,7.17-11.17A103.22,103.22,0,0,1,28.84,552l2.32-2.36,1.17-1.18,1.21-1.12L36,545.08c.83-.73,1.68-1.43,2.53-2.14a103.73,103.73,0,0,1,47.09-22.1c2.13-.45,4.3-.69,6.44-1s4.32-.42,6.47-.61a111.66,111.66,0,0,1,12.94.1,98.33,98.33,0,0,1,25.13,4.95A95.06,95.06,0,0,1,178,551.65l-.68.74a106.34,106.34,0,0,0-43.06-19.52,104.7,104.7,0,0,0-11.5-1.64c-1.94-.09-3.85-.3-5.78-.27l-2.89-.05-2.88.07a97,97,0,0,0-22.57,3.37l-2.73.77-2.69.88c-1.81.54-3.55,1.28-5.32,1.93s-3.47,1.47-5.17,2.26-3.39,1.63-5,2.58l-2.47,1.35-2.39,1.47c-1.62.94-3.13,2.06-4.68,3.1a101.69,101.69,0,0,0-8.73,7c-.69.63-1.39,1.25-2.07,1.88l-2,2-1,1-.94,1-1.88,2.06a103.47,103.47,0,0,0-6.84,8.79,94.58,94.58,0,0,0-5.8,9.48A106.6,106.6,0,0,0,24.38,592a95.88,95.88,0,0,0-5.95,43.6,96.32,96.32,0,0,0,14.25,42c1,1.57,2,3.2,3.13,4.71l1.65,2.3,1.76,2.22c1.12,1.53,2.42,2.91,3.63,4.37.62.72,1.3,1.39,1.94,2.09s1.28,1.41,2,2.05a101.44,101.44,0,0,0,18,14.33c1.65,1,3.3,2,5,2.94.85.46,1.69,1,2.57,1.39L75,715.27c1.75.89,3.57,1.6,5.36,2.41s3.67,1.44,5.54,2.09a119.91,119.91,0,0,0,23.42,5.45Z"/><path class="cls-1" d="M109.3,599.62a23.59,23.59,0,0,1,7.93-.37,26.31,26.31,0,0,1,7.92,2.44,28.82,28.82,0,0,1,6.93,5,29.84,29.84,0,0,1,5.15,7.13A30.78,30.78,0,0,1,140,622.4a31.19,31.19,0,0,1,0,9.1,30.7,30.7,0,0,1-2.85,8.76,32.63,32.63,0,0,1-2.42,4,35,35,0,0,1-3,3.56,29.52,29.52,0,0,1-16.23,8.48,28.43,28.43,0,0,1-4.59.38,33.32,33.32,0,0,1-4.58-.27,30.51,30.51,0,0,1-8.65-2.73,29.66,29.66,0,0,1-7.21-5.18,29.08,29.08,0,0,1-5-7,26.37,26.37,0,0,1-2.38-8,22.88,22.88,0,0,1,.53-8h1a35.14,35.14,0,0,0,2.72,6.7,28.81,28.81,0,0,0,4,5.4,27,27,0,0,0,4.93,4,25.41,25.41,0,0,0,5.52,2.44,24.28,24.28,0,0,0,5.75.88,24.73,24.73,0,0,0,5.66-.61,23.28,23.28,0,0,0,5.19-2.05,25.06,25.06,0,0,0,4.48-3.31,27.67,27.67,0,0,0,3.44-4.42,23.47,23.47,0,0,0,1.21-2.53,8.17,8.17,0,0,0,.51-1.32c.13-.46.3-.9.42-1.36a24.76,24.76,0,0,0,.69-5.73,24.09,24.09,0,0,0-.88-5.85,26,26,0,0,0-2.48-5.6,28.18,28.18,0,0,0-4.07-4.95,28.77,28.77,0,0,0-5.5-3.9,32.86,32.86,0,0,0-6.75-2.55Z"/><path class="cls-1" d="M716,527.65a91.49,91.49,0,0,1,22.06,4.62c1.78.66,3.59,1.27,5.34,2,.88.37,1.77.72,2.64,1.12l2.6,1.23c1.74.81,3.41,1.76,5.12,2.65l2.48,1.48q1.26.72,2.46,1.53a99.27,99.27,0,0,1,9.41,6.83,104.05,104.05,0,0,1,8.59,8A101.75,101.75,0,0,1,791,575.89a103.79,103.79,0,0,1,9.68,21.76,109,109,0,0,1,4.46,23.58,106.79,106.79,0,0,1-7.46,47.44A106.56,106.56,0,0,1,769.89,708a103.92,103.92,0,0,1-42.24,22.6A101,101,0,0,1,704,733.81a96.44,96.44,0,0,1-23.4-2.41,88.68,88.68,0,0,1-40.41-20.81l.55-.84A115.23,115.23,0,0,0,682.24,720l2.6.1h2.61c.86,0,1.73,0,2.59,0s1.73,0,2.59-.08c1.72-.11,3.44-.21,5.15-.42l2.56-.25,2.54-.36a101.41,101.41,0,0,0,19.67-5,99.08,99.08,0,0,0,33.87-20.78,97,97,0,0,0,13-15A88,88,0,0,0,779.07,661a90.86,90.86,0,0,0,5.81-19,93.93,93.93,0,0,0,1.76-19.9,97.56,97.56,0,0,0-2.4-20,100.41,100.41,0,0,0-23.79-44.82c-1.21-1.24-2.38-2.55-3.66-3.75l-1.88-1.83L753,550a105.81,105.81,0,0,0-17.29-12.39,115.76,115.76,0,0,0-19.86-9Z"/><path class="cls-1" d="M715.68,614.72c7,5.21,10.06,15.9,7.13,25.61a30.29,30.29,0,0,1-7.94,13.13A32,32,0,0,1,701,661.23a31.11,31.11,0,0,1-16,.11,29.15,29.15,0,0,1-13.62-8,25.57,25.57,0,0,1-6.87-13.32,19.25,19.25,0,0,1,2.36-13.66h1a37.74,37.74,0,0,0,7.47,8.4,27.37,27.37,0,0,0,7.31,4.31,27.72,27.72,0,0,0,6.83,1.75,22,22,0,0,0,6.63-.12,21.28,21.28,0,0,0,6.45-2.27,22.45,22.45,0,0,0,5.87-4.79A23.88,23.88,0,0,0,713,626a32.42,32.42,0,0,0,1.83-10.86Z"/><path class="cls-1" d="M236.39,589.78a806.94,806.94,0,0,1,84.73-24.28,780.45,780.45,0,0,1,87.05-15.28c14.68-1.7,29.48-2.79,44.36-3.18a297.71,297.71,0,0,1,45,2,149.52,149.52,0,0,1,22.58,4.61A82.62,82.62,0,0,1,542,563.5a53.06,53.06,0,0,1,9.66,8.31,62.25,62.25,0,0,1,7.38,9.94,31.19,31.19,0,0,1,1.55,2.93,32.62,32.62,0,0,1,1.34,3.18c.22.52.37,1.13.55,1.71s.34,1.16.47,1.77a26,26,0,0,1,.52,3.82,20.45,20.45,0,0,1-1.07,8,17.56,17.56,0,0,1-.74,1.91c-.3.6-.6,1.2-.92,1.8s-.7,1.1-1.06,1.65l-.55.8-.6.72a29.86,29.86,0,0,1-5.19,4.92,44.46,44.46,0,0,1-5.53,3.44,70.56,70.56,0,0,1-11.22,4.63,151.89,151.89,0,0,1-22.38,5.13,385.25,385.25,0,0,1-44.42,4c-14.76.6-29.48.75-44.16.74s-29.34-.21-44-.47-29.24-.27-43.9-.47-29.29-.51-43.93-.83-29.29-.75-43.93-1.23q-11-.35-22-.78c-7.31-.3-14.63-.58-21.95-.94v-1l175.64-4.46,43.86-.88c14.58-.37,29.15-.9,43.62-1.87s28.9-2.28,42.92-4.74a138.33,138.33,0,0,0,20.32-5,57,57,0,0,0,9-3.86,30.78,30.78,0,0,0,3.74-2.39,16.12,16.12,0,0,0,2.73-2.66,7.62,7.62,0,0,0,1.45-2.63,6.44,6.44,0,0,0,.29-2.77,16.69,16.69,0,0,0-2.69-7.14,49.21,49.21,0,0,0-5.78-7.59,37.8,37.8,0,0,0-7-5.89A68.6,68.6,0,0,0,516,567.56a144.77,144.77,0,0,0-20.43-4,283.12,283.12,0,0,0-42.71-1.78c-14.38.34-28.81,1.36-43.24,2.7-28.86,2.72-57.7,6.8-86.51,11.38-14.41,2.27-28.81,4.73-43.22,7.22l-21.62,3.79-21.63,3.9Z"/><path class="cls-1" d="M692.24,615.38c-4.16-7.07-8.13-14.25-12-21.46l-5.77-10.86c-1.9-3.63-3.74-7.29-5.6-10.94-7.44-14.61-14.51-29.42-21.1-44.48-3.27-7.55-6.47-15.14-9.35-22.92-1.45-3.89-2.86-7.82-4.08-11.88-.62-2-1.19-4.09-1.69-6.25-.25-1.08-.47-2.19-.66-3.36a23.28,23.28,0,0,1-.33-3.87,11.81,11.81,0,0,1,.27-2.63,8.54,8.54,0,0,1,.66-1.88,8.71,8.71,0,0,1,.73-1.16,6.09,6.09,0,0,1,1.19-1.19,5.71,5.71,0,0,1,.75-.51l.39-.22.78-.45a15.81,15.81,0,0,1,1.57-.83l1.57-.76c.53-.23,1.05-.44,1.59-.65,1.06-.43,2.13-.76,3.2-1.11a52.52,52.52,0,0,1,13-2.29,53.43,53.43,0,0,1,13,.81,38.34,38.34,0,0,1,12.09,4.28l-.26,1a100.49,100.49,0,0,0-23.64,2.43,78.8,78.8,0,0,0-10.88,3.23c-.86.34-1.73.66-2.54,1.06l-1.23.55-1.18.6a12.17,12.17,0,0,0-1.13.62l-.54.33-.27.16s-.35.23.1-.09a4.1,4.1,0,0,0,.66-.66,3.16,3.16,0,0,0,.32-.51,1.66,1.66,0,0,0,.16-.42,2.15,2.15,0,0,0,0,.41,15.74,15.74,0,0,0,.2,2.23c.13.85.31,1.75.51,2.66.41,1.83.92,3.71,1.48,5.6,1.12,3.77,2.37,7.59,3.71,11.38q4.07,11.38,8.59,22.75c6,15.14,12.21,30.22,18.36,45.36s12.42,30.26,18.4,45.52Z"/><path class="cls-2" d="M326.77,287.62c-8.61,25.89-22.76,60.7-42.79,86.17q-16.68,23.59-43.7,39.39t-69,15.82q-35.67,0-64.7-15.82T56.83,368.91q-20.7-28.47-32.2-67.86T13.12,214.5q0-47.73,11.51-87.41t32.2-67.86q20.7-28.17,49.74-43.7T171.27,0q40.83,0,68.15,14.66a139.55,139.55,0,0,1,36.37,27.51,79.12,79.12,0,0,0-24.86,13.2,72.59,72.59,0,0,0-19.55,23.79q-6.15,11.63-7.35,27.41A79,79,0,0,0,210.66,96Q197.72,88,178.17,88q-18.4,0-31.92,9.78t-23,26.74q-9.48,17-14.09,40.26a256.24,256.24,0,0,0-4.6,49.74,251.85,251.85,0,0,0,4.6,49.46q4.61,23,14.09,40.25t23.29,27Q160.36,341,178.75,341t32.2-9.21A74,74,0,0,0,232.8,310a186.13,186.13,0,0,0,14.64-30.53q4.6,2,9.49,3.71A139.46,139.46,0,0,0,302.69,291,97.22,97.22,0,0,0,326.77,287.62Z"/><path class="cls-1" d="M695.13,430.16,642.28,305.81h-1V430.16H559.9V1.47h81.34v267h1L692,159.18h95.33L719,283.53l69.95,146.63Z"/><path class="cls-3" d="M547.82,62.29Q544.4,43,535.5,29.33a58.5,58.5,0,0,0-24.43-21Q495.53.92,471.67.92a108.5,108.5,0,0,0-41.3,8.52C417,14.92,387.92,31.05,375,53a131,131,0,0,1,14,6c13,7,22.28,19,30.79,30a3.25,3.25,0,0,1,.23.29c7.72-7.87,21-16.33,25.52-18.66a41.08,41.08,0,0,1,19.32-4.54q16.66,0,16.67,14.77V85h-6.44a145.85,145.85,0,0,0-30.31,3.22,82.91,82.91,0,0,0-20.23,7,77.3,77.3,0,0,0-7.24,4.14A59.62,59.62,0,0,0,397.41,121q-7.2,12.94-7.56,32.06c0,.67,0,1.35,0,2q0,18.57,5.5,30.69T409,205.12a46.32,46.32,0,0,0,18,10A68.44,68.44,0,0,0,445.9,218q17.06,0,27.47-7.58t13.45-17h.76v18.57h63.65V105.48A250,250,0,0,0,547.82,62.29Zm-64,76.91q0,9.86-4.74,16.1t-13.45,6.25a11.18,11.18,0,0,1-8.52-3.41q-3.22-3.4-3.22-9.85,0-17.06,23.11-17h6.82Z"/><path class="cls-4" d="M677.72,61.67q-12.51,0-20.33-8.59T649.57,32a31.73,31.73,0,0,1,2.09-11.47A29.64,29.64,0,0,1,657.39,11a27.87,27.87,0,0,1,8.86-6.51,27.74,27.74,0,0,1,22.93,0A28,28,0,0,1,698,11a30,30,0,0,1,5.73,9.51A32,32,0,0,1,705.86,32q0,12.51-7.82,21.11T677.72,61.67Zm-26.33,7.82H704v78.94H651.39Z"/><path class="cls-5" d="M792.16,52.39a58,58,0,0,0-10.93-7.07,25.83,25.83,0,0,0-11.45-2.7,9.59,9.59,0,0,0-5.53,1.67,5.2,5.2,0,0,0-2.44,4.5q0,2.58,2.83,4t12.86,4a74.69,74.69,0,0,1,12.73,4.89,42.35,42.35,0,0,1,11.32,8.1A39.14,39.14,0,0,1,813,98.94q0,13.89-5.27,23.15a48.64,48.64,0,0,1-13,15A49.44,49.44,0,0,1,778,145.37a63.66,63.66,0,0,1-16.46,2.44,88.82,88.82,0,0,1-29.19-5,71.82,71.82,0,0,1-25.08-14.53L732,94.83a57.45,57.45,0,0,0,12.74,9.39A28.07,28.07,0,0,0,758,107.69a10.48,10.48,0,0,0,5.92-1.55,4.94,4.94,0,0,0,2.31-4.37c0-2.23-1.33-4-4-5.27s-7.59-3-14.79-5A58.5,58.5,0,0,1,736,87a39.63,39.63,0,0,1-10.42-7.71A37.83,37.83,0,0,1,718,67.57q-3-6.94-3-17,0-13.37,4.89-22.63a46.22,46.22,0,0,1,12.47-15.18,50.65,50.65,0,0,1,16.46-8.61,58.66,58.66,0,0,1,17.1-2.7A85,85,0,0,1,793.19,6a63.64,63.64,0,0,1,23.14,13.5"/><path class="cls-5" d="M404.12,91.63A60.14,60.14,0,0,0,387.41,111q-7.59,13.63-7.58,34.1a103.92,103.92,0,0,0,.63,11.77,101.78,101.78,0,0,0-7.86-9.79C356,129,340.3,120.19,334.52,117.37a40.33,40.33,0,0,0-17.94-4.24,15,15,0,0,0-8.66,2.62,8.13,8.13,0,0,0-3.83,7.06c0,2.69,1.47,4.77,4.43,6.24s9.68,3.57,20.16,6.25A118.72,118.72,0,0,1,348.63,143a66.17,66.17,0,0,1,17.74,12.7,64.13,64.13,0,0,1,12.9,18.94q5,11.1,5,26.81,0,21.76-8.26,36.28a76.06,76.06,0,0,1-20.36,23.58,77.05,77.05,0,0,1-26.2,12.9A99.37,99.37,0,0,1,303.69,278a139.46,139.46,0,0,1-45.76-7.86,112.75,112.75,0,0,1-39.3-22.78l38.7-52.4a89.5,89.5,0,0,0,19.95,14.72A44,44,0,0,0,298,215.12a16.42,16.42,0,0,0,9.27-2.42,7.78,7.78,0,0,0,3.63-6.86q0-5.24-6.25-8.26t-23.18-7.86a93.23,93.23,0,0,1-17.93-7.05,61.92,61.92,0,0,1-16.33-12.1,59.12,59.12,0,0,1-11.89-18.34q-4.63-10.87-4.64-26.6,0-21,7.66-35.47a72.59,72.59,0,0,1,19.55-23.79,79.11,79.11,0,0,1,25.8-13.5,92,92,0,0,1,26.81-4.23,133.13,133.13,0,0,1,42.72,7,99.84,99.84,0,0,1,36.28,21.16A186.56,186.56,0,0,1,404.12,91.63Z"/><path class="cls-6" d="M546.74,273.38h1c-.34.24-.69.5-1,.76Z"/><path class="cls-6" d="M546.74,273.38h1c-.34.24-.69.5-1,.76Z"/><path class="cls-6" d="M598.2,273.38v.76c-.34-.26-.69-.52-1-.76Z"/><path class="cls-6" d="M598.2,273.38v.76c-.34-.26-.69-.52-1-.76Z"/><path class="cls-2" d="M603.72,323.1c5.68,1.42,13.43-.19,13.43-.19A42.76,42.76,0,0,0,611.23,276h9.5a3.49,3.49,0,0,0,0-7H604.59V243.77c0-2.11-2-6.93-6-7.57-6.11-1-11.4,2.29-21.29,5.06-5.18,1.45-10.37,2.07-14.54,4.21-8.81,4.53-9.59,9.17-9.59,13.64V269H537a3.5,3.5,0,0,0-3.48,3.49A3.5,3.5,0,0,0,537,276h9.5a42.74,42.74,0,1,0,65.82,54.52s-8.59,1.3-11.21-1.32S600.23,322.22,603.72,323.1Z"/><path class="cls-2" d="M601.1,526.32c-12.33-11.2-22.24-14.39-22.24-14.39-21.37-1.31-42.74-3.49-45.35-29.65s2.61-76.76,14.39-115.57c3.29-10.85,16.57-7,24.42-7S674.37,474,667.39,480.1c-4.29,3.76-35.7-19-61.65-40.85-16.2-13.64-30.38-30.78-34.29-29.8-7,1.74-7,29.65-.88,39.25s66.29,43.61,67.17,83.73-19.19,78.5-41,94.2-45,38.7-48.84,36.63c-5.67-3,28.78-73.26,71.08-112.08C619,551.18,610.7,535.05,601.1,526.32Z"/><path class="cls-2" d="M567.76,665a4,4,0,0,1-3.47-6c2.78-4.84,8.43-11,19.37-11.48,10.64-.5,19.22,5.47,24.55,10.56a4,4,0,0,1-2.73,6.89Z"/><path class="cls-1" d="M192.16,526.32c-12.33-11.2-22.24-14.39-22.24-14.39-21.37-1.31-42.74-3.49-45.36-29.65s-.87-58.44,10.9-97.26c3.3-10.85,16.58-7,24.43-7S261.94,492.31,255,498.41c-4.3,3.76-35.7-19-61.65-40.84-16.2-13.65-30.38-30.79-34.3-29.81-7,1.75-3.49,11.34,2.62,20.94s66.29,43.61,67.16,83.73-19.19,78.5-41,94.2-45,38.7-48.85,36.63c-5.67-3,28.79-73.26,71.09-112.08C210,551.18,201.75,535.05,192.16,526.32Z"/><path class="cls-1" d="M158.81,665a4,4,0,0,1-3.46-6c2.78-4.84,8.43-11,19.36-11.48,10.65-.5,19.23,5.47,24.55,10.56a4,4,0,0,1-2.73,6.89Z"/><path class="cls-1" d="M124.52,302.16a49.15,49.15,0,0,0-8.33,27.91c0,23.61,15.36,42.74,34.32,42.74,10.87,0,20.56-6.3,26.85-16.12,0,0-11.25,1.3-13.35-1.32s-.7-7,2.1-6.11c4.55,1.42,15.14-.18,15.14-.18a51.25,51.25,0,0,0,3.57-19,49.14,49.14,0,0,0-8.32-27.91c3.45-4.36-9.64-24.42-31.44-23.55S123.25,290,123.25,290s-4.36-15.7-13.08-4.36-16.57,34.89-4.36,32.27S124.52,302.16,124.52,302.16Z"/><path class="cls-5" d="M306.63,529.89c-7.45-6.86-13.44-8.8-13.44-8.8-12.91-.8-25.82-2.14-27.4-18.14s1.58-46.94,8.69-70.68c2-6.64,10-4.27,14.76-4.27s61.65,69.88,57.44,73.62c-2.6,2.3-21.57-11.62-37.25-25-9.79-8.34-18.35-18.82-20.72-18.22-4.22,1.06-4.22,18.13-.53,24s40.05,26.67,40.58,51.21S322.17,565.4,309,575s-19.68,25.26-22,24c-3.42-1.87,4.88-30.17,30.44-53.91C317.43,545.09,312.42,535.22,306.63,529.89Z"/><path class="cls-5" d="M301.08,599c-1.92,0-3.12-1.62-2.17-2.91,1.74-2.37,5.27-5.36,12.11-5.61a24.36,24.36,0,0,1,15.36,5.16c1.63,1.21.55,3.36-1.71,3.36Z"/><path class="cls-5" d="M300.4,403.08c0,11.91-7.94,21.56-17.73,21.56-5.95,0-11.21-3.57-14.43-9-.69-1.18-5.54-2.45-6-3.79-1-2.67-.66-5.62-.66-8.73,0-11.9,8.07-22,21.12-22.43,4.8-.16,11.7,3.2,14.9,7,.83,1-1,2.08-.29,3.25A24.88,24.88,0,0,1,300.4,403.08Z"/><path class="cls-4" d="M406.23,528.71c-8.26-7.5-14.89-9.63-14.89-9.63-14.31-.88-28.61-2.34-30.36-19.85s1.75-51.39,9.63-77.37c2.2-7.27,11.09-4.67,16.35-4.67s68.32,76.49,63.65,80.58c-2.88,2.51-23.9-12.72-41.28-27.35-10.84-9.13-20.33-20.61-22.95-19.95-4.68,1.17-4.68,19.85-.59,26.27s44.38,29.2,45,56.06S422.59,572.49,408,583s-26.43,20.38-29,19c-3.79-2,10.89-30.66,39.21-56.65C418.2,545.35,412.65,534.55,406.23,528.71Z"/><path class="cls-4" d="M394.8,605c-2.23,0-3.63-2-2.52-3.59,2-2.92,6.14-6.6,14.11-6.91,7.75-.31,14,3.29,17.88,6.35,1.9,1.51.64,4.15-2,4.15Z"/><path class="cls-4" d="M355.49,388.18c0-13.87,12.19-26.86,24-26.86,4.72,0,14.33,3.55,17.87,6.6,1.63,1.41-2.14,3.1-.9,5a28,28,0,0,1,4.4,15.27c0,13.87-9.57,25.12-21.37,25.12-9.92,0-18.26-7.94-20.67-18.71,0,0-5.5,14.78-11.6,14.78s-4.37-7.85.87-8.72,9.59-8.72,9.59-8.72-18.31,5.23-19.19,0,1.75-6.11,4.36-5.24c1.31.44,5.13,2.56,8.62,2.82S355.49,388.18,355.49,388.18Z"/><path class="cls-3" d="M499.63,528.89c-7.45-6.86-13.44-8.8-13.44-8.8-12.91-.8-25.82-2.14-27.4-18.14s1.58-46.94,8.69-70.68c2-6.64,10-4.27,14.76-4.27s46,71.27,41.75,75c-2.59,2.3-11.32-9.63-27-23-9.79-8.35-12.91-22.19-15.28-21.59-4.22,1.06-4.22,18.13-.53,24s40.05,26.67,40.58,51.21S515.17,561.4,502,571s-19.68,19.26-22,18c-3.42-1.87,2-32,30.44-44.91C510.43,544.09,505.42,534.22,499.63,528.89Z"/><path class="cls-3" d="M491.08,591c-1.92,0-3.12-1.62-2.17-2.91,1.74-2.37,5.27-5.36,12.11-5.61a24.36,24.36,0,0,1,15.36,5.16c1.63,1.21.55,3.36-1.71,3.36Z"/><path class="cls-3" d="M493.4,402.08c0,11.91-7.94,21.56-17.73,21.56-5.95,0-11.21-3.57-14.43-9-.69-1.18-5.54-2.45-6-3.79-1-2.67-.66-5.62-.66-8.73,0-11.9,8.07-22,21.12-22.43,4.8-.16,11.7,3.2,14.9,7,.83,1-1,2.08-.29,3.25A24.88,24.88,0,0,1,493.4,402.08Z"/></g></g></svg>