<svg xmlns="http://www.w3.org/2000/svg" viewBox="0 0 701.73 702.35"><defs><style>.cls-1{fill:#fff;}</style></defs><title>facebook icon</title><g id="Layer_2" data-name="Layer 2"><g id="Layer_1-2" data-name="Layer 1"><g id="facebook_icon" data-name="facebook icon"><path class="cls-1" d="M322.6,122.35a41.33,41.33,0,0,1,14-14A24.34,24.34,0,0,1,322.6,122.35Z"/><path class="cls-1" d="M43.09,163C85.64,78,173.72,20,267.5,4.59s191.71,9,273.19,58c20.69,12.43,40.75,26.67,55.74,45.59,17,21.48,26.57,47.76,39.35,72,21.88,41.51,54.15,78.93,63.17,125,4.85,24.75,2.55,50.31-.77,75.32-10,75.82-32.37,155.59-90.85,204.87-14,11.81-29.7,21.47-45.32,31.09-29.22,18-58.51,36-89.49,50.78-61.07,29.1-131.26,45.06-196.82,28.39-42.26-10.74-80-34.23-116.75-57.68q-37-23.61-73.75-47.63c-11.41-7.47-23.05-15.19-31.11-26.19-9-12.31-12.71-27.6-16.23-42.44Q31.33,494,24.8,466.42a15.32,15.32,0,0,1-12.25,6.63,24.53,24.53,0,0,1,11.86-13.71c-34.19-65.56-27.69-144.94-9.5-216.6,7-27.4,15.53-54.52,28.18-79.79m398.38,382.2c1.59.47,3.18-1.54,2.53-3.07l-3.32,2.22c-1.41.94-2.48,3.6-.8,3.75a2.9,2.9,0,0,0,1.53-2.87m-172-259.92c-2.57,6.36-10.34,9.06-17.19,8.76s-13.44-2.81-20.26-3.53c-7.61-.81-15.27.62-22.79,2-5.16,1-11.84,4.23-10.33,9.25a57.78,57.78,0,0,1-.45,34.46c-3.21,9.75,7.19,19.39,17.41,20.34s20-3.54,30-6.09,22-2.54,28.71,5.22c7.45,8.61,4.45,21.63,5.57,33,.7,7.14,3.18,13.95,5,20.89,9.8,37.62-.4,79,13.1,115.43a49.46,49.46,0,0,1,37-13.51c4.06.27,7.53-3.36,8.54-7.29s.16-8.07-.69-12L312.21,348.44c-1.71-7.95,8.11-13.06,16-14.91a322.33,322.33,0,0,1,54.24-7.91c7.4-.44,12.21-8.86,11.55-16.24s-5.13-13.8-9.45-19.82l-38.65,9.84c-7.71,2-15.4-3.33-20.62-9.32-8.19-9.42-13.46-21.58-13.63-34.06s5-25.15,14.65-33.12c9.35-7.76,22-10.61,34.17-10.06S384.4,217,395.87,221c2.6.91,4.57-2.36,5.38-5l11.4-37c-14.53-19.22-42.07-24.27-65.67-19.45-24.56,5-47.21,19.32-61.77,39.72s-20.72,46.74-16.12,71.38c.9,4.83,2.17,10,.33,14.52M429.17,504.53c.51,1.42,2.65.86,3.92,0,36.08-23.49,66.86-54.17,96.52-85.38q43.1-45.33,83.85-92.82c-4.71.31-8.75,3.31-12.46,6.22-44.75,35.16-85.22,75.4-125.56,115.53-7.74,7.7-15.53,15.46-21.63,24.52-7.58,11.26-13,24.93-24.64,31.89M562.45,253.72q-11.61,10.18-22.26,21.4c-8,8.42-15.55,17.23-23.1,26.05L473,352.65c-1.87-.9-.81-3.73.48-5.35L510.05,301q-58.47,62.24-116.92,124.48l55.66-50.75c5.81-5.3,11.64-10.61,17.82-15.48,4.17-3.27,8.49-6.34,12.69-9.57,13.89-10.64,26.43-22.92,38.93-35.16l75.29-73.77c2.22-2.17,4.5-4.44,5.53-7.37,2.11-6-1.58-12.27-5.11-17.51-3.19-4.73-7.07-9.92-12.74-10.59s-11.2,7.21-6.75,10.79c5.9,4.73,6.26,14,3,20.81s-9.3,11.84-15,16.83m-32.82-41.14a900.68,900.68,0,0,0-93.89,96.3c-3,3.6-6.09,7.37-7.43,11.87s-.54,10,3.15,12.91L576.81,185.57c-.09-3.4-5.39-3.11-8.21-1.21C561.73,189,556.92,196,551.19,202s-13.3,11.25-21.56,10.58m-300.7,176c-7.94.81-16-1.57-23.88-.28s-15.84,8.94-12.9,16.35c3.93-5.61,8.94-11.31,15.72-12.34s14.56,5.67,11.93,12A1165.21,1165.21,0,0,0,106,536.39c1,3.14,2.2,6.44,4.72,8.58s6.87,2.51,8.85-.14L232.46,394c.91-1.21,1.85-2.77,1.16-4.11-.79-1.54-3-1.44-4.69-1.27M265.79,423A83.83,83.83,0,0,0,261.58,392L133.75,560.73c-1.35,1.79-2,5.32.26,5.4L248.08,435.88c3.24-3.7,7.75-7.78,12.41-6.21,3.15,1.05,5.13-3.39,5.3-6.71m215.72,85.53c20.6-9,36.32-26.2,51.18-43.08q46.53-52.86,90.23-108.14c2.8-3.55,5.76-7.69,5.05-12.15-4,.15-7.1,3.35-9.75,6.32L482.15,503.7c-1.25,1.4-2.33,4-.64,4.79M161.7,300.93c2.57-4.6,1.6-10.25,1.91-15.51s3.23-11.41,8.49-11.56c10.24-.27,18-8.89,24.51-16.82l39-47.78c-1.17-2.86-5.5-.93-7.63,1.31l-53.46,56.18,28.29-40.26c1.07-1.53,1.57-4.45-.3-4.57A1815,1815,0,0,0,60.26,432c21.94-21.17,36-49,51.74-75.06,5-8.22,10.52-16.69,19.07-21-2.87-1.95-1.7-6.39-.1-9.47a129.26,129.26,0,0,1,23.65-32.16q-8.56,15.29-17.12,30.56c3,1.34,6.44-.87,8.19-3.62s2.51-6.05,4.36-8.73c3.12-4.53,9-6.77,11.65-11.57m280.63-37a403.17,403.17,0,0,0-34.86,32c1.86,1.89,5,.26,7.08-1.42C451,265,483.13,230.37,515.1,195.92c5.31-5.72,10.68-11.52,14.36-18.4,2.7-5,4.51-10.63,8.35-14.84s10.74-6.48,15.24-3c-1.06-3.86-2.24-7.93-5.18-10.64s-8.23-3.29-10.65-.11a490.42,490.42,0,0,1-46.31,52.73c-6,6-12.26,11.79-17.36,18.57-5.69,7.57-9.87,16.19-15.56,23.75s-13.44,14.29-22.81,15.7l7.15,4.28m166.86,11.52c2.51.75,3.86,3.47,4.42,6,3,13.72-8.2,26.17-18.88,35.31-12.6,10.78-26.22,21.42-33.28,36.42l54.95-46.51c7.4-6.26,5.14-18,2.23-27.27l-5.88-18.73c-.5-1.59-1.09-3.3-2.49-4.2-2.74-1.78-6.2.72-8.5,3L485.87,376.9l68.47-60.16c15.35-13.5,30.74-27,47.41-38.86,2.21-1.56,4.86-3.18,7.44-2.39M260.19,37c-4.48,1.28-9.65,3.43-10.54,8a235.33,235.33,0,0,1,95.45-6.35c11.48,1.6,23.29,4,34.5,1.09,6.11-1.6,15-3.32,16.64,2.79.77,3,4.89,3.55,7.77,2.49s5.45-3.14,8.51-3.37c3.58-.27,6.78,2.05,9.55,4.32s5.79,4.74,9.37,4.86,7.34-3.62,5.75-6.83c-.89-1.81-3-2.63-4.9-3.26A293.52,293.52,0,0,0,260.19,37M471.87,391.58a42.66,42.66,0,0,0-12.48,5.47L609.05,246.76A3100.83,3100.83,0,0,0,376.77,476.11c-.12,2.26,3.59,1.52,5.24,0l89.86-84.5M374.78,102.49c-4.42,5.17-8.78,10.57-14.51,14.24-2.9,1.85-6.28,3.25-9.69,2.86s-6.72-3-6.93-6.48c-.35-5.86,7.24-8.67,10.13-13.79A157.52,157.52,0,0,1,396.67,50.6c.59-1.35-1-2.84-2.46-2.77s-2.69,1.11-3.79,2.09q-42.19,37.68-80.92,79l45.24-2.7a19.49,19.49,0,0,0,6.87-1.25,19.42,19.42,0,0,0,5.56-4.43l41-41.81c-5.26-3.65-12.18,1-16.68,5.58q-8.69,8.78-16.7,18.17m122,193.35a2.75,2.75,0,0,0-3.5-3,908.86,908.86,0,0,0-103.92,112c-10.52,13.45-21,27.55-35.79,36.18-.62,2.28,2.15,4.3,4.49,3.93s4.12-2.2,5.73-3.93Q430,369.87,495.36,298a5.12,5.12,0,0,0,1.4-2.17M269.51,90.37c-1.1-3.85-7-1.44-9.65,1.54Q209.69,147.44,159.52,203c7.59-1.55,13.53-7.29,19-12.78L293.92,74.53a65.72,65.72,0,0,0-24.41,15.84m-56.35,26.56A1162.51,1162.51,0,0,1,106.4,234.32c-1.55,1.5-3.21,3.86-1.88,5.56,1.51,1.94,4.56.27,6.32-1.44A1758.52,1758.52,0,0,0,240,99.08c-11.18-.74-19.9,9.06-26.86,17.85m34.42,351.83c.68-1-.58-2.32-1.75-2.19a4.65,4.65,0,0,0-2.79,2q-45.22,54.53-87.94,111.07c-2.35,3.11-4.64,7.76-1.87,10.51,3.35,3.32,8.69-.86,11.43-4.71l11.89-16.74,22.9-32.22,9.77-13.75,38.36-54m70.56,92.69a139.23,139.23,0,0,1,27.29-24.75c-2-3.81-7.84-1.61-11.25,1a600.88,600.88,0,0,0-98,95.38c1.16,2.81,4.92,3.74,7.79,2.76s5-3.31,7.07-5.57c18.51-20.72,35.54-43.17,57.68-59.94a40.77,40.77,0,0,0,9.43-8.9M585.43,159.57c3.22,1.44,7.43,1,9.8,3.57A181.56,181.56,0,0,1,623,203.64a7.09,7.09,0,0,0,8.7,3.25A482,482,0,0,0,537.25,93.21c-2.55-2.24-6.45-4.5-9-2.25,3.81,1.56,3.61,6.86,3.61,11s3.07,9.5,6.79,7.73a13.23,13.23,0,0,1,18.06,16.68c-.53,1.39.52,2.84,1.5,3.95l21.68,24.58c1.61,1.82,3.3,3.71,5.53,4.7M372.88,130.41c-.87.87-1.8,2.18-1.13,3.21a12,12,0,0,1,11.11-.84c3.25,1.45,6.34,4.45,9.77,3.52a9.39,9.39,0,0,0,3.81-2.56,390.37,390.37,0,0,0,47.91-55.2,2.74,2.74,0,0,0,.57-1.16c.18-1.44-1.83-2.06-3.26-1.85-5.38.79-9.4,5.17-13,9.24a597.27,597.27,0,0,1-42.81,43.62,7.6,7.6,0,0,1-3.39,2.14c-1.32.27-2.94-.43-3.17-1.76A457.3,457.3,0,0,0,431,77.47c-.91-1.34-3-.53-4.31.43-6.49,4.74-12.17,10.47-17.83,16.18l-36,36.33M133.55,261.24c-5.29,7.08-10.91,13.92-16.52,20.75l-70,85.17c-2.27,2.77-4.08,7.8-.75,9.13l56.5-66.14,28.53-33.4,17.22-20.15a11.41,11.41,0,0,0-15,4.64m420.9,91.67c.76-1.92,1.53-3.85,2.3-5.77q-82.26,78-164.08,156.47c-3.7,3.55-7.68,7.77-7.44,12.88L536.1,372.38c6.6-6.31,13.49-12.8,22.12-15.79l-3.77-3.68M331.08,632.34c-3.69-.3-6.72,2.67-10,4.33s-8.77.83-8.81-2.87a6.7,6.7,0,0,1,1.57-3.73,404.09,404.09,0,0,1,67.66-75.27c-.62-2.16-3.91-1.08-5.61.41a566.58,566.58,0,0,0-74.5,79.16c-3.71,4.8-7.46,9.76-12.57,13,14.85,8,35.8.51,42.29-15M125.55,410.52l14.37-24.63c-17.64,16.92-31.48,37.32-45.18,57.56C87.87,453.6,80.8,464.23,79.2,476.38a428.74,428.74,0,0,0,31-45.19c1.22-2.05,3.37-3.32,5.35-4.64,11.59-7.73,19.71-19.52,27.83-30.83q11.86-16.52,24.52-32.43c-8.87,2.56-18.93,6.21-22,14.9a28,28,0,0,0,10.34-8.72c1.73.08,1.15,2.83,0,4.16l-30.71,36.89m47.29-22.23c2.35-2.72,3.79-8.26.22-8.72-1.74-.22-3.13,1.33-4.19,2.72L92.17,483.48c-4.32,5.7-8.69,13.81-4.21,19.4A576.1,576.1,0,0,1,146.8,420.5a33.86,33.86,0,0,0,4.78-6.54,33.92,33.92,0,0,1,4.86-6.66q8.2-9.49,16.4-19M327.33,93.66a13.48,13.48,0,0,0-9.6,4c1.83-5.52,7.33-8.78,12.2-12a112.4,112.4,0,0,0,23.66-20.61c-1.71-2.16-5.15-1.19-7.59.08-11.64,6.09-21.6,14.89-31.44,23.61-2.44,2.16-5,4.44-6.13,7.49s-.44,7.08,2.43,8.62l-37,40.18c-1.09,1.19-2.26,2.57-2.16,4.18,8.74-3.77,18.24-8.28,22.05-17,1.95-4.48,5.33-8.15,8.65-11.74q12.45-13.44,24.89-26.9M264.24,642.38c2.69,2.79,7.54,2.15,10.59-.24s4.77-6,6.59-9.46C291.8,613.21,308,597.62,324,582.39l44.07-42.09c-5.91-2.24-11.93,2.67-16.37,7.18l-12.41,12.63c-26,26.48-52.13,53-75,82.27m161.11-386c-3,3.14-6.31,6.93-5.77,11.26Q480,208.83,536.31,146c-1-1.83-3.79-.44-5.25,1.07L425.35,256.38m44,156.55,24.54-20.76c8-6.75,16.06-13.61,21.91-22.25,11.1-16.42,30.86-25.92,40.33-43.33a763.59,763.59,0,0,0-91.75,87.79c1.57,1,3.55-.26,5-1.45M120,385.8q18.75-22.14,37.38-44.38c3.4-4.06,6.83-8.18,9.23-12.9.87-1.73,1.61-3.68,1.14-5.55s-2.69-3.37-4.38-2.44a4.87,4.87,0,0,0-1.51,1.52L120.2,379.2c-1.53,2.08-2.62,5.77-.17,6.6m549.59-75.39c1.11-.53,1.29-2.13.72-3.23a9.62,9.62,0,0,0-2.55-2.62c-6.6-5.67-7.65-15.28-8.83-23.89-3-22-10-43.79-23.15-61.67-2.25,4,.06,9,2.17,13.1A160,160,0,0,1,655.2,293c.58,7.68,10.55,10.71,14.42,17.37m-558-112.47a3.32,3.32,0,0,0-2.48-.39c-1.11-1.13,0-3,1-4.16q18-19.87,36-39.73c-.1-1.72-2.82-1-4.07.16Q119.75,175.14,98,197.16c-2.23,2.26-4.56,4.74-5,7.88s2.15,6.81,5.25,6.18a7.22,7.22,0,0,0,3.21-2,78.08,78.08,0,0,0,10.19-11.3M229.1,580.86c-1.73,2.08-4.69,2.49-7.18,3.55-5.14,2.19-8.35,7.3-10.91,12.27a133.38,133.38,0,0,0-7.71,18.09c-.86,2.52-.82,6.41,1.83,6.62,1.57.12,2.74-1.35,3.62-2.65l27.15-40.65a3.29,3.29,0,0,0,.72-1.7c0-2-3.22-2.21-4.56-.73s-1.68,3.66-3,5.2M293.28,88.33c-16.58,16.34-33.19,32.7-48.55,50.2a3.71,3.71,0,0,0-1,1.71c-.23,1.5,1.59,2.66,3.08,2.38a7.27,7.27,0,0,0,3.67-2.55l51.06-54.68c1.44-1.53,3-3.25,3.06-5.34-4.44,1.57-7.95,5-11.31,8.28m310.64,347.8L590.29,447.9a99.81,99.81,0,0,0-10.88,10.38Q568,471.63,555.29,483.84c2,.75,4.18-.61,5.9-1.92a311.15,311.15,0,0,0,48.65-45.87c-.1-1.22-1.56-2-2.77-1.76a6.8,6.8,0,0,0-3.15,1.84M527.37,536.77c-.51-2.17-3.81-1.2-5.52.23q-28.56,23.81-55.21,49.78c.32,1.91,3.26,1.2,4.79,0a546,546,0,0,0,55.94-50m-392,14,66-87.34c1.13-1.48,1.85-4.25,0-4.66Q168,499.49,138.17,543c-1.61,2.35-3.28,5-2.83,7.81M593,431l24.22-20.14A28.64,28.64,0,0,0,623,405c3.25-4.93,3.13-11.27,2.88-17.17-4.8.8-7.37,5.9-9.7,10.18a66.2,66.2,0,0,1-15.44,18.91c-2.21,1.86-4.58,3.61-6.27,6s-2.6,5.49-1.52,8.17M455.26,51a12.42,12.42,0,0,0-5,3.09,100.8,100.8,0,0,0-13.88,15c.61,2,3.66,1.17,5.33-.12A90.55,90.55,0,0,0,454.52,56.8c3.12-3.57,8.92,2.71,13.4,1.13,4-1.42,8.2,1.66,11.21,4.71s6.48,6.58,10.75,6.22a3.83,3.83,0,0,0,3.34-2c.95-2.3-1.57-4.46-3.78-5.61a104,104,0,0,0-28.89-10.07,12.61,12.61,0,0,0-5.29-.19M121.49,257.16a22.26,22.26,0,0,0,8.44,2.15c3.55-6.93,12.4-9.82,16.17-16.64a179.67,179.67,0,0,1,24.73-34.44c.37-1.24-1.88-1-2.8-.14a248.73,248.73,0,0,0-27.44,31.46c-3.42,4.65-6.89,9.61-12.06,12.17-2.75,1.37-6.32,2.44-7,5.44m348.18.74c-1.13,2.74-3.41,4.83-5.61,6.82L422,302.67c.41,1.58,2.81.92,4.11-.07A367.35,367.35,0,0,0,485.36,246c-6.25,2.55-13.1,5.67-15.69,11.91M668,420.88q3.06-16.94,5.19-34c1.11-8.86,2-17.75,2.59-26.66a3,3,0,0,0-.47-2.25c-.81-.86-2.39-.38-3,.63a6.12,6.12,0,0,0-.59,3.45c.39,19.22-4.6,38.08-8.19,57-.69,3.64-1.18,7.86,1.28,10.62,2-2.4,2.65-5.63,3.21-8.71M85.34,364a231.82,231.82,0,0,0-23.49,28.73c-2.13,3.07-5.61,4.94-8.05,7.78s-3.46,7.71-.49,10a2.16,2.16,0,0,0,1.86.52,2.87,2.87,0,0,0,1.31-1.11A278.86,278.86,0,0,0,85.34,364M419.25,223.31,417,229.79c-.5,1.48-1,3.27,0,4.51,1.83,2.35,5.43-.24,7.12-2.69l14.55-21c-3.17-3.49-9.21-2.66-12.75.46s-5.19,7.8-6.71,12.27M176.83,409.58c-7.5,6.64-13.65,14.66-19.75,22.61l-33.84,44.17c.46,1.51,2.76.51,3.79-.68a627.56,627.56,0,0,0,49.8-66.1m273.76-273.8-22,20c-1.81,1.63.34,4.92,2.77,4.94s4.43-1.83,6.14-3.57q13.2-13.43,26.09-27.15c-4.82-1-9.3,2.52-13,5.82m6.8,490L443,638.2c1,1.95,3.8,1.75,5.94,1.28l21.25-4.77c1.78-.4,3.91-1.14,4.21-2.94l-11.08-6.72a5.36,5.36,0,0,0-2.64-1,5.28,5.28,0,0,0-3.25,1.68m87.49-429.09a59.62,59.62,0,0,1,17-15.62c4.58-2.79,3-10-.27-14.22a4.83,4.83,0,0,0-3-2.22c-1.28-.14-2.66,1.27-2,2.38,2.33,1.33,1.33,4.87,0,7.18a113.34,113.34,0,0,1-21.7,26.58c1.32,1.64,4,1.59,5.77.52s3-2.9,4.27-4.6m-289.8-46c.58,1.19,2.39.38,3.34-.55q23.73-23.24,46.26-47.64c0-1.14-1.36-1.87-2.47-1.65a5.77,5.77,0,0,0-2.77,1.87q-23,23.24-44.36,48M178.5,212.36l-21.45,27.9c-1.35,1.76-2.7,4.34-1.21,6a502.3,502.3,0,0,0,42.22-54.81c-7.76,5.61-13.72,13.33-19.56,20.93m209.9,410.3-22.3,22.26a4.65,4.65,0,0,0-1.45,2.13c-.42,1.87,1.71,3.51,3.61,3.36s3.49-1.48,4.89-2.78a93.09,93.09,0,0,0,19.59-25.86c-.9-1.45-3.13-.32-4.34.89m134.92-97.5,22.26-15a22.67,22.67,0,0,0,5.8-4.95c8.27-11.16,22.49-16.59,31.17-27.44-2.91-.25-5.52,1.69-7.8,3.53q-22.51,18.12-44.83,36.5c-2.57,2.11-5.23,4.34-6.6,7.38m-270,59.48c1.14,1.24,3.16,0,4.36-1.15l18.22-18.13c2.42-2.4,4.77-6.68,2-8.69-2.45-1.8-5.66.83-7.54,3.22l-12.2,15.6c-2.16,2.76-4.39,5.69-4.87,9.15M445.27,116.09l14-13.35c5.09-4.85,10.22-9.75,14.3-15.48-1.43-2-4.45-2.22-6.67-1.18s-3.82,3-5.35,4.94l-20.48,25.8c.8,1.44,3,.41,4.19-.73M270.44,502.83c-1.23-.33-2,1.32-2.22,2.57-1.81,8.85-7,16.58-12.09,24.05a17.59,17.59,0,0,0,15.53-25.33,2.16,2.16,0,0,0-1.22-1.29M332.65,262.2a4,4,0,0,0,.48,2.38,3.14,3.14,0,0,0,3.48.87c4-1.16,5.36-6,6.37-10.08s3.38-8.85,7.56-8.76c.49-1.78-1.21-3.59-3.05-3.83a7.68,7.68,0,0,0-5.15,1.7,22.86,22.86,0,0,0-9.69,17.72M638.5,544.25c2.48-3.23,5-6.77,5.18-10.84l-11.92,14.67c-11.63,14.32-23.29,28.67-36.61,41.43.9,1.24,2.84.21,3.93-.87a425.85,425.85,0,0,0,39.42-44.39M549,472.45q19.57-19.27,37.58-40.09c1.44-1.67,2.65-4.69.65-5.63q-18.93,20.81-37.41,42c-.93,1.06-1.84,2.75-.82,3.71m-87-311.83A202.72,202.72,0,0,0,440,185.48c-2.21,3-4.17,7.66-1.21,9.92a152.76,152.76,0,0,1,28.71-35c-.08-1.18-1.5-1.89-2.67-1.67a6.28,6.28,0,0,0-2.94,1.9M391.37,76.15a63.37,63.37,0,0,1-15,13.33c-7.89,5-11.09,15.46-19,20.43,1.61,1.57,4.25.08,5.92-1.41a297.21,297.21,0,0,0,28-28.54c1-1.2,1.61-3.65,0-3.81m-246.75,86.5-31,31a1.39,1.39,0,0,0,1,2.24,337.16,337.16,0,0,0,35.25-33.5,2,2,0,0,0-2.51-1.56,5.86,5.86,0,0,0-2.75,1.85M497.94,160c-.89,1.56-1.64,3.42-1,5.09a349.37,349.37,0,0,0,31.32-32.37c-2.53-2-5.86,1.13-7.85,3.7-6.66,8.62-17,14.13-22.45,23.58M73.73,152.68c-1.9,2.89-3.69,7.09-1.15,9.44a178.62,178.62,0,0,0,16.31-22.27c.78-1.26,1.55-2.88.76-4.13-1.43-2.26-4.82.05-6.28,2.28l-9.64,14.68m592,184.68a96.73,96.73,0,0,0-1.91-25.4,7.37,7.37,0,0,0-1.57-3.7c-1-1-2.7-1.31-3.64-.33-.81.82-.72,2.14-.57,3.29q1.28,9.84,2.53,19.68c.4,3.1,2.12,7.19,5.16,6.46M468.2,180.21c-2.21-4.18-8.53-4.49-12.45-1.83s-6,7.23-7.91,11.56L444.75,197c4.53.33,7.61-4.36,9.74-8.38s5.53-8.61,10-7.85c1.34.22,3.17.7,3.69-.56M373,678.12l.59-3.6-42.24-1c-.16,1.58,1.87,2.33,3.44,2.52A288.67,288.67,0,0,0,373,678.12M496.65,236.8q12.47-11.81,24.24-24.29c1.37-1.45,2.15-4.62.16-4.72q-16.63,16.89-33,34c3.4-.22,6.18-2.67,8.64-5M393.21,75.87c10.58-6,19.89-13.92,29.12-21.82-1.59-2.52-5.49-1.12-7.91.62a94.39,94.39,0,0,0-21.21,21.2M641.13,494.62l-23.62,30c-.93,1.19-1.29,3.66.22,3.56a129,129,0,0,0,23.7-29.84c.72-1.25,1.1-3.35-.3-3.69M492.76,598.26c6-4,9.86-10.46,15.1-15.41s13.25-8.45,19.57-5c.9-.31,1-1.66.41-2.41a4.56,4.56,0,0,0-2.51-1.26l-5.51-1.43a6.08,6.08,0,0,0-3.21-.25,6.21,6.21,0,0,0-2.35,1.59l-24.1,22.43,2.6,1.71M438.39,113.4q6.48-8.06,12.94-16.12c.91-1.13,1.71-3.06.45-3.79q-15.11,16-29.17,33c6.66-2,11.43-7.7,15.78-13.12m156,448.38a6.94,6.94,0,0,0,1.85-3.27,3.75,3.75,0,0,0-.63-2.76,193.7,193.7,0,0,0-24.34,21.63,53,53,0,0,0,23.12-15.6m-323-83c-1.34-2.21-4.91-2.24-6.71-.39s-1.93,4.9-.84,7.25a17.77,17.77,0,0,0,2.34,3.45l5.46,6.79a73.6,73.6,0,0,0,.5-13.84,7,7,0,0,0-.75-3.26M75.35,564.41c2.29-.73,1.38-4.18,0-6.14a131.67,131.67,0,0,0-11.25-13.7,23.44,23.44,0,0,0,8,18.65c.92.79,2.11,1.55,3.27,1.19m466-323.5-17.75,15a2.8,2.8,0,0,0-1.09,1.46c-.21,1.11,1.1,2,2.22,1.9a5.55,5.55,0,0,0,2.88-1.71l18.84-17.37c-1-1.7-3.59-.57-5.1.7M417.19,135.65c-2.23,1.66-4.65,4.2-3.7,6.82A23.47,23.47,0,0,0,431.15,127a98,98,0,0,0-14,8.68m-321,77.11a8,8,0,0,0-9.36,2.66c-1.43,2-1.81,4.58-2.59,6.94A20.67,20.67,0,0,1,80,229.6a41.05,41.05,0,0,0,16.12-16.84M226.89,205l8.12-8.28c2-2,3.73-6,1.13-7.13a90.91,90.91,0,0,0-16.58,21c2.9-1.08,5.16-3.35,7.33-5.56m144.05,45.47a31.18,31.18,0,0,0,5.28-4.58c.8-.93,1.51-2.24.92-3.32a3.07,3.07,0,0,0-2.68-1.2,14.57,14.57,0,0,0-10.14,3.51c2.54,1,1.4,6.19,4.11,6.6a3.58,3.58,0,0,0,2.51-1M492.88,90.29c3.28-2.56,6.63-5.2,8.81-8.74a15.22,15.22,0,0,0,2.31-7L481.35,99.29l11.53-9m9.94,197c2-.67,2.1-3.37,3-5.24a10.93,10.93,0,0,1,3.48-3.62l5.76-4.37c-.09-2.42-4.1-2-5.54,0s-2.31,4.77-4.67,5.32c-2.17.51-4.46,1.59-5.27,3.67s1.11,5,3.22,4.26M363.88,598.93A50.37,50.37,0,0,0,378,586.29c.56-.73.83-2.17-.09-2.25a45.78,45.78,0,0,0-14.17,11.67c-.85,1-1.2,3.23.16,3.22m57.47-81.32a12.62,12.62,0,0,0,5.22-6.63,24.84,24.84,0,0,0-14.48,9.74c2.45,2.7,6.74-.31,9-3.18M167.57,136l-10.25,9.69a4.33,4.33,0,0,0,2.82,1.89l13.5-13.5c-1.88-1.34-4.39.33-6.07,1.92m347.86-60c-2.8-.47-6.58.06-7.1,2.86-.45,2.42,2.37,4.42,4.81,4.15s4.45-2,6.28-3.64l-4.09-3.17M117.39,267.9a11.54,11.54,0,0,1-8.83,9.48,3.32,3.32,0,0,0,2.64,2.05A155.44,155.44,0,0,0,124.47,265c-2.46-1.85-6.66-.1-7.08,2.95m518.29-20a17.52,17.52,0,0,0,5.93,16.54,21.7,21.7,0,0,0-5.93-16.54M439.55,565.76l11.21-9.65L447,554.39a12.6,12.6,0,0,0-7.43,11.37M387.81,336.85l2.81.4c2.32-1.77.79-5.93-2-6.86s-5.78.36-8.26,1.91l7.55,4.11m130.5,60.7,13.6-8.37c-5.71-2.69-13.43,2.07-13.6,8.37M553.86,78.47c2.83,4.92,8,7.92,12.95,10.7,1.35.76,2.88,1.55,4.39,1.17a48.94,48.94,0,0,0-17.34-11.87m2.45,151c-1.74.23-3.68.6-4.64,2.06s.39,4.05,2,3.37a3.37,3.37,0,0,0,.81-.59l9.75-8.8a4.82,4.82,0,0,0-7,3M187.32,605.15l.37-4.61a10.46,10.46,0,0,0-3.71.85,5.28,5.28,0,0,0-3.16,3.92,3.42,3.42,0,0,0,2.76,3.83c1.74.17,3.38-1.92,2.53-3.45M281.64,68.64a17.37,17.37,0,0,0,12.61-11.76,35.29,35.29,0,0,0-12.61,11.76m112,473.72a13.08,13.08,0,0,0-11.16,7.33,2.31,2.31,0,0,0,2.29,1.21,21.29,21.29,0,0,0,8.87-8.54m24.69-197.52a8,8,0,0,0-4.64,6.77,21.18,21.18,0,0,0,11.35-12.12,15,15,0,0,0-6.57,5.43m81.38-220.29a15.43,15.43,0,0,0-5.21,6.22,25.13,25.13,0,0,0,12.84-11,9.72,9.72,0,0,0-7.54,4.81m-11.63-24.55a12.46,12.46,0,0,0-6.24,6.19,13.53,13.53,0,0,0,6.17-1c1.42-.58,2.87-1.59,3.09-3.11s-1.71-3.08-2.86-2.07M557.83,612.3a9.33,9.33,0,0,0-6.68,5.69,22.68,22.68,0,0,0,13.1-7.57,5.71,5.71,0,0,0-6.11,2M244.43,80.65a22.68,22.68,0,0,0,12.18-6.14,11.08,11.08,0,0,0-12.18,6.14m-37.6,187a4.47,4.47,0,0,0,6.73-5.66,12.5,12.5,0,0,0-7.14,5.84M62.13,253.21a6.12,6.12,0,0,0,3.32-7.36,9.94,9.94,0,0,0-6.71,7.5l3.49.09m441-195.23c.15.94.31,1.89.47,2.84a5.87,5.87,0,0,0,4.15-3.74c.5-1.88-.86-4.22-2.8-4.18s-3,3.25-1.19,4.06M205.29,571.26l1.47-2.67c-1.7-1-4-.23-5.33,1.18a13.56,13.56,0,0,0-2.68,5.18,6.24,6.24,0,0,0,6.1-3.88m381.4-76.39a6.23,6.23,0,0,0,2.72-5.49,17.48,17.48,0,0,0-8.49,9.82,9.2,9.2,0,0,0,5.67-4.35M368.8,511.18a3.1,3.1,0,1,0-5.1,1.68,3.27,3.27,0,0,0,5.1-1.68m78.77,156-12.61.48a8.75,8.75,0,0,0,12.61-.48M476.12,70.53a13.83,13.83,0,0,0-7,6.7,6.38,6.38,0,0,0,7.43-6.12m-36.14,65a6.59,6.59,0,0,0-4.56,5.52,38.78,38.78,0,0,0,9.48-8.77,5.49,5.49,0,0,0-4.74,3.28M71.12,240.23a7.77,7.77,0,0,0,4.52-6.89A10.82,10.82,0,0,0,71.22,236c-1.13,1.32-1.49,3.46-.32,4.75M562.21,518.67l-1.92,3.53a7.5,7.5,0,0,0,6.71-6.71,5.85,5.85,0,0,0-4.55,3.3M369.87,684.57a1.85,1.85,0,0,0-2,2.46,11.38,11.38,0,0,0,7.75-1.51c-.82-1.92-3.56-1.75-5.59-1.24m99.47-563.73a8.8,8.8,0,0,0,6-5.72,5.29,5.29,0,0,0-6.08,5.22M306.49,57.29c-.89-.45-.29,1.42.7,1.48a11,11,0,0,0,7.55-2.43,7.69,7.69,0,0,0-8.13.89M168.15,62.75c-1,.82.36,2.72,1.46,2.1,1.72,1,4.26-1,3.53-2.87s-4.17-1.32-4.17.67M350.14,374.16a3.57,3.57,0,0,0-5.39,1.69c1.21,2.5,5.92,1.15,5.63-1.6M552.09,557.84c1.18,1.17,3.41-.6,2.89-2.18s-2.69-2.07-4.17-1.32a2.39,2.39,0,0,0,1.05,3.67M465.94,113.72a7.34,7.34,0,0,0-3.89,6.23q3.65-4,7.28-8a2.48,2.48,0,0,0-3.23,1.65M185.61,227.16l4.6.42a2.61,2.61,0,1,0-5.1-.57m352.8,357.2a2.29,2.29,0,0,0-1.07-3l-3.5,4.46c.53,1.88,3.34.16,4.17-1.6M102.69,289.9l1.92-4.35A6.3,6.3,0,0,0,100,290a1.39,1.39,0,0,0,2.57-.2M472.91,107.68a3.3,3.3,0,0,0-2,3.13l4.54-3.15c1.17-.81,1.8-3.26.39-3l-3,2.93m50.77,260.37-3.43,1.64c.74,1.09,2,2.07,3.27,1.76s1.65-2.57.36-2.83M138.19,85.62a8.49,8.49,0,0,0-3.09,3.79,5.25,5.25,0,0,0,3.37-1.07c.86-.84.79-2.64-.38-3M661.67,354.29c-1.55,1-.78,3.91,1.05,4a2.58,2.58,0,0,0-1.07-3.82m-87.36,152.3a3.28,3.28,0,0,0-2.51,3.44,3.42,3.42,0,0,0,3.13-3.74m-111,69.64a3.65,3.65,0,0,0-3.22,3.87,4.13,4.13,0,0,0,3.25-3.81m-361-72.24a1.67,1.67,0,1,0-3-1.2,1.82,1.82,0,0,0,2.74,1m-7-250a1.69,1.69,0,0,0,1.84-1.45,1.68,1.68,0,1,0-2,2.19m119,4.43a1.44,1.44,0,0,0,1.56,1.49l2.5-2.47a2.62,2.62,0,0,0-3.88,1M521.22,118.19a2.43,2.43,0,0,0-3.94.75,2.73,2.73,0,0,0,4.22-.75M557.34,140a7.76,7.76,0,0,0,3.95,3.12,3.68,3.68,0,0,0-4-3.34M112.16,110.66c-.84-.63-1.68,1.12-.93,1.85a2.75,2.75,0,0,0,2.71-.63l-1.52-1.52M363.91,463.12a2.05,2.05,0,0,0,1.11-2.86,2,2,0,0,0-2.1,1c-.33.77.27,1.85,1.1,1.77m241.81-59.51a3.46,3.46,0,0,0-2.27,3.71,3.93,3.93,0,0,0,2.46-3.94m-62.27-141a2.07,2.07,0,0,0,1.12-2.87,2,2,0,0,0-2.11,1,1.28,1.28,0,0,0,1.11,1.77M380.81,280.32c-.84,1.32,1.73,2.91,2.54,1.56.64-1-1.23-1.63-2.38-1.36M175.67,89.2c-.74-.21-.91,1.2-.21,1.49a2.32,2.32,0,0,0,2.1-.6c.58-.88-1.18-1.74-1.87-1M557.76,326.31a4.28,4.28,0,0,0,2.13-3c-1.54,0-3.08,1.83-2.1,3m-151.9,4.05c-.45-.59-1.41.42-1,1.06s1.27.72,2,.73c.88-.49,0-2.17-.91-1.72Z"/></g></g></g></svg>