<svg xmlns="http://www.w3.org/2000/svg" viewBox="0 0 402.68 511.73"><defs><style>.cls-1{fill:#fff;}</style></defs><title>location</title><g id="Layer_2" data-name="Layer 2"><g id="Layer_1-2" data-name="Layer 1"><g id="location"><path class="cls-1" d="M245.75,303.1c-7,2.59-14.63,2.67-22.06,2.16a150.55,150.55,0,0,1-24.27-3.69c-9.15-2.17-18.29-5.31-25.68-11.13-6.94-5.46-12-13-16.18-20.74a152.24,152.24,0,0,1-16.63-94.54,93.64,93.64,0,0,1,5.59-21.55c11-26.78,38.09-43.75,65.74-52.31,8.84-2.75,18.39-4.81,27.29-2.26,39.58,11.35,69.34,50.62,69.57,91.79a183,183,0,0,1-2,24.61c-.85,6.44-1.74,12.92-3.81,19.07-3.36,9.92-9.64,18.54-15.84,27-7.69,10.49-15.43,21-24.79,30.05-4.95,4.77-10.46,9.17-16.9,11.55m-59.39-46.89c21.85-39.88,60.41-67.24,91.95-100,1.49-1.55,3.07-3.46,2.7-5.57a462.88,462.88,0,0,0-89.55,86c-4.49,5.66-9,13.51-5.1,19.59m32-5c.22,1.28,2.18.73,3.15-.12q37.45-32.4,73.5-66.38c-.8-2.23-4.17-1.09-6,.41a745.75,745.75,0,0,0-70.66,66.09m-48.68,14.24c3,4.08,6.11,8.13,10.12,11.18,7.37,5.6,16.88,7.32,26,8.87-2.88-2.68-6.73-4-10.28-5.69-9.23-4.43-16.79-11.84-22.8-20.13S162.15,242.13,157.58,233c-1.44,11.75,5.17,22.88,12.14,32.45m75-13.76c-.34-1.24-2.23-.56-3.16.33q-7.78,7.49-15.53,15c-2,1.91-4.1,4.4-3.39,7.05,3.3.18,7.5-.2,8.57-3.33a41.72,41.72,0,0,1,13.51-19.08M261,131.77c-2.53-1.49-5.68-2.93-8.26-1.52a8.8,8.8,0,0,0-2.79,3l-8.9,13a17.51,17.51,0,0,0,8.33-4.82c1.67-1.74,3-3.82,4.74-5.46s4.21-2.86,6.55-2.28l.33-1.85m-61.29,4.1a1.45,1.45,0,0,0-.81,1.75c.55,2.06,3.61,1.72,5.47.68a25.54,25.54,0,0,0,7.82-6.77,10.61,10.61,0,0,1-4.82-3.45,11.89,11.89,0,0,1-7.66,7.79m75.3,5.87a20.18,20.18,0,0,0-7.74-6.63,3.67,3.67,0,0,0-2.83-.44,8.68,8.68,0,0,0,3.3,6.71,6.52,6.52,0,0,0,7.27.36M158,173.11c-.83,1.12-1.66,2.72-.74,3.77a1.57,1.57,0,0,0,1.71.42,3.13,3.13,0,0,0,1.35-1.41l5.08-8.3c-.51-1.63-3-.42-4,.95-1.14,1.52-2.27,3.05-3.4,4.57M269.66,249l4-2.57a4.69,4.69,0,0,0-7,5.35l3-2.82m28.7-71.26a18.79,18.79,0,0,0,5.36-3.63,3.45,3.45,0,0,0-4.19-.09,10.17,10.17,0,0,0-2.86,3.47,1,1,0,0,0,1.74.24M200,110.83c-2.24-.07-4.9.07-6.1,2a54.23,54.23,0,0,0,8.92-.19,2.3,2.3,0,0,0-2.76-1.75m4.31,41.53c-1.47.16-1.82,2.66-.45,3.22a8.67,8.67,0,0,0,3.7-5.95,2.78,2.78,0,0,0-3.29,2.46m-4.71,38.57a3.19,3.19,0,0,0,2,1.18,3.42,3.42,0,0,0,1.13-3.56c-1.37-1-3.66.76-3,2.35m25.68,97.2a2.16,2.16,0,0,0-2.78-1.47,3,3,0,0,0-1.85,2.81,7.56,7.56,0,0,0,4.39-1.37m35.5-32a2.55,2.55,0,0,0-1.72,3,8.31,8.31,0,0,0,4.42-2.74,1.85,1.85,0,0,0-2.69-.32M158.72,197.76a1.94,1.94,0,0,0,.34,1.88c1.21.56,2.91-.58,2.61-1.88s-2.7-1.25-2.76.08m26.91-80a5.79,5.79,0,0,0,3.59-1.91c-1.28-1.48-4.26.12-3.73,2m115,84.05c.78-.21.11-1.59-.67-1.39s-1.12,1.1-1.27,1.89a1.32,1.32,0,0,0,2-.4Z"/><path class="cls-1" d="M79.37,69.52c10-1.89,17.65-9.82,25.15-16.75C161.52.15,248.43-11,323.09,10c14.18,4,28.4,9.22,39.62,18.75C381.35,44.58,388.9,69.59,395,93.25c3.86,14.85,7.54,29.92,7.64,45.25s-3.31,30.16-6.71,45c-5.57,24.29-11.17,48.69-20.29,71.87-8.73,22.18-20.59,43-33.17,63.23A871.08,871.08,0,0,1,228.85,464.8c-5.58,5.77,7.18,15.78,2.67,22.42-3.31,4.88-10.87,1.29-15.33-2.57l-26.87-23.32-18.8,35.94c-2.85,5.45-6.11,11.28-11.75,13.7s-14-1.2-13.49-7.32A96.09,96.09,0,0,0,125,437.44,788.65,788.65,0,0,1,12.36,244.21C2.7,220.41-5.71,193.09,5,169.75c3.95-8.61,3.79-18.44,5.12-27.81,5-35.31,34.2-65.85,69.25-72.42M302.29,58.66c-7.29-4.46-15.72-6.64-24-8.76L237.41,39.45c-9-2.3-18.51-1.15-27.6.76a173.46,173.46,0,0,0-88.18,48.52c-9.44,9.71-17.78,20.64-23.38,33-5.93,13.08-8.62,27.41-9.85,41.71-5.89,68.37,21.45,137,65.38,189.73,12,14.45,25.5,28.17,33.34,45.26,7.28,15.86,20.14,28.35,32.73,40.44.89.87,2,1.79,3.19,1.71a4.58,4.58,0,0,0,2.83-1.83,993.12,993.12,0,0,0,86.81-109.21c16.36-23.84,31.8-48.64,41.51-75.88s13.4-57.28,6-85.22c-3-11.39-7.82-22.21-12.6-33l-15.54-35c-7-15.87-14.91-32.7-29.73-41.75M68.06,234.39c3,2.24,2.63,6.81,2.2,10.57s.13,8.61,3.74,9.75c5.51,1.74,6.71,8.94,6.49,14.72s-.34,12.69,4.44,15.94c4.18,2.84,6,8,8.17,12.51s5.7,9.27,10.73,9.65A439.31,439.31,0,0,1,60.65,167a61,61,0,0,0,5.7,51.9c2.88,4.62-2.68,12.28,1.71,15.5M353.53,90.23q-8.91-9.18-18.48-17.66c12.76,26.56,25.57,53.25,34.08,81.47.74,2.48,1.56,5.13,3.6,6.72.59-16-3.08-31.74-6.73-47.29-1-4.44-2.1-8.94-4.27-12.94s-5.13-7.15-8.2-10.3m-254,278.58q5-11.15,10.06-22.3a12.58,12.58,0,0,0,1.31-4.14,6.43,6.43,0,0,0-3.4-6.07,2.38,2.38,0,0,0-1.42-.32c-.9.13-1.44,1-1.87,1.83-2.56,4.84-5.14,9.74-6.4,15.07s-1.06,11.21,1.72,15.93m39.15,55.79q6-10.17,11.92-20.34a11.68,11.68,0,0,0,1.83-4.45,4,4,0,0,0-1.94-4.1,4,4,0,0,0-4.37,1.15,13.64,13.64,0,0,0-2.39,4.16,43.66,43.66,0,0,1-3.91,7.21c-1.85,2.72-4.15,5.26-5,8.45s.6,7.28,3.83,7.92M131,373c-1,.27-1.54,1.4-1.91,2.4q-3,8.22-6,16.43a11.79,11.79,0,0,0-1.06,5.78c.32,2,2,3.84,4,3.6l6.18-10.26c1.66-2.75,3.34-5.58,3.88-8.74s-.34-6.77-2.95-8.62A2.69,2.69,0,0,0,131,373M287,30.83c8.75,4.58,19.21,4.65,28.28,8.55,4.66,2,8.84,5,13,7.9,1-.6.41-2.1-.29-3a39.54,39.54,0,0,0-41-13.46M162.53,481.48a376.74,376.74,0,0,0,17.86-35.24,5.72,5.72,0,0,0-1.36-6.39l-17.31,36.92c-.79,1.69-1.05,4.48.81,4.71M376.74,85.62c.88.71,1.68-1,1.52-2.11a58.19,58.19,0,0,0-24.18-39.08c-.61,2.2,1.13,4.29,2.67,6a91.16,91.16,0,0,1,20,35.22m-291,232A16.13,16.13,0,0,0,88,335.8a1.53,1.53,0,0,0,.79.54c.89.16,1.28-1.06,1.4-1.95.49-3.56,2.54-6.75,3.14-10.3s-1.18-8.07-4.77-8.26a2.79,2.79,0,0,0-1.56.32,3.67,3.67,0,0,0-1.25,1.48M387.33,119l-1.95-.37q.27,18.18,2.06,36.3c.79.83,1.91-.66,2.06-1.8a127.82,127.82,0,0,0,.73-17c0-5.87-.07-12-2.9-17.18M59.27,269.92l-3.73,7a8.58,8.58,0,0,0,3.77,11.38c3.3-5.93,6.6-13.36,3-19.12a1.83,1.83,0,0,0-.72-.74c-.93-.44-1.83.62-2.32,1.52m-9.7-51c-1-.69-2.31.46-3,1.5q-5.16,7.62-9.64,15.68a4.74,4.74,0,0,0-.87,3.05c.19,1.06,1.5,1.94,2.37,1.3q5.51-9.11,11-18.21c.64-1.05,1.18-2.64.15-3.32m24.05,92.37c1.74-3.76,3.53-7.88,2.61-11.93-.43-1.94-1.68-3.87-3.6-4.37-4.56,4.24-4,12.65,1,16.3m-29.14-45a45.19,45.19,0,0,0,8.66-18.66,19.71,19.71,0,0,0-8.66,18.66M110.63,385.4q2.13-5.83,4.25-11.68c.47-1.28.42-3.34-.94-3.29l-3.82,6.29a11,11,0,0,0-1.91,4.67c-.14,1.7.77,3.6,2.42,4M34.92,206.51A26.93,26.93,0,0,0,31,212.13c-.75,1.43-1.18,3.56.23,4.36A108.09,108.09,0,0,0,38,206.3c-.09-1.34-2.22-.78-3.12.21M256,18.67a18.21,18.21,0,0,0-13.3-.85,18.63,18.63,0,0,0,13.3.85m6,22.09a1.22,1.22,0,0,0-2-.28,3.63,3.63,0,0,0,2.93,1.77c.65-.44-.05-1.72-.78-1.4Z"/></g></g></g></svg>