<svg xmlns="http://www.w3.org/2000/svg" viewBox="0 0 815.33 732.91"><defs><style>.cls-1{fill:#fff;}</style></defs><title>white</title><g id="Layer_2" data-name="Layer 2"><g id="Layer_1-2" data-name="Layer 1"><path class="cls-1" d="M193,340.08a141.56,141.56,0,0,0,15-8.19A74,74,0,0,0,229.8,310a186.13,186.13,0,0,0,14.64-30.53q4.6,2,9.49,3.71a139.46,139.46,0,0,0,45.76,7.86,97.22,97.22,0,0,0,24.08-3.38C315.16,313.59,305,344.4,285,369.87c0,.21-15-2.79-24,7.21-10.41,11.56-8.71,26.48-9,26.67-5,3.33-7.22,5.12-14.72,9.51a105.21,105.21,0,0,1-24.91,10.38S178,382.08,169,376.08c0,0,14.06-3.76,20-20C190.63,351.59,193,340.08,193,340.08Z"/><path class="cls-1" d="M419,542.08c-.78,1.1-1.59,2.23-2.42,3.38l-1.72.17-1.59.16,4.42-2.87C418.49,542.39,419,542.08,419,542.08Z"/><path class="cls-1" d="M419,542.08c-.78,1.1-1.59,2.23-2.42,3.38l-1.72.17c.94-.93,1.88-1.84,2.83-2.71C418.49,542.39,419,542.08,419,542.08Z"/><path class="cls-1" d="M323.74,596.08c2.35,0,3.47-2.36,1.78-3.71-3.47-2.74-9.06-6-16-5.68-7.12.28-10.8,3.57-12.61,6.18-1,1.43.26,3.21,2.25,3.21Z"/><path class="cls-1" d="M296.2,388.23c-.69-1.16,1.15-2.24.29-3.22-3.27-3.73-10.35-7.07-15.27-6.91-13.39.44-21.67,10.44-21.67,22.25,0,3.08-.32,6,.68,8.65.5,1.33,5.47,2.59,6.18,3.76,3.3,5.42,8.7,9,14.81,9,10,0,18.18-9.57,18.18-21.37A24,24,0,0,0,296.2,388.23Z"/><path class="cls-1" d="M419.28,602.08c2.63,0,3.89-2.64,2-4.15-3.87-3.06-10.13-6.66-17.88-6.35-8,.31-12.09,4-14.11,6.91-1.11,1.6.29,3.59,2.52,3.59Z"/><path class="cls-1" d="M351.46,386.59c-3.49-.26-7.31-2.38-8.62-2.82-2.61-.87-5.23,0-4.36,5.24s19.19,0,19.19,0-4.36,7.85-9.59,8.72-7,8.72-.87,8.72,11.6-14.78,11.6-14.78c2.41,10.77,10.75,18.71,20.67,18.71,11.8,0,21.37-11.25,21.37-25.12a28,28,0,0,0-4.4-15.27c-1.24-1.89,2.53-3.57.9-5-3.54-3.05-13.15-6.6-17.87-6.6-11.8,0-24,13-24,26.86C355.49,385.26,355,386.85,351.46,386.59Z"/><path class="cls-1" d="M513.74,588.08c2.35,0,3.47-2.36,1.78-3.71-3.47-2.74-9.06-6-16-5.68-7.12.28-10.8,3.57-12.61,6.18-1,1.43.26,3.21,2.25,3.21Z"/><path class="cls-1" d="M490.2,388.64c-.69-1.16,1.15-2.24.29-3.22-3.27-3.73-10.35-7.06-15.27-6.9-13.39.43-21.67,10.44-21.67,22.24,0,3.08-.32,6,.68,8.65.5,1.33,5.47,2.59,6.18,3.76,3.3,5.42,8.7,9,14.81,9,10,0,18.18-9.57,18.18-21.37A24,24,0,0,0,490.2,388.64Z"/><path class="cls-1" d="M560.39,599.54a17.56,17.56,0,0,1-.74,1.91c-.3.6-.6,1.2-.92,1.8s-.7,1.1-1.06,1.65l-.56.8-.6.72a29.46,29.46,0,0,1-5.18,4.92,43.84,43.84,0,0,1-5.54,3.44,70.18,70.18,0,0,1-11.22,4.63,151.76,151.76,0,0,1-22.37,5.13,385.42,385.42,0,0,1-44.43,4.05c-14.75.6-29.47.75-44.15.74s-29.34-.21-44-.47-29.24-.27-43.9-.47-29.29-.51-43.94-.83-29.28-.75-43.92-1.23q-11-.35-22-.78c-7.32-.3-14.63-.58-22-.94v-1l175.63-4.46,43.87-.88c14.58-.37,29.15-.9,43.62-1.87s28.9-2.28,42.92-4.74a138.33,138.33,0,0,0,20.32-5,57,57,0,0,0,9-3.86,30.78,30.78,0,0,0,3.74-2.39,16.5,16.5,0,0,0,2.73-2.66,7.79,7.79,0,0,0,1.45-2.63,6.6,6.6,0,0,0,.29-2.77,16.69,16.69,0,0,0-2.69-7.14,49.85,49.85,0,0,0-5.78-7.59,37.8,37.8,0,0,0-7-5.89A68.6,68.6,0,0,0,514,563.9q-2.76-.78-5.59-1.42l-.6.45c-13.05,9.4-26.93,23.16-29.23,21.92-1.69-.91,2.61-11.86,10.5-25.5q-5.54-.58-11.12-.9l-26.81-.37c-.07,0-13.37.63-26.43,1.45-4.5,7.6-9.88,13.78-15.42,17.77-14.6,10.51-30.13,25.91-32.7,24.53-2-1.07,13.62-21.17,28.39-40.79-12.32,1.19-24.66,2.64-37,4.26l-26.75,3.76q-10.08,1.5-20.16,3.11-6.69,1.05-13.39,2.17c-4.59,4.6-10.05,10.29-15.74,16.74-11.42,12.95-4.29-4.84-.24-14.06q-6.93,1.17-13.85,2.37l-21.62,3.79-21.64,3.9-.26-1c20.64-7.27,41.61-13.46,62.8-18.91,5.74-9.11,12-20.47,18.95-26.83,0,0-5-9.66-10.7-14.88-7.38-6.7-13.31-8.61-13.31-8.61-12.78-.78-25.57-2.08-27.14-17.74s1.57-45.93,8.61-69.15c2-6.5,9.92-4.18,14.62-4.18s61.06,68.37,56.89,72c-2.57,2.25-21.37-11.36-36.89-24.44-9.7-8.16-18.18-18.42-20.52-17.83-4.18,1-4.18,17.74-.53,23.49s39.67,26.09,40.19,50.1a77.3,77.3,0,0,1-6.57,32.3q14.58-3.35,29.3-6.19l26.86-4.73q14.55-2.31,29.21-4,3.56-.4,7.11-.77l1.59-.16,1.72-.17c.83-1.15,1.64-2.28,2.42-3.38,0,0-.5.31-1.31.84l.52-.49s-5.55-10.8-12-16.64c-8.26-7.5-14.89-9.63-14.89-9.63-14.31-.88-28.61-2.34-30.37-19.85s1.76-51.39,9.64-77.37c2.2-7.27,11.09-4.67,16.35-4.67s68.32,76.49,63.65,80.58c-2.88,2.51-23.91-12.72-41.28-27.35-10.84-9.13-20.33-20.61-23-19.95-4.67,1.17-4.67,19.85-.58,26.27s44.38,29.2,45,56.06a81.2,81.2,0,0,1-1,14.5q10.35-.72,20.77-1,6.06-.14,12.13-.08l21,.87q5.91.47,11.83,1.23c2.87.38,5.75.82,8.63,1.35,2-2.09,4-4.09,6-6,0,0-5-9.66-10.7-14.88-7.38-6.7-13.31-8.61-13.31-8.61-12.78-.78-25.57-2.08-27.14-17.74s1.57-45.93,8.61-69.15c2-6.5,9.92-4.18,14.62-4.18s45.06,68.37,40.89,72c-2.57,2.25-7.37-4.36-22.89-17.44-9.7-8.16-16.18-25.42-18.52-24.83-4.18,1-4.18,17.74-.53,23.49s39.67,26.09,40.19,50.1a74.31,74.31,0,0,1-2.53,20.68A81.67,81.67,0,0,1,540,559.84a53.06,53.06,0,0,1,9.66,8.31,62.25,62.25,0,0,1,7.38,9.94c.56.91,1.06,1.92,1.55,2.93a32.62,32.62,0,0,1,1.34,3.18,16.31,16.31,0,0,1,.54,1.71c.17.59.35,1.16.48,1.77a24.76,24.76,0,0,1,.51,3.82A20.26,20.26,0,0,1,560.39,599.54Z"/><path class="cls-1" d="M192.16,525.4C179.83,514.2,169.92,511,169.92,511c-21.37-1.31-42.74-3.49-45.36-29.65s-.87-58.44,10.9-97.26c3.3-10.85,16.58-7,24.43-7S261.94,491.39,255,497.49c-4.3,3.76-35.7-19-61.65-40.84-16.2-13.65-30.38-30.79-34.3-29.81-7,1.75-3.49,11.34,2.62,20.94s66.29,43.61,67.16,83.73-19.19,78.5-41,94.2-45,38.7-48.85,36.63c-5.67-3.05,28.79-73.26,71.09-112.08C210,550.26,201.75,534.13,192.16,525.4Zm4.37,138.69a4,4,0,0,0,2.73-6.89c-5.32-5.09-13.9-11.06-24.55-10.56-10.93.52-16.58,6.64-19.36,11.48a4,4,0,0,0,3.46,6Zm-72-362.85a49.15,49.15,0,0,0-8.33,27.91c0,23.61,15.36,42.74,34.32,42.74,10.87,0,20.56-6.3,26.85-16.12,0,0-11.25,1.3-13.35-1.32s-.7-7,2.1-6.11c4.55,1.42,15.14-.18,15.14-.18a51.25,51.25,0,0,0,3.57-19,49.14,49.14,0,0,0-8.32-27.91c3.45-4.36-9.64-24.42-31.44-23.55S123.25,289,123.25,289s-4.36-15.7-13.08-4.36-16.57,34.89-4.36,32.27S124.52,301.24,124.52,301.24Zm423.22-28c.34-.26.69-.52,1-.76h-1Zm0,0c.34-.26.69-.52,1-.76h-1Zm50.42-.76c.35.24.7.5,1,.76v-.76Zm0,0c.35.24.7.5,1,.76v-.76Zm6.56,49.72c5.68,1.42,13.43-.19,13.43-.19a42.76,42.76,0,0,0-5.92-46.91h9.5a3.49,3.49,0,1,0,0-7H605.59V242.85c0-2.11-2-6.93-6-7.57-6.11-1-11.4,2.29-21.29,5.06-5.18,1.45-10.37,2.07-14.54,4.21-8.81,4.53-9.59,9.17-9.59,13.64v9.91H538a3.5,3.5,0,0,0-3.48,3.49,3.5,3.5,0,0,0,3.48,3.49h9.5a42.74,42.74,0,1,0,65.82,54.52s-8.59,1.3-11.21-1.32S601.23,321.3,604.72,322.18Zm1.76,341.91a4,4,0,0,0,2.73-6.89c-5.33-5.09-13.91-11.06-24.55-10.56-10.94.52-16.59,6.64-19.37,11.48a4,4,0,0,0,3.47,6ZM109.3,725.3a119.91,119.91,0,0,1-23.42-5.45c-1.87-.65-3.7-1.38-5.54-2.09s-3.61-1.52-5.36-2.41l-2.63-1.29c-.88-.43-1.72-.93-2.57-1.39-1.72-.91-3.37-1.95-5-2.94a101.44,101.44,0,0,1-18-14.33c-.71-.64-1.32-1.37-2-2s-1.32-1.37-1.94-2.09c-1.21-1.46-2.51-2.84-3.63-4.37l-1.76-2.22-1.65-2.3c-1.14-1.51-2.09-3.14-3.13-4.71a96.32,96.32,0,0,1-14.25-42,95.88,95.88,0,0,1,5.95-43.6A106.6,106.6,0,0,1,29,582a94.58,94.58,0,0,1,5.8-9.48,103.47,103.47,0,0,1,6.84-8.79l1.88-2.06.94-1,1-1,2-2c.68-.63,1.38-1.25,2.07-1.88a101.69,101.69,0,0,1,8.73-7c1.55-1,3.06-2.16,4.68-3.1l2.39-1.47,2.47-1.35c1.62-1,3.33-1.72,5-2.58s3.43-1.55,5.17-2.26,3.51-1.39,5.32-1.93l2.69-.88,2.73-.77a97,97,0,0,1,22.57-3.37l2.88-.07,2.89,0c1.93,0,3.84.18,5.78.27a104.7,104.7,0,0,1,11.5,1.64,106.34,106.34,0,0,1,43.06,19.52l.68-.74a95.06,95.06,0,0,0-41.43-27.37,98.33,98.33,0,0,0-25.13-5,111.66,111.66,0,0,0-12.94-.1c-2.15.19-4.32.32-6.47.61s-4.31.55-6.44,1A103.73,103.73,0,0,0,38.51,543c-.85.71-1.7,1.41-2.53,2.14l-2.44,2.23-1.21,1.12-1.17,1.18-2.32,2.36a103.22,103.22,0,0,0-8.45,10.2,113.35,113.35,0,0,0-7.17,11.17,103.78,103.78,0,0,0-5.67,12,113.12,113.12,0,0,0-4.17,12.63l-.77,3.24c-.25,1.08-.53,2.15-.7,3.25-.37,2.19-.8,4.36-1,6.57a105.12,105.12,0,0,0,6.47,52.12c.87,2,1.63,4.09,2.65,6l1.45,3c.51,1,1.05,1.93,1.58,2.89a97.69,97.69,0,0,0,7.08,11.08c1.35,1.72,2.62,3.5,4.07,5.14l2.12,2.49,2.23,2.39c1.47,1.61,3.1,3.07,4.65,4.58.79.75,1.63,1.43,2.44,2.15s1.62,1.45,2.48,2.1a100.16,100.16,0,0,0,22,13.51,95.85,95.85,0,0,0,24.33,7.25,90.89,90.89,0,0,0,24.91.45Zm0-124.6a32.86,32.86,0,0,1,6.75,2.55,28.77,28.77,0,0,1,5.5,3.9,28.18,28.18,0,0,1,4.07,5,25.81,25.81,0,0,1,2.48,5.61,23.94,23.94,0,0,1,.88,5.84,24.76,24.76,0,0,1-.69,5.73c-.12.46-.29.9-.42,1.36a8.17,8.17,0,0,1-.51,1.32,23.47,23.47,0,0,1-1.21,2.53,27.67,27.67,0,0,1-3.44,4.42,25.06,25.06,0,0,1-4.48,3.31,23.28,23.28,0,0,1-5.19,2,24.73,24.73,0,0,1-5.66.61,24.28,24.28,0,0,1-5.75-.88,25.41,25.41,0,0,1-5.52-2.44,27,27,0,0,1-4.93-4,28.81,28.81,0,0,1-4-5.4,35.14,35.14,0,0,1-2.72-6.7h-1a22.88,22.88,0,0,0-.53,8,26.29,26.29,0,0,0,2.38,8,29.08,29.08,0,0,0,5,7,29.66,29.66,0,0,0,7.21,5.18,30.51,30.51,0,0,0,8.65,2.73,33.32,33.32,0,0,0,4.58.27,28.43,28.43,0,0,0,4.59-.38,29.52,29.52,0,0,0,16.23-8.48,35,35,0,0,0,3-3.56,32.63,32.63,0,0,0,2.42-3.95,30.7,30.7,0,0,0,2.85-8.76,31.19,31.19,0,0,0,0-9.1,30.78,30.78,0,0,0-2.72-8.56,29.84,29.84,0,0,0-5.15-7.13,28.82,28.82,0,0,0-6.93-5,26.31,26.31,0,0,0-7.92-2.44,23.59,23.59,0,0,0-7.93.37Zm604.5-73a115.76,115.76,0,0,1,19.86,9A105.81,105.81,0,0,1,751,549.06l2,1.76,1.88,1.83c1.28,1.2,2.45,2.51,3.66,3.75a98.72,98.72,0,0,1,23.79,44.82,97.56,97.56,0,0,1,2.4,19.95,93.93,93.93,0,0,1-1.76,19.9,90.86,90.86,0,0,1-5.81,19,88,88,0,0,1-9.66,17.29,97,97,0,0,1-13,15,99.08,99.08,0,0,1-33.87,20.78,101.41,101.41,0,0,1-19.67,5l-2.54.36-2.56.25c-1.71.21-3.43.31-5.15.42-.86.06-1.72,0-2.59.08s-1.73.05-2.59,0h-2.61l-2.6-.1a115.23,115.23,0,0,1-41.49-10.25l-.55.84a88.68,88.68,0,0,0,40.41,20.81,96.44,96.44,0,0,0,23.4,2.41,101,101,0,0,0,23.64-3.17,103.92,103.92,0,0,0,42.24-22.6,106.56,106.56,0,0,0,27.76-39.37,106.79,106.79,0,0,0,7.46-47.44,109,109,0,0,0-4.46-23.58A103.79,103.79,0,0,0,789,575a101.75,101.75,0,0,0-14.27-18.78,104.05,104.05,0,0,0-8.59-8,99.27,99.27,0,0,0-9.41-6.83q-1.2-.81-2.46-1.53l-2.48-1.48c-1.71-.89-3.38-1.84-5.12-2.65l-2.6-1.23c-.87-.4-1.76-.75-2.64-1.12-1.75-.77-3.56-1.38-5.34-2A91.49,91.49,0,0,0,714,526.73Zm2,86.54A32.42,32.42,0,0,1,714,625.11a23.88,23.88,0,0,1-4.51,7.66,22.45,22.45,0,0,1-5.87,4.79,21,21,0,0,1-6.45,2.27,22,22,0,0,1-6.63.12,27.72,27.72,0,0,1-6.83-1.75,27.37,27.37,0,0,1-7.31-4.31,37.74,37.74,0,0,1-7.47-8.4h-1a19.25,19.25,0,0,0-2.36,13.66,25.57,25.57,0,0,0,6.87,13.32A29.15,29.15,0,0,0,686,660.42a31.11,31.11,0,0,0,16-.11,32,32,0,0,0,13.85-7.77,30.29,30.29,0,0,0,7.94-13.13c2.93-9.71-.09-20.4-7.13-25.61Zm-40-44.75c-6.15-15.14-12.4-30.22-18.37-45.36-3-7.56-5.88-15.16-8.58-22.75-1.34-3.79-2.59-7.61-3.71-11.38-.56-1.89-1.07-3.77-1.48-5.6-.2-.91-.38-1.81-.51-2.66-.08-.6-.15-1.19-.18-1.69l-.42.24-.54.33-.27.16-.08,0a.8.8,0,0,1,.18-.14,3.64,3.64,0,0,0,.65-.66,2.69,2.69,0,0,0,.33-.51,2.33,2.33,0,0,0,.16-.41,2.57,2.57,0,0,0,0,.4,5.25,5.25,0,0,0,0,.54,8,8,0,0,1,.71-.38l1.18-.6,1.23-.55c.81-.4,1.68-.72,2.54-1.06a70.54,70.54,0,0,1,7.58-2.42c6.31,3.67,10.8,5.39,12.24,4.13.82-.72.24-2.95-1.45-6.32a98.84,98.84,0,0,1,16.14-1.05l.27-1a38.34,38.34,0,0,0-12.09-4.28,52,52,0,0,0-8.45-.89c-19.88-31.62-83.12-106.87-89.49-106.87-7.85,0-21.13-3.87-24.42,7-11.78,38.81-17,89.4-14.4,115.57s24,28.34,45.36,29.65c0,0,9.91,3.19,22.24,14.39,9.6,8.73,17.88,24.86,17.88,24.86-42.3,38.82-76.75,109-71.08,112.08,3.84,2.07,27-20.93,48.84-36.63s41.87-54.08,41-94.2-61.05-74.14-67.16-83.73-6.1-37.51.88-39.25c3.91-1,18.09,16.16,34.29,29.8,12.82,10.8,27,21.81,38.52,29.74-1,.34-2.08.67-3.12,1.09-.54.21-1.07.42-1.59.65l-1.58.76a16.85,16.85,0,0,0-1.56.83l-.78.45-.39.22a5,5,0,0,0-.75.51,6.45,6.45,0,0,0-1.2,1.19,7.72,7.72,0,0,0-1.38,3,11.81,11.81,0,0,0-.27,2.63,23.28,23.28,0,0,0,.33,3.87c.18,1.17.41,2.28.66,3.36.49,2.16,1.07,4.22,1.68,6.25,1.23,4.06,2.64,8,4.08,11.88,2.89,7.78,6.09,15.37,9.36,22.92q9.88,22.59,21.1,44.48c1.86,3.65,3.7,7.31,5.6,10.94L681.22,594c3.89,7.21,7.86,14.39,12,21.46l.9-.44C688.16,599.76,682,584.61,675.74,569.5Zm-32.82-90.38a2.33,2.33,0,0,1-.16.41,2.69,2.69,0,0,1-.33.51,3.64,3.64,0,0,1-.65.66.8.8,0,0,0-.18.14l.08,0,.27-.16.54-.33.42-.24a5.25,5.25,0,0,1,0-.54A2.57,2.57,0,0,1,642.92,479.12ZM235.42,14.74Q208.09.09,167.27.08q-35.67,0-64.7,15.53T52.83,59.31q-20.7,28.18-32.2,67.86T9.12,214.58q0,47.16,11.51,86.55T52.83,369q20.7,28.45,49.74,44.27a124,124,0,0,0,15.23,7,295.33,295.33,0,0,1,9-38.8,20,20,0,0,1,3.34-6.57,44.64,44.64,0,0,1-11-9.91c-7.75-9.66-12-22.4-12-35.86,0-1.11,0-2.22.09-3.32a17.19,17.19,0,0,1-3.22.31,12.93,12.93,0,0,1-11.89-7.27c-5.74-11.66,5.06-32.14,10.86-39.69a24.17,24.17,0,0,1,4.58-4.62q-1.36-5.1-2.45-10.52a251.85,251.85,0,0,1-4.6-49.46,256.24,256.24,0,0,1,4.6-49.74q4.61-23.29,14.09-40.26t23-26.74q13.51-9.77,31.92-9.78,19.54,0,32.49,8.06A79,79,0,0,1,220,106.65q1.2-15.78,7.35-27.41a72.59,72.59,0,0,1,19.55-23.79,79.12,79.12,0,0,1,24.86-13.2A139.55,139.55,0,0,0,235.42,14.74ZM718,282.61l68.39-124.35H691L641.28,267.59h-1V.55H558.9V236.92l.71-.38a48.53,48.53,0,0,1,11.66-3.75c1.59-.36,3.1-.7,4.56-1.11,2.86-.8,5.29-1.65,7.64-2.46,4.61-1.6,9-3.11,13.86-3.11a23,23,0,0,1,3.62.28c8.9,1.4,13.64,10.46,13.64,16.46V259.1h7.14a12.48,12.48,0,0,1,8.83,21.31,12.7,12.7,0,0,1-3.11,2.28,51.85,51.85,0,0,1,1.92,35.37l5.27-.79-14.3,17.94a51.44,51.44,0,0,1-37.05,19.4,174.84,174.84,0,0,1,13.41,13.45c8.63,9.35,19.57,22,30.8,35.72,2.81,3.42,7.42,9.09,12.74,15.82V304.89h1l52.85,124.35h93.78Zm-167.73-178V211H486.58V192.45h-.76q-3,9.48-13.45,17.05t-27.47,7.58A68.44,68.44,0,0,1,426,214.24a46.32,46.32,0,0,1-18-10q-8.16-7.2-13.64-19.32t-5.5-30.69c0-.69,0-1.37,0-2q.36-19.11,7.56-32.06A59.62,59.62,0,0,1,416.3,98.5a77.3,77.3,0,0,1,7.24-4.14,82.91,82.91,0,0,1,20.23-7,145.85,145.85,0,0,1,30.31-3.22h6.44V79.93q0-14.78-16.67-14.77a41.08,41.08,0,0,0-19.32,4.54C440.05,72,426.73,80.49,419,88.36a3.25,3.25,0,0,0-.23-.29c-8.51-11-17.79-23-30.79-30a131,131,0,0,0-14-6C386.92,30.13,416,14,429.37,8.52A108.5,108.5,0,0,1,470.67,0q23.86,0,39.4,7.38a58.5,58.5,0,0,1,24.43,21q8.89,13.64,12.32,33A250,250,0,0,1,550.23,104.56Zm-67.44,25.76H476q-23.12,0-23.11,17.05,0,6.45,3.22,9.85a11.18,11.18,0,0,0,8.52,3.41q8.72,0,13.45-6.25t4.74-16.1ZM697,52.16q7.82-8.61,7.82-21.11a32,32,0,0,0-2.09-11.47A30,30,0,0,0,697,10.07a28,28,0,0,0-8.86-6.51,27.74,27.74,0,0,0-22.93,0,27.87,27.87,0,0,0-8.86,6.51,29.64,29.64,0,0,0-5.73,9.51,31.73,31.73,0,0,0-2.09,11.47q0,12.51,7.82,21.11t20.33,8.59Q689.21,60.75,697,52.16Zm-46.65,95.35H703V68.57H650.39Zm164.94-129a63.64,63.64,0,0,0-23.14-13.5A85,85,0,0,0,764.92.55a58.66,58.66,0,0,0-17.1,2.7,50.65,50.65,0,0,0-16.46,8.61A46.22,46.22,0,0,0,718.89,27Q714,36.3,714,49.67q0,10,3,17a37.83,37.83,0,0,0,7.58,11.7A39.63,39.63,0,0,0,735,86.06a58.5,58.5,0,0,0,11.45,4.5q10.8,3.09,14.79,5c2.65,1.29,4,3,4,5.27a4.94,4.94,0,0,1-2.31,4.37,10.48,10.48,0,0,1-5.92,1.55,28.07,28.07,0,0,1-13.24-3.47A57.45,57.45,0,0,1,731,93.91l-24.69,33.43a71.82,71.82,0,0,0,25.08,14.53,88.82,88.82,0,0,0,29.19,5A63.66,63.66,0,0,0,777,144.45a49.44,49.44,0,0,0,16.72-8.23,48.64,48.64,0,0,0,13-15Q812,111.92,812,98a39.14,39.14,0,0,0-11.44-29.19,42.35,42.35,0,0,0-11.32-8.1,74.69,74.69,0,0,0-12.73-4.89q-10-2.56-12.86-4t-2.83-4a5.2,5.2,0,0,1,2.44-4.5,9.59,9.59,0,0,1,5.53-1.67,25.83,25.83,0,0,1,11.45,2.7,58,58,0,0,1,10.93,7.07ZM388.54,75.93a99.84,99.84,0,0,0-36.28-21.16,133.13,133.13,0,0,0-42.72-7.05A92,92,0,0,0,282.73,52a79.11,79.11,0,0,0-25.8,13.5,72.59,72.59,0,0,0-19.55,23.79q-7.66,14.51-7.66,35.47,0,15.72,4.64,26.6a59.12,59.12,0,0,0,11.89,18.34,61.92,61.92,0,0,0,16.33,12.1,93.23,93.23,0,0,0,17.93,7.05q16.94,4.84,23.18,7.86t6.25,8.26a7.78,7.78,0,0,1-3.63,6.86A16.42,16.42,0,0,1,297,214.2a44,44,0,0,1-20.76-5.44A89.5,89.5,0,0,1,256.33,194l-38.7,52.4a112.75,112.75,0,0,0,39.3,22.78,139.46,139.46,0,0,0,45.76,7.86,99.37,99.37,0,0,0,25.79-3.83,77.05,77.05,0,0,0,26.2-12.9A76.06,76.06,0,0,0,375,236.77q8.26-14.52,8.26-36.28,0-15.72-5-26.81a64.13,64.13,0,0,0-12.9-18.94A66.17,66.17,0,0,0,347.63,142a118.72,118.72,0,0,0-19.95-7.66q-15.72-4-20.16-6.25c-3-1.47-4.43-3.55-4.43-6.24a8.13,8.13,0,0,1,3.83-7.06,15,15,0,0,1,8.66-2.62,40.33,40.33,0,0,1,17.94,4.24c5.78,2.82,21.47,11.63,38.08,29.72a101.78,101.78,0,0,1,7.86,9.79,103.92,103.92,0,0,1-.63-11.77q0-20.46,7.58-34.1a60.14,60.14,0,0,1,16.71-19.38A186.56,186.56,0,0,0,388.54,75.93Z"/></g></g></svg>