<?xml version="1.0" encoding="utf-8"?>
<!-- Generator: Adobe Illustrator 23.0.2, SVG Export Plug-In . SVG Version: 6.00 Build 0)  -->
<svg version="1.1" id="Layer_1" xmlns="http://www.w3.org/2000/svg" xmlns:xlink="http://www.w3.org/1999/xlink" x="0px" y="0px"
	 viewBox="0 0 816.3 733.8" style="enable-background:new 0 0 816.3 733.8;" xml:space="preserve">
<style type="text/css">
	.st0{fill:#FFFFFF;}
	.st1{fill:#313A5C;}
	.st2{fill:#56A3A0;}
	.st3{fill:#38906C;}
	.st4{fill:#EE7858;}
	.st5{fill:#E4B254;}
	.st6{fill:#07595B;}
</style>
<circle class="st0" cx="412" cy="363.5" r="361.5"/>
<title>colored</title>
<g>
	<g id="Layer_1-2">
		<path class="st1" d="M109.3,726.2c-8.3,1-16.7,0.8-24.9-0.5c-8.4-1.3-16.6-3.8-24.3-7.2c-7.9-3.5-15.3-8.1-22-13.5
			c-0.9-0.7-1.7-1.4-2.5-2.1s-1.7-1.4-2.4-2.2c-1.5-1.5-3.2-3-4.6-4.6l-2.2-2.4l-2.1-2.5c-1.5-1.6-2.7-3.4-4.1-5.1
			c-2.6-3.5-5-7.2-7.1-11.1c-0.5-1-1.1-1.9-1.6-2.9l-1.4-3c-1-2-1.8-4-2.7-6c-6.5-16.5-8.7-34.5-6.4-52.1c0.2-2.2,0.7-4.4,1-6.6
			c0.2-1.1,0.4-2.2,0.7-3.2l0.8-3.2c1.1-4.3,2.5-8.5,4.2-12.6c1.6-4.1,3.5-8.1,5.7-12c2.2-3.9,4.6-7.6,7.2-11.2
			c2.6-3.6,5.4-7,8.5-10.2l2.3-2.4l1.2-1.2l1.2-1.1l2.5-2.3c0.8-0.7,1.7-1.4,2.5-2.1c13.6-11.2,29.8-18.9,47.1-22.1
			c2.1-0.5,4.3-0.7,6.4-1s4.3-0.4,6.5-0.6c4.3-0.2,8.6-0.2,12.9,0.1c8.6,0.5,17,2.2,25.1,5c16,5.3,30.3,14.7,41.4,27.4l-0.7,0.7
			c-12.7-9.7-27.4-16.3-43.1-19.5c-3.8-0.8-7.6-1.3-11.5-1.6c-1.9-0.1-3.8-0.3-5.8-0.3l-2.9,0l-2.9,0.1c-7.6,0.2-15.2,1.4-22.6,3.4
			l-2.7,0.8l-2.7,0.9c-1.8,0.5-3.6,1.3-5.3,1.9s-3.5,1.5-5.2,2.3s-3.4,1.6-5,2.6l-2.5,1.3l-2.4,1.5c-1.6,0.9-3.1,2.1-4.7,3.1
			c-3,2.2-6,4.5-8.7,7c-0.7,0.6-1.4,1.2-2.1,1.9l-2,2l-1,1l-0.9,1l-1.9,2.1c-2.4,2.8-4.7,5.7-6.8,8.8c-2.1,3-4.1,6.2-5.8,9.5
			c-1.7,3.3-3.2,6.7-4.6,10.1c-5.3,13.9-7.4,28.8-5.9,43.6c1.4,14.9,6.3,29.3,14.2,42c1,1.6,2,3.2,3.1,4.7l1.7,2.3l1.8,2.2
			c1.1,1.5,2.4,2.9,3.6,4.4c0.6,0.7,1.3,1.4,1.9,2.1s1.3,1.4,2,2c5.4,5.4,11.5,10.3,18,14.3c1.7,1,3.3,2,5,2.9
			c0.8,0.5,1.7,1,2.6,1.4l2.6,1.3c1.8,0.9,3.6,1.6,5.4,2.4s3.7,1.4,5.5,2.1c7.6,2.6,15.5,4.4,23.4,5.5L109.3,726.2z"/>
		<path class="st1" d="M109.3,599.6c2.6-0.6,5.3-0.7,7.9-0.4c2.8,0.4,5.4,1.2,7.9,2.4c2.5,1.3,4.9,3,6.9,5c2.1,2.1,3.8,4.5,5.1,7.1
			c1.3,2.7,2.3,5.6,2.8,8.6c0.4,3,0.4,6.1,0,9.1c-0.5,3-1.5,6-2.9,8.8c-0.7,1.4-1.5,2.7-2.4,4c-0.9,1.3-1.9,2.4-3,3.6
			c-4.4,4.5-10.1,7.4-16.2,8.5c-1.5,0.3-3.1,0.4-4.6,0.4c-1.5,0-3.1-0.1-4.6-0.3c-3-0.5-5.9-1.4-8.7-2.7c-2.6-1.4-5.1-3.1-7.2-5.2
			c-2-2.1-3.7-4.4-5-7c-1.2-2.5-2-5.2-2.4-8c-0.3-2.7-0.1-5.4,0.5-8h1c0.7,2.3,1.6,4.6,2.7,6.7c1.1,1.9,2.5,3.8,4,5.4
			c1.5,1.5,3.1,2.9,4.9,4c1.7,1,3.6,1.8,5.5,2.4c1.9,0.5,3.8,0.8,5.8,0.9c1.9,0,3.8-0.2,5.7-0.6c1.8-0.5,3.5-1.2,5.2-2
			c1.6-0.9,3.1-2,4.5-3.3c1.3-1.4,2.4-2.8,3.4-4.4c0.5-0.8,0.9-1.7,1.2-2.5c0.2-0.4,0.4-0.9,0.5-1.3c0.1-0.5,0.3-0.9,0.4-1.4
			c0.5-1.9,0.7-3.8,0.7-5.7c-0.1-2-0.3-3.9-0.9-5.8c-0.6-2-1.4-3.8-2.5-5.6c-1.2-1.8-2.5-3.5-4.1-5c-1.7-1.5-3.5-2.8-5.5-3.9
			c-2.1-1.1-4.4-2-6.8-2.5L109.3,599.6z"/>
		<path class="st1" d="M716,527.7c7.5,0.6,14.9,2.2,22.1,4.6c1.8,0.7,3.6,1.3,5.3,2c0.9,0.4,1.8,0.7,2.6,1.1l2.6,1.2
			c1.7,0.8,3.4,1.8,5.1,2.7l2.5,1.5c0.8,0.5,1.7,1,2.5,1.5c3.3,2.1,6.4,4.4,9.4,6.8c3,2.5,5.9,5.2,8.6,8c5.5,5.7,10.3,12,14.3,18.8
			c4.1,6.9,7.3,14.2,9.7,21.8c2.4,7.7,3.8,15.6,4.5,23.6c1.1,16.2-1.4,32.4-7.5,47.4c-6.1,15.1-15.6,28.5-27.8,39.3
			c-12.1,10.7-26.6,18.5-42.2,22.6c-7.7,2-15.7,3.1-23.7,3.2c-7.9,0.2-15.7-0.7-23.4-2.4c-15-3.3-29-10.5-40.4-20.8l0.5-0.8
			c13.1,6,27.1,9.5,41.5,10.2l2.6,0.1h2.6c0.9,0,1.7,0,2.6,0s1.7,0,2.6-0.1c1.7-0.1,3.4-0.2,5.2-0.4l2.6-0.2l2.5-0.4
			c6.7-1,13.3-2.7,19.7-5c12.6-4.6,24.1-11.6,33.9-20.8c4.8-4.5,9.2-9.6,13-15c3.9-5.4,7.1-11.1,9.7-17.2c2.6-6.1,4.6-12.5,5.8-19
			c1.3-6.6,1.9-13.2,1.8-19.9c-0.1-6.7-0.9-13.4-2.4-20c-4-16.7-12.2-32.2-23.8-44.8c-1.2-1.2-2.4-2.5-3.7-3.8l-1.9-1.8L753,550
			c-5.3-4.7-11.1-8.9-17.3-12.4c-6.3-3.6-13-6.6-19.9-9L716,527.7z"/>
		<path class="st1" d="M715.7,614.7c7,5.2,10.1,15.9,7.1,25.6c-1.5,5-4.2,9.5-7.9,13.1c-3.9,3.7-8.7,6.4-13.9,7.8
			c-5.2,1.4-10.7,1.5-16,0.1c-5.2-1.4-9.9-4.1-13.6-8c-3.6-3.7-6-8.3-6.9-13.3c-0.9-4.7-0.1-9.6,2.4-13.7h1c2.1,3.2,4.6,6,7.5,8.4
			c2.2,1.8,4.7,3.3,7.3,4.3c2.2,0.9,4.5,1.5,6.8,1.8c2.2,0.3,4.4,0.3,6.6-0.1c2.3-0.4,4.4-1.2,6.5-2.3c2.2-1.3,4.2-2.9,5.9-4.8
			c2-2.2,3.5-4.8,4.6-7.6c1.2-3.5,1.8-7.2,1.8-10.9L715.7,614.7z"/>
		<path class="st1" d="M236.4,589.8c27.8-9.6,56.1-17.7,84.7-24.3c28.7-6.7,57.8-11.8,87-15.3c14.7-1.7,29.5-2.8,44.4-3.2
			c15-0.5,30.1,0.2,45,2c7.6,1,15.2,2.5,22.6,4.6c7.7,2.2,15.1,5.5,21.9,9.9c3.5,2.4,6.8,5.2,9.7,8.3c2.8,3.1,5.3,6.4,7.4,9.9
			c0.6,0.9,1.1,1.9,1.5,2.9c0.5,1,0.9,2.1,1.3,3.2c0.2,0.5,0.4,1.1,0.5,1.7s0.3,1.2,0.5,1.8c0.3,1.3,0.4,2.5,0.5,3.8
			c0.2,2.7-0.2,5.4-1.1,8c-0.2,0.7-0.5,1.3-0.7,1.9c-0.3,0.6-0.6,1.2-0.9,1.8s-0.7,1.1-1.1,1.7l-0.5,0.8l-0.6,0.7
			c-1.5,1.8-3.3,3.5-5.2,4.9c-1.8,1.3-3.6,2.4-5.5,3.4c-3.6,1.9-7.4,3.4-11.2,4.6c-7.3,2.3-14.8,4-22.4,5.1
			c-14.7,2.2-29.5,3.5-44.4,4c-14.8,0.6-29.5,0.8-44.2,0.7s-29.3-0.2-44-0.5s-29.2-0.3-43.9-0.5s-29.3-0.5-43.9-0.8
			s-29.3-0.8-43.9-1.2c-7.3-0.2-14.7-0.5-22-0.8c-7.3-0.3-14.6-0.6-21.9-0.9v-1l175.6-4.5l43.9-0.9c14.6-0.4,29.1-0.9,43.6-1.9
			s28.9-2.3,42.9-4.7c6.9-1.2,13.7-2.8,20.3-5c3.1-1,6.1-2.3,9-3.9c1.3-0.7,2.6-1.5,3.7-2.4c1-0.8,1.9-1.7,2.7-2.7
			c0.7-0.8,1.1-1.7,1.5-2.6c0.3-0.9,0.4-1.8,0.3-2.8c-0.3-2.6-1.3-5-2.7-7.1c-1.7-2.7-3.6-5.3-5.8-7.6c-2.1-2.2-4.4-4.2-7-5.9
			c-5.6-3.4-11.7-6-18-7.7c-6.7-1.8-13.5-3.2-20.4-4c-14.2-1.7-28.4-2.3-42.7-1.8c-14.4,0.3-28.8,1.4-43.2,2.7
			c-28.9,2.7-57.7,6.8-86.5,11.4c-14.4,2.3-28.8,4.7-43.2,7.2l-21.6,3.8l-21.6,3.9L236.4,589.8z"/>
		<path class="st1" d="M692.2,615.4c-4.2-7.1-8.1-14.2-12-21.5l-5.8-10.9c-1.9-3.6-3.7-7.3-5.6-10.9c-7.4-14.6-14.5-29.4-21.1-44.5
			c-3.3-7.5-6.5-15.1-9.3-22.9c-1.5-3.9-2.9-7.8-4.1-11.9c-0.6-2-1.2-4.1-1.7-6.2c-0.2-1.1-0.5-2.2-0.7-3.4
			c-0.2-1.3-0.3-2.6-0.3-3.9c0-0.9,0.1-1.8,0.3-2.6c0.1-0.7,0.4-1.3,0.7-1.9c0.2-0.4,0.5-0.8,0.7-1.2c0.3-0.4,0.7-0.9,1.2-1.2
			c0.2-0.2,0.5-0.4,0.8-0.5l0.4-0.2l0.8-0.5c0.5-0.3,1-0.6,1.6-0.8l1.6-0.8c0.5-0.2,1-0.4,1.6-0.6c1.1-0.4,2.1-0.8,3.2-1.1
			c4.2-1.3,8.6-2.1,13-2.3c4.4-0.3,8.7,0,13,0.8c4.2,0.7,8.3,2.2,12.1,4.3l-0.3,1c-7.9-0.1-15.9,0.7-23.6,2.4
			c-3.7,0.8-7.3,1.9-10.9,3.2c-0.9,0.3-1.7,0.7-2.5,1.1l-1.2,0.5l-1.2,0.6c-0.4,0.2-0.8,0.4-1.1,0.6l-0.5,0.3l-0.3,0.2
			c0,0-0.3,0.2,0.1-0.1c0.2-0.2,0.5-0.4,0.7-0.7c0.1-0.2,0.2-0.3,0.3-0.5c0.1-0.1,0.1-0.3,0.2-0.4c0,0.1,0,0.3,0,0.4
			c0,0.7,0.1,1.5,0.2,2.2c0.1,0.9,0.3,1.8,0.5,2.7c0.4,1.8,0.9,3.7,1.5,5.6c1.1,3.8,2.4,7.6,3.7,11.4c2.7,7.6,5.6,15.2,8.6,22.8
			c6,15.1,12.2,30.2,18.4,45.4s12.4,30.3,18.4,45.5L692.2,615.4z"/>
		<path class="st2" d="M326.8,287.6c-8.6,25.9-22.8,60.7-42.8,86.2c-11.1,15.7-25.7,28.9-43.7,39.4s-41,15.8-69,15.8
			c-23.8,0-45.3-5.3-64.7-15.8c-19.4-10.5-35.9-25.3-49.7-44.3c-13.8-19-24.5-41.6-32.2-67.9s-11.5-55.1-11.5-86.5
			c0-31.8,3.8-61,11.5-87.4S43,78,56.8,59.2c13.8-18.8,30.4-33.3,49.7-43.7S147.5,0,171.3,0c27.2,0,49.9,4.9,68.2,14.7
			c13.5,7.1,25.8,16.4,36.4,27.5c-9,2.9-17.4,7.3-24.9,13.2c-8.1,6.4-14.8,14.6-19.6,23.8c-4.1,7.8-6.6,16.9-7.4,27.4
			c-4.1-4-8.5-7.5-13.4-10.6c-8.6-5.3-19.5-8-32.5-8c-12.3,0-22.9,3.3-31.9,9.8s-16.7,15.4-23,26.7c-6.3,11.3-11,24.8-14.1,40.3
			c-3.1,16.4-4.7,33-4.6,49.7c-0.1,16.6,1.4,33.2,4.6,49.5c3.1,15.3,7.8,28.8,14.1,40.2c6.3,11.5,14.1,20.5,23.3,27
			c9.2,6.5,19.9,9.8,32.2,9.8c12.3,0,23-3.1,32.2-9.2c8.7-5.6,16.2-13.1,21.9-21.8c5.8-9.7,10.7-19.9,14.6-30.5
			c3.1,1.3,6.2,2.6,9.5,3.7c14.7,5.1,30.2,7.8,45.8,7.8C310.8,290.9,318.9,289.7,326.8,287.6z"/>
		<path class="st1" d="M695.1,430.2l-52.8-124.4h-1v124.4h-81.4V1.5h81.3v267h1L692,159.2h95.3L719,283.5l70,146.6H695.1z"/>
		<path class="st3" d="M547.8,62.3c-2.3-12.9-6.4-23.8-12.3-33c-6-9.1-14.5-16.4-24.4-21c-10.4-4.9-23.5-7.4-39.4-7.4
			c-14.2,0.1-28.2,3-41.3,8.5C417,14.9,387.9,31,375,53c4.8,1.7,9.5,3.7,14,6c13,7,22.3,19,30.8,30c0.1,0.1,0.2,0.2,0.2,0.3
			c7.7-7.9,21-16.3,25.5-18.7c6-3.1,12.6-4.6,19.3-4.5c11.1,0,16.7,4.9,16.7,14.8V85h-6.4c-10.2,0-20.3,1.1-30.3,3.2
			c-7,1.4-13.8,3.8-20.2,7c-2.5,1.2-4.9,2.6-7.2,4.1c-8.3,5.4-15.2,12.9-19.9,21.6c-4.8,8.6-7.3,19.3-7.6,32.1c0,0.7,0,1.4,0,2
			c0,12.4,1.8,22.6,5.5,30.7c3.7,8.1,8.2,14.5,13.6,19.4c5.2,4.6,11.3,8.1,18,10c6.1,1.8,12.5,2.8,18.9,2.9
			c11.4,0,20.5-2.5,27.5-7.6c6.9-5.1,11.4-10.7,13.5-17h0.8V212h63.7V105.5C551.3,91,550.2,76.6,547.8,62.3z M483.8,139.2
			c0,6.6-1.6,11.9-4.7,16.1c-3.2,4.2-7.6,6.2-13.5,6.2c-3.2,0.1-6.3-1.1-8.5-3.4c-2.1-2.3-3.2-5.6-3.2-9.9c0-11.4,7.7-17,23.1-17
			h6.8V139.2z"/>
		<path class="st4" d="M677.7,61.7c-8.3,0-15.1-2.9-20.3-8.6c-5.2-5.7-7.8-12.8-7.8-21.1c0-3.9,0.7-7.8,2.1-11.5
			c1.3-3.5,3.2-6.7,5.7-9.5c2.5-2.7,5.5-4.9,8.9-6.5c7.3-3.3,15.6-3.3,22.9,0c3.3,1.6,6.3,3.8,8.8,6.5c2.5,2.8,4.4,6,5.7,9.5
			c1.4,3.7,2.1,7.6,2.1,11.5c0,8.3-2.6,15.4-7.8,21.1C692.8,58.8,686.1,61.7,677.7,61.7z M651.4,69.5H704v78.9h-52.6L651.4,69.5z"/>
		<path class="st5" d="M792.2,52.4c-3.4-2.8-7-5.1-10.9-7.1c-3.6-1.8-7.5-2.7-11.5-2.7c-2,0-3.9,0.6-5.5,1.7c-1.5,1-2.5,2.7-2.4,4.5
			c0,1.7,0.9,3.1,2.8,4c1.9,0.9,6.2,2.3,12.9,4c4.4,1.2,8.6,2.9,12.7,4.9c4.2,2.1,8,4.8,11.3,8.1c7.7,7.7,11.9,18.3,11.5,29.2
			c0,9.3-1.8,17-5.3,23.2c-3.3,5.8-7.7,10.9-13,15c-5,3.8-10.7,6.6-16.7,8.3c-5.4,1.5-10.9,2.4-16.5,2.4c-9.9,0-19.8-1.7-29.2-5
			c-9.3-3.1-17.8-8-25.1-14.5L732,94.8c3.8,3.7,8.1,6.9,12.7,9.4c4.1,2.2,8.6,3.4,13.3,3.5c2.1,0.1,4.1-0.5,5.9-1.6
			c1.5-0.9,2.4-2.6,2.3-4.4c0-2.2-1.3-4-4-5.3s-7.6-3-14.8-5c-4-1.1-7.8-2.6-11.4-4.5c-3.9-2-7.4-4.6-10.4-7.7
			c-3.2-3.4-5.8-7.4-7.6-11.7c-2-4.6-3-10.3-3-17c0-8.9,1.6-16.5,4.9-22.6c3-5.9,7.3-11.1,12.5-15.2c4.9-3.9,10.5-6.8,16.5-8.6
			c5.5-1.7,11.3-2.7,17.1-2.7c9.3,0,18.5,1.6,27.3,4.5c8.6,2.8,16.5,7.4,23.1,13.5"/>
		<path class="st5" d="M404.1,91.6c-6.9,5.2-12.6,11.8-16.7,19.4c-5.1,9.1-7.6,20.5-7.6,34.1c0,3.9,0.2,7.9,0.6,11.8
			c-2.4-3.4-5-6.7-7.9-9.8c-16.6-18.1-32.3-26.9-38.1-29.7c-5.6-2.8-11.7-4.2-17.9-4.2c-3.1,0-6.1,0.9-8.7,2.6
			c-2.4,1.5-3.9,4.2-3.8,7.1c0,2.7,1.5,4.8,4.4,6.2s9.7,3.6,20.2,6.2c6.9,2,13.5,4.5,20,7.7c6.6,3.2,12.6,7.5,17.7,12.7
			c5.4,5.5,9.8,11.9,12.9,18.9c3.3,7.4,5,16.3,5,26.8c0,14.5-2.8,26.6-8.3,36.3c-5.1,9.2-12,17.2-20.4,23.6
			c-7.8,5.9-16.7,10.3-26.2,12.9c-8.4,2.4-17,3.7-25.8,3.8c-15.6,0-31.1-2.7-45.8-7.9c-14.5-4.8-27.9-12.6-39.3-22.8l38.7-52.4
			c5.9,5.8,12.6,10.8,20,14.7c6.4,3.5,13.5,5.4,20.7,5.4c3.3,0.1,6.5-0.7,9.3-2.4c2.3-1.5,3.7-4.1,3.6-6.9c0-3.5-2.1-6.2-6.2-8.3
			c-4.2-2-11.9-4.6-23.2-7.9c-6.2-1.7-12.2-4.1-17.9-7.1c-6.1-3.1-11.6-7.2-16.3-12.1c-5.1-5.3-9.1-11.5-11.9-18.3
			c-3.1-7.2-4.6-16.1-4.6-26.6c0-14,2.6-25.8,7.7-35.5c4.7-9.2,11.4-17.3,19.6-23.8c7.7-6.1,16.4-10.6,25.8-13.5
			c8.7-2.7,17.7-4.2,26.8-4.2c14.5,0,29,2.4,42.7,7c13.5,4.4,25.8,11.6,36.3,21.2C394.6,81.5,399.5,86.4,404.1,91.6z"/>
		<path class="st6" d="M546.7,273.4h1c-0.3,0.2-0.7,0.5-1,0.8V273.4z"/>
		<path class="st6" d="M546.7,273.4h1c-0.3,0.2-0.7,0.5-1,0.8V273.4z"/>
		<path class="st6" d="M598.2,273.4v0.8c-0.3-0.3-0.7-0.5-1-0.8H598.2z"/>
		<path class="st6" d="M598.2,273.4v0.8c-0.3-0.3-0.7-0.5-1-0.8H598.2z"/>
		<path class="st2" d="M603.7,323.1c5.7,1.4,13.4-0.2,13.4-0.2c7.6-15.4,5.3-33.9-5.9-46.9h9.5c1.9,0,3.5-1.6,3.5-3.5
			s-1.6-3.5-3.5-3.5h-16.1v-25.2c0-2.1-2-6.9-6-7.6c-6.1-1-11.4,2.3-21.3,5.1c-5.2,1.4-10.4,2.1-14.5,4.2c-8.8,4.5-9.6,9.2-9.6,13.6
			v9.9H537c-1.9,0-3.5,1.6-3.5,3.5c0,1.9,1.6,3.5,3.5,3.5h9.5c-15.4,17.9-13.3,44.9,4.6,60.3s44.9,13.3,60.3-4.6
			c0.3-0.4,0.6-0.7,0.9-1.1c0,0-8.6,1.3-11.2-1.3S600.2,322.2,603.7,323.1z"/>
		<path class="st2" d="M601.1,526.3c-12.3-11.2-22.2-14.4-22.2-14.4c-21.4-1.3-42.7-3.5-45.3-29.6s2.6-76.8,14.4-115.6
			c3.3-10.9,16.6-7,24.4-7s102,114.3,95.1,120.4c-4.3,3.8-35.7-19-61.7-40.9c-16.2-13.6-30.4-30.8-34.3-29.8c-7,1.7-7,29.6-0.9,39.2
			s66.3,43.6,67.2,83.7s-19.2,78.5-41,94.2s-45,38.7-48.8,36.6c-5.7-3,28.8-73.3,71.1-112.1C619,551.2,610.7,535,601.1,526.3z"/>
		<path class="st2" d="M567.8,665c-2.2,0-4-1.8-4-4c0-0.7,0.2-1.4,0.5-2c2.8-4.8,8.4-11,19.4-11.5c10.6-0.5,19.2,5.5,24.5,10.6
			c1.6,1.5,1.7,4.1,0.1,5.7c-0.7,0.8-1.8,1.2-2.9,1.2L567.8,665z"/>
		<path class="st1" d="M192.2,526.3c-12.3-11.2-22.2-14.4-22.2-14.4c-21.4-1.3-42.7-3.5-45.4-29.6s-0.9-58.4,10.9-97.3
			c3.3-10.9,16.6-7,24.4-7S261.9,492.3,255,498.4c-4.3,3.8-35.7-19-61.6-40.8c-16.2-13.6-30.4-30.8-34.3-29.8
			c-7,1.8-3.5,11.3,2.6,20.9s66.3,43.6,67.2,83.7s-19.2,78.5-41,94.2s-45,38.7-48.8,36.6c-5.7-3,28.8-73.3,71.1-112.1
			C210,551.2,201.8,535,192.2,526.3z"/>
		<path class="st1" d="M158.8,665c-2.2,0-4-1.8-4-4c0-0.7,0.2-1.4,0.5-2c2.8-4.8,8.4-11,19.4-11.5c10.6-0.5,19.2,5.5,24.6,10.6
			c1.6,1.5,1.7,4.1,0.1,5.7c-0.7,0.8-1.8,1.2-2.9,1.2L158.8,665z"/>
		<path class="st1" d="M124.5,302.2c-5.5,8.2-8.4,18-8.3,27.9c0,23.6,15.4,42.7,34.3,42.7c10.9,0,20.6-6.3,26.9-16.1
			c0,0-11.2,1.3-13.4-1.3s-0.7-7,2.1-6.1c4.6,1.4,15.1-0.2,15.1-0.2c2.4-6,3.6-12.5,3.6-19c0.1-9.9-2.8-19.7-8.3-27.9
			c3.4-4.4-9.6-24.4-31.4-23.5S123.2,290,123.2,290s-4.4-15.7-13.1-4.4s-16.6,34.9-4.4,32.3S124.5,302.2,124.5,302.2z"/>
		<path class="st5" d="M306.6,529.9c-7.5-6.9-13.4-8.8-13.4-8.8c-12.9-0.8-25.8-2.1-27.4-18.1s1.6-46.9,8.7-70.7
			c2-6.6,10-4.3,14.8-4.3s61.6,69.9,57.4,73.6c-2.6,2.3-21.6-11.6-37.2-25c-9.8-8.3-18.4-18.8-20.7-18.2c-4.2,1.1-4.2,18.1-0.5,24
			s40,26.7,40.6,51.2c0.5,24.5-6.6,31.8-19.8,41.4s-19.7,25.3-22,24c-3.4-1.9,4.9-30.2,30.4-53.9
			C317.4,545.1,312.4,535.2,306.6,529.9z"/>
		<path class="st5" d="M301.1,599c-1.9,0-3.1-1.6-2.2-2.9c1.7-2.4,5.3-5.4,12.1-5.6c5.6-0.1,11,1.7,15.4,5.2
			c1.6,1.2,0.5,3.4-1.7,3.4H301.1z"/>
		<path class="st5" d="M300.4,403.1c0,11.9-7.9,21.6-17.7,21.6c-6,0-11.2-3.6-14.4-9c-0.7-1.2-5.5-2.5-6-3.8c-1-2.7-0.7-5.6-0.7-8.7
			c0-11.9,8.1-22,21.1-22.4c4.8-0.2,11.7,3.2,14.9,7c0.8,1-1,2.1-0.3,3.2C299.4,394.7,300.4,398.8,300.4,403.1z"/>
		<path class="st4" d="M406.2,528.7c-8.3-7.5-14.9-9.6-14.9-9.6c-14.3-0.9-28.6-2.3-30.4-19.9s1.8-51.4,9.6-77.4
			c2.2-7.3,11.1-4.7,16.4-4.7s68.3,76.5,63.6,80.6c-2.9,2.5-23.9-12.7-41.3-27.4c-10.8-9.1-20.3-20.6-23-20
			c-4.7,1.2-4.7,19.9-0.6,26.3s44.4,29.2,45,56.1s-8.2,39.7-22.8,50.2s-26.4,20.4-29,19c-3.8-2,10.9-30.7,39.2-56.7
			C418.2,545.3,412.6,534.5,406.2,528.7z"/>
		<path class="st4" d="M394.8,605c-2.2,0-3.6-2-2.5-3.6c2-2.9,6.1-6.6,14.1-6.9c7.8-0.3,14,3.3,17.9,6.3c1.9,1.5,0.6,4.2-2,4.2
			H394.8z"/>
		<path class="st4" d="M355.5,388.2c0-13.9,12.2-26.9,24-26.9c4.7,0,14.3,3.5,17.9,6.6c1.6,1.4-2.1,3.1-0.9,5
			c2.9,4.6,4.4,9.9,4.4,15.3c0,13.9-9.6,25.1-21.4,25.1c-9.9,0-18.3-7.9-20.7-18.7c0,0-5.5,14.8-11.6,14.8s-4.4-7.9,0.9-8.7
			s9.6-8.7,9.6-8.7s-18.3,5.2-19.2,0s1.8-6.1,4.4-5.2c1.3,0.4,5.1,2.6,8.6,2.8S355.5,388.2,355.5,388.2z"/>
		<path class="st3" d="M499.6,528.9c-7.5-6.9-13.4-8.8-13.4-8.8c-12.9-0.8-25.8-2.1-27.4-18.1s1.6-46.9,8.7-70.7
			c2-6.6,10-4.3,14.8-4.3s46,71.3,41.7,75c-2.6,2.3-11.3-9.6-27-23c-9.8-8.4-12.9-22.2-15.3-21.6c-4.2,1.1-4.2,18.1-0.5,24
			s40,26.7,40.6,51.2c0.5,24.5-6.6,28.8-19.8,38.4s-19.7,19.3-22,18c-3.4-1.9,2-32,30.4-44.9C510.4,544.1,505.4,534.2,499.6,528.9z"
			/>
		<path class="st3" d="M491.1,591c-1.9,0-3.1-1.6-2.2-2.9c1.7-2.4,5.3-5.4,12.1-5.6c5.6-0.1,11,1.7,15.4,5.2
			c1.6,1.2,0.5,3.4-1.7,3.4H491.1z"/>
		<path class="st3" d="M493.4,402.1c0,11.9-7.9,21.6-17.7,21.6c-6,0-11.2-3.6-14.4-9c-0.7-1.2-5.5-2.5-6-3.8c-1-2.7-0.7-5.6-0.7-8.7
			c0-11.9,8.1-22,21.1-22.4c4.8-0.2,11.7,3.2,14.9,7c0.8,1-1,2.1-0.3,3.2C492.4,393.7,493.4,397.8,493.4,402.1z"/>
	</g>
</g>
</svg>
