<svg xmlns="http://www.w3.org/2000/svg" viewBox="0 0 932.22 634.43"><defs><style>.cls-1{fill:#fff;}</style></defs><title>photo gallary</title><g id="Layer_2" data-name="Layer 2"><g id="Layer_1-2" data-name="Layer 1"><g id="photo_gallary" data-name="photo gallary"><path class="cls-1" d="M764.74,295.91c-22.83,25.41-65.73,28-93,7.49s-37.14-60.27-25-92.2c6.79-17.85,23-31.47,41.52-36.31s38.73-1.24,55.13,8.55a80.23,80.23,0,0,1,28.14,28.48c15.09,26,13.31,61.65-6.76,84m-73.18-9.84c21.25,4.3,44.69-6.37,55.4-25.23,3-5.23,5-10.93,7-16.6l3.61-10.14a11.36,11.36,0,0,0,.89-3.87,9.24,9.24,0,0,0-1.15-3.94,23.71,23.71,0,0,0-23.84-12.52,18.06,18.06,0,0,1-5.88-.59c-21.61-4.25-45.26,4.54-58.86,21.86-4.65,5.92-4.55,14.27-3.14,21.66,1.84,9.61,6,19.41,14.14,24.81A33.06,33.06,0,0,0,691.56,286.07Z"/><path class="cls-1" d="M526.89,261.47c-2-2.93.1-6.9,2.56-9.43,6.43-6.62,15.53-10,24.59-11.78s18.34-2.11,27.43-3.72c6.11-1.09,12.36-2.75,18.42-1.4s11.73,7,10.46,13.1c-.82,3.9-4.27,6.81-8,8.16s-7.81,1.43-11.79,1.61a221.6,221.6,0,0,0-39.33,5.25c-7.05,1.59-14.66,3.48-21.26.54A6.92,6.92,0,0,1,526.89,261.47Z"/><path class="cls-1" d="M624.3,196.2a15.08,15.08,0,0,1,5.87.84c4.58,1.91,6.54,7.86,5,12.57s-5.78,8.15-10.41,9.91-9.66,2.12-14.61,2.45l-8.47.56c-4.19.28-8.47.56-12.53-.51s-7.94-3.75-9.34-7.71.52-9.11,4.55-10.3c13-3.86,26.32-7.75,39.93-7.81Z"/><path class="cls-1" d="M617.71,264.4a11.43,11.43,0,0,1,4.2-1.17c3.19,0,5.93,2.74,6.64,5.85s-.25,6.39-1.76,9.2c-5.26,9.77-16.42,14.71-27.1,17.73-9.07,2.57-20.29,3.67-26.56-3.37a7,7,0,0,1-2-4.6c.08-3.5,3.83-5.59,7.06-7Z"/><path class="cls-1" d="M592,180c-2.58-2.16-5-4.92-5.31-8.28s2.8-7,6.06-6.16a116.5,116.5,0,0,0,36.94,3.76c3.68-.22,7.43-.6,11,.37s6.91,3.67,7.41,7.31c.47,3.43-1.74,6.79-4.65,8.66s-6.42,2.55-9.84,3.09c-6.59,1-13.31,1.7-19.92.81A42.89,42.89,0,0,1,592,180Z"/><path class="cls-1" d="M646.1,339c-3.84-.84-6.13-5.1-6.08-9s1.87-7.58,3.65-11.09l4.22-8.31c2.39-4.7,6.34-10.2,11.48-9.05a8.26,8.26,0,0,1,4.91,3.8c2.74,4.26,2.74,9.85,1.09,14.64s-4.75,8.92-8,12.81C654.49,336.23,650.52,339.93,646.1,339Z"/><path class="cls-1" d="M789.05,133.92c3.92,5.66,4.68,13.08,3.25,19.81s-4.84,12.88-8.72,18.57c-2.92,4.29-10.41,2-12.47-2.77s-.41-10.27,1.48-15.11c2.33-6,5-11.79,7.73-17.6,1.28-2.76,3.79-6.06,6.6-4.89A5.22,5.22,0,0,1,789.05,133.92Z"/><path class="cls-1" d="M816.48,296.1a17.08,17.08,0,0,1-19.58-3.47,6.37,6.37,0,0,1-1.63-2.6c-.64-2.34,1-4.79,3.19-5.93s4.64-1.3,7-1.61c3.17-.41,6.38-1.1,9.54-.58s6.32,2.66,6.86,5.82C822.51,291.24,819.67,294.49,816.48,296.1Z"/><path class="cls-1" d="M162.59,103c-3.08-4.47-6.14-10.63-2.76-14.87,2.39-3,7.08-3.2,10.52-1.51s5.92,4.81,8.28,7.83l20.72,26.52c2.36,3,4.86,6.85,3.46,10.43-1.16,2.94-4.72,4.38-7.85,4s-5.91-2.2-8.4-4.15C176.81,123.54,169.62,113.16,162.59,103Z"/><path class="cls-1" d="M139.26,134.21A43.34,43.34,0,0,1,155,144.33c2.22,2.24,4.26,4.87,4.78,8s-.92,6.72-3.89,7.77c-3.25,1.14-6.6-1-9.75-2.41-5.38-2.38-11.51-2.59-17-4.82s-10.45-7.82-8.79-13.47c1-3.53,4.5-6,8.12-6.63S135.81,132.92,139.26,134.21Z"/><path class="cls-1" d="M212.19,312.88a13.58,13.58,0,0,1,.28-5.82c1.55-4.6,7.61-6.5,12.13-4.73s7.52,6.21,9,10.83c2.08,6.34.73,15-5.6,17.11-4.28,1.44-9.14-.95-11.8-4.6S212.67,317.38,212.19,312.88Z"/><path class="cls-1" d="M855.54,473.88h-3a3.79,3.79,0,0,1-.5-2.59,15.88,15.88,0,0,1,5.58-.43,2,2,0,0,1-2,2.59Z"/><path class="cls-1" d="M517.87,50.32c13.55,2.89,27.32,5.86,39.43,12.58,19.61,10.87,36.89,31.86,59.07,28.54L787.91,65.78c9.88-1.48,20.08-3,29.76-.48s18.83,9.88,20.12,19.79a1892.42,1892.42,0,0,0,89.94,379.49c3.55,10.15,7.08,21.81,1.82,31.18-4.46,7.94-13.82,11.53-22.47,14.39C719.19,572.32,516.34,576.34,327,634c-10.9,3.31-17.67-11.53-19.31-22.8L289.26,484c-1.12-7.75-10.93-10.22-18.73-10.91L64.68,455C39,452.71,7.33,445.7,1,420.66-2.41,407,3.53,393,8.11,379.72c11.78-34.25,15-70.76,18.07-106.85l13-151C40.84,102.1,42.9,81.28,54.3,65,67.39,46.38,91.13,36.3,101.14,15.84,107.36,3.1,124.19.69,138.36.3c127.87-3.47,254.41,23.35,379.51,50m296.57,54.59c-.88-2-2-4.17-4.06-5-1.75-.68-3.7-.18-5.51.32l-65.62,18.17c-5.8,1.61-7.15,9.23-6.53,15.22s1.82,12.86-2.2,17.34c-10.36-2.55-17.35-14.48-14.52-24.76A80,80,0,0,0,660.55,145c-2.62,2.23-6.54.93-9.86,0-10.78-2.9-22.18-.1-33,2.71q-166.22,43.1-332,87.87c6.19,15.19,12.47,30.91,12.13,47.31-.19,9.17-2.47,18.17-3.29,27.3-2.17,24.07,5.74,47.77,13.54,70.64L353.89,310c1.28-2,2.7-4.1,4.89-5,4.09-1.68,8.42,1.54,11.63,4.57a628.85,628.85,0,0,1,91,107.37c3,4.51,9.53,5.53,14.67,3.79s9.24-5.63,13.13-9.43a993.4,993.4,0,0,0,67.86-73.38c1.15-1.38,3.28-1.18,5-.87l118.05,21.07c10.87,1.94,10.06-23.3,21-21.73,4.72.67,6.72,6.57,6.18,11.3s-2.56,9.4-1.77,14.1A242,242,0,0,0,759,382.06c-9.34-10.62-19.1-22.13-20.94-36.16-1-7.4,5-17.57,11.42-13.82,2.39,1.38,3.47,4.21,4.38,6.82l12.22,35a192.16,192.16,0,0,1,63.08-55.83c4.8-2.64,5-9.34,4.62-14.81L827.29,214c-9.66.91-16.68,15.18-25.52,11.17-7.65-3.46-3.86-15.67,3-20.45s16.18-7.35,19.76-14.94c1.85-3.92,1.74-8.44,1.59-12.77-.84-24.5-1.83-49.68-11.71-72.11M326.57,170.8l26.82-6.26c4.61-1.08,9.94-2.76,11.5-7.24,1.26-3.63,5.14-5.54,8.66-7.09l57.9-25.45a9.16,9.16,0,0,1,9.14,15.75l108.7-30q-73-11.07-146.76-15.27c-3.2-.18-7.23.15-8.38,3.14a82.63,82.63,0,0,1-35.43,41.37c-5,2.91-10.8,5.33-16.52,4.29s-10.82-6.89-9.11-12.45c1-3.32,4-5.57,6.82-7.6l42.32-30.4a459.53,459.53,0,0,0-64.16-7.47l3,6.6c-11.29,3.4-13.74,23.23-25.49,22.33-6.59-.51-10.47-8.46-9.19-15s6-11.65,10.56-16.45q-85.17-10.47-171-13.22c-10.56-.34-24.33,1.84-26.24,12.23-4.93,26.87-19.75,50.76-28.93,76.48C56.15,200,56.13,244.53,56.63,288l57.48-98.83c1.68-2.88,3.63-6,6.82-7,2.33-.71,4.86-.09,7.15.77,11.75,4.39,20.41,14.73,26,25.94s8.75,23.49,12.93,35.32c6.6,18.69,15.87,36.31,25.1,53.85,14.16,26.9,29.49,55.08,55.42,70.95,3.67,2.25,7.95,4.28,12.15,3.31s7.34-6.43,4.62-9.78c-14.26-3.67-20.4-24.41-10.44-35.26,3.47-3.77,2.46-9.69,1.23-14.66-3.13-12.67-9.63-28.16-22.68-28.19-18.89,0-36.56-11.75-46.83-27.61s-13.83-35.32-13.38-54.2c.61-25.26,10.05-52.75,32.37-64.58,12.28-6.51,26.69-7.36,40.58-7.84,13.53-.46,27.38-.65,40.24,3.59s24.75,13.76,28.26,26.83c1,3.85,1.77,8.5,5.36,10.22,2.31,1.1,5,.55,7.51,0M205.67,190a32.94,32.94,0,0,0-4.81,8.62c-1.25,3.94-1,8.17-.69,12.28.71,10,1.45,20.21,5.06,29.57s10.59,18,20.15,21c4.92,1.58,12.44-.62,11.51-5.71q-2.62-14.34-5.26-28.67c-1-5.5-2-11.17-.84-16.64,2.7-12.58,15.84-20,28.27-23.28S284.94,183,295.77,176c-1.39-8.62-8.94-15.2-17.2-18s-17.2-2.57-25.92-2.29c-8.21.26-16.88.66-23.79,5.1-5,3.2-8.49,8.18-11.88,13L205.67,190M141.08,29.42c-11.38,1.11-24.57,3.37-30,13.44l72.71-2.08c10.07-.29,20.14-.57,30.21-.44,74.52,1,147.66,24.89,222.15,22.51a446.6,446.6,0,0,0-62.34-16.27c-17.2-3.19-34.57-5.37-51.93-7.54L232,27.77c-10.82-1.35-21.67-2.71-32.57-2.85-10.68-.13-21.35.91-32,1.94l-26.33,2.56m542,376c-6.67-5.14-16.4-4.58-23.95-.84S645.7,414.66,640,420.88L533.93,537.25a25.93,25.93,0,0,0,28.84-7A1387.61,1387.61,0,0,1,683.06,405.4M509.13,539.51A1168.24,1168.24,0,0,1,637.37,391.7c2.3-2.24-.54-6.49-3.75-6.57s-5.89,2.29-8.22,4.5a1576.75,1576.75,0,0,0-146,160.3,28.53,28.53,0,0,0,29.77-10.42M376.45,453.42l26.34-6.09c.11-1.77-.86-3.4-1.81-4.9L358.1,374.17c-.73-1.15-1.88-2.48-3.18-2.06a3.15,3.15,0,0,0-1.37,1.17q-7.86,10-15.73,19.93a4.94,4.94,0,0,0-.44,7q14.72,25.65,29.41,51.31c1.76,3.06,6.22,2.67,9.66,1.88m370.21-34.64c-2.43-.54-4.79-2-7.21-1.47-1.91.44-3.28,2.05-4.51,3.56l-80,98.3c16.73,2.1,30.65-12,41.6-24.79l76.71-89.89c-10,2.63-16.43,16.51-26.56,14.29m43.45,73.79q17.71-16.6,35-33.68c7-7,14-14,20.11-21.82,7-8.92,12.74-21.4,6.9-31.09-.64-1.06-2.25-.14-3.06.8a798.64,798.64,0,0,1-96.41,95.33,40.85,40.85,0,0,0,37.5-9.54m73.71-165.92c-9.24,13.26-5,31.28-.41,46.78q14.87,50.1,29.72,100.2a16.39,16.39,0,0,0,2.78,6.12,8.16,8.16,0,0,0,12.86-10c-12.41-17.35-14.12-39.83-19.24-60.54-1.84-7.45-4.17-14.77-6.49-22.09l-19.22-60.44M717,506.92q62.14-58.28,120.12-120.79a26.09,26.09,0,0,0,3.86-29.1,1619.42,1619.42,0,0,1-131.7,151.58c1.86,2.33,5.55.34,7.72-1.69M156.72,274.12a140.55,140.55,0,0,0-15.05-26.87l-6.55,11c7.83-1.35,14.68,6.83,15,14.77s-3.78,15.32-7.82,22.16q-36.15,61.26-78,118.91c3.22,4.18,9.91,4.12,14.36,1.29s7.22-7.61,9.81-12.21Q112.24,361,136,318.75c6.35-11.29,12.74-22.66,21-32.62,2.7-3.24,1.36-8.12-.29-12M702.52,419,592.88,527.23c-1.69,1.67-3.35,4.62-1.46,6.06,10.83-.65,23-1.93,29.84-10.31l80.84-98.43c1.4-1.7,2.48-4.81.42-5.58M375.35,349.64c-2-1.87-5.06-3.66-7.13-1.91s-.92,4.93.32,7.25a859.49,859.49,0,0,0,49.25,81c1.22,1.78,2.72,3.73,4.87,4a7.57,7.57,0,0,0,3.78-.89,123.72,123.72,0,0,0,13.17-6.74,5.38,5.38,0,0,0,2.52-2.37c.92-2.3-1.42-4.5-3.44-5.93a152.5,152.5,0,0,1-38.34-39.16c-8.07-12-14.57-25.23-25-35.21M281.3,277.22c1.94-6.44-.62-13.27-3.14-19.5l-4.38-10.84c-1.46-3.62-4-7.93-7.88-7.47a12.22,12.22,0,0,1,2.43-3.83,14,14,0,0,0-15.43,20.94c2.58,4.11,7.08,6.58,10.34,10.17s5,9.71,1.44,13c-3.34,3.12-2,8.59-.4,12.87l11.06,29.69c.65,1.73,1.8,3.81,3.64,3.64a101.3,101.3,0,0,1,2.32-48.7m50.15,193L351.33,463a2.79,2.79,0,0,0,1.69-1.16,2.83,2.83,0,0,0-.54-2.57q-10.5-17.84-21-35.65c-1.1-1.86-2.78-4-4.89-3.53s-2.74,3.28-3.31,5.47-2.86,4.61-4.67,3.27c-1.36-1-3.45.15-4,1.75s0,3.36.45,5q4.81,15.6,9.61,31.2c.46,1.51,1.07,3.18,2.49,3.85s2.92.12,4.31-.38M49.26,344.56c-3.91,6.63-8,13.91-7,21.55L102.9,263.89c8.5-14.33,18.13-29.63,33.72-35.5l-5.4-13.84a3.67,3.67,0,0,0-1.09-1.74c-1.65-1.21-3.72.81-4.76,2.57L49.26,344.56M855.79,463.62l6.41-.78c1.3,2.26-2,4.55-4.55,4.56s-5.67-.67-7.47,1.22a256.4,256.4,0,0,1-29.45,26.54c1.48,1.75,4.18,1.55,6.45,1.19l44.15-6.91c1.43-.23,3.07-.59,3.74-1.88a4.72,4.72,0,0,0,0-3.13q-3.21-14.73-7.12-29.3c-.3-1.12-.72-2.38-1.77-2.86-1.7-.79-3.42,1-4.47,2.52l-6,8.83M365.48,581.39c5.2,1.14,10.67-1.18,14.64-4.73s6.74-8.21,9.56-12.74c17.54-28.2,39-53.73,58.87-80.33.94-1.26,1.92-2.87,1.26-4.29-6.82-1.13-12.95,4.51-16.29,10.56s-5.21,13-9.8,18.17q-29,32.61-56,67c-1.45,1.86-3,4.18-2.2,6.4M126,266.47,69.59,358.71c-4.74,7.76-9.54,15.59-15.84,22.15-4.88,5.08-10.75,9.55-13.66,16s-1.17,15.72,5.55,17.85c.92-15.34,10.44-28.61,19.3-41.17a902.85,902.85,0,0,0,61.11-99.82c1.24-2.36,2.21-5.81,0-7.22M130.38,375c2,.76,4-1,5.45-2.58A288.75,288.75,0,0,1,178.41,334c3.48-2.56,4.18-7.69,2.8-11.79s-4.4-7.39-7.33-10.57c-2.19-2.36-5.85.7-7.5,3.45l-36,59.86m250.5,129.52c-1.12,7.12-5,13.47-8.91,19.51a498.71,498.71,0,0,1-29.44,40.75c-1.84,2.29-3.74,4.65-4.5,7.48s0,6.29,2.48,7.82a550.6,550.6,0,0,1,61.6-81.66c-.93-1.55-3.22-1.25-5-.76l-11.59,3.29c-2,.57-4.36,1.52-4.68,3.57m-49.51,39.61q14-20.28,29.58-39.37A142.77,142.77,0,0,0,335.3,504c-1.47.09-3.43.78-3.17,2.23,2.19,12.58-5.73,26.11-.76,37.88M158.08,377.45a3.38,3.38,0,0,0-2.44-1.48,538.11,538.11,0,0,0-42.46,47l13.62,2.49a5.63,5.63,0,0,0,2.61.06c1.62-.49,2.43-2.25,3.07-3.81a187.34,187.34,0,0,1,25.6-44.23m304,163.33c7.21-14,19.13-25,26.92-38.61.74-1.3,1.24-3.32-.1-4q-25,29.69-49.22,59.94c4.67,2.53,10.72.23,14.37-3.65s5.59-9,8-13.72M280,331.73c-.49-.74-1.38.54-1.32,1.43l2.73,39.22c.21,2.92.48,6,2.25,8.36s5.62,3.33,7.62,1.2c1.78-1.89,1.21-4.9.52-7.4q-5.91-21.41-11.8-42.81M848.1,232.56c-2.1.26-2.58,3.05-2.52,5.16a477.49,477.49,0,0,0,4.5,52.06c.36,2.53,1.11,5.51,3.52,6.34,2.92-2.51,2.65-7,2.12-10.85q-3.62-26.38-7.62-52.71M540.47,391.76,506.66,431.2c-1.32,1.54-2.73,3.14-4.66,3.75s-4.21.06-6.33.13-4.59,1.31-4.63,3.43c8.91.4,19.62-.11,24.22-7.76A165.59,165.59,0,0,1,535.7,403.5c3-3.29,6.47-7.6,4.77-11.74M312.82,525.19l2-19.77c.45-4.46.69-9.55-2.43-12.76s-2.31-9.46,1.63-11.74c-.84-3.33-6.39-2.64-7.89.44s-.36,6.72.58,10a83.08,83.08,0,0,1,3.15,26.56c-.13,2.85.21,6.59,3,7.25M449.29,164.08c-3.05.86-6.6,2.22-7.31,5.31q26.28-5.74,52-13.94c3.19-1,6.67-2.32,8.22-5.29a21.92,21.92,0,0,0-7.5,1.18l-45.37,12.74M261.36,407.27c3.61,1.19,6.5-4.16,4.77-7.55s-5.71-4.86-9.33-6c-1.34-.43-3.39-.45-3.54.95A40.62,40.62,0,0,1,244,416.36c6.56,2.34,10.72-11.27,17.34-9.09m-81.43-24a5.59,5.59,0,0,0,2.8,1.73,107,107,0,0,1,16.08-16.25c2.09-1.71,4.36-3.49,5.21-6.06s-.59-6.06-3.29-6.17c-2.2-.09-3.83,1.93-5.08,3.75l-15.72,23m-16.74,46.49a3.74,3.74,0,0,0,4.1,6.26,7.47,7.47,0,0,0,2.22-2.54L184.61,410c-.85-1.38-3-.45-4.15.67-6.25,5.94-10.21,14.19-17.27,19.15m129.22,7a17,17,0,0,0,4.56,12c2.41,2.57,5.55,4.32,8.64,6,.83-.35.75-1.55.52-2.42-1-3.66-2-7.41-4.16-10.51s-5.8-5.47-9.56-5.07m78.2,75.89a334.45,334.45,0,0,0-27.79,34.55c-1,1.44-2,3.32-1.14,4.84l26.59-33.45c1.37-1.72,2.83-3.79,2.34-5.94m-84.39-96.31,7-18.23c.74-1.91,1.07-4.78-.9-5.38a25.27,25.27,0,0,1-6.22,7.24c-4.64,3.67-2.47,11,.1,16.37m38.95,180.25a98.23,98.23,0,0,0-5.41-23.37,40,40,0,0,0,4,25.52c.94.5,1.56-1.09,1.45-2.15M288.24,226.5a6.72,6.72,0,0,0-3.37,1.55,3.37,3.37,0,0,0-.9,2.06,119.63,119.63,0,0,0,28.79-7.69c-8.3.07-16.46,2.08-24.52,4.08m109.18-43.7a20.81,20.81,0,0,0-19,3.17,34.42,34.42,0,0,0,19-3.17M271.76,445.86c-.4,2,2.14,3.58,4,2.84s2.73-3,2.54-5a14.06,14.06,0,0,0-2.24-5.51,5.21,5.21,0,0,0-2.79,7.32m-45.55-61.4a3.61,3.61,0,0,0-.42,5.55l8.73-6.1c-1.55-3.13-7-2.9-8.31.35M640,109.11q-8-.39-16.05-.24c-1.1,0-2.43,1.53-1.36,1.74l13.22,1.25c2,.2,5.09-.91,4.19-2.75M20,419.39A7.44,7.44,0,0,0,22.76,425,11,11,0,0,0,21.63,413a3.94,3.94,0,0,0-1.38,6.18M548.87,127.79A11.66,11.66,0,0,0,546,141.25a17.53,17.53,0,0,0,2.87-13.46M574.54,371c-1.9-.28-4.78.44-4.23,2.29,1.54,3,7,2.48,7.89-.8a4,4,0,0,0-3.64-1.58m-29,137,5.2-8.12a13.63,13.63,0,0,0-8.38,10.78,2.37,2.37,0,0,0,2.79-2.66M522,78.47a10.06,10.06,0,0,0,9.24,1.32A6.17,6.17,0,0,0,522,78.28M414,175.4a6.2,6.2,0,0,0-8.16,3,7.61,7.61,0,0,0,8.46-2.83M486.65,471l2.49-3.62c-.72-1.42-2.93-1.34-4.08-.25a7.72,7.72,0,0,0-1.81,4.3,2.18,2.18,0,0,0,3.27-.54m-371.89-77.6a4,4,0,0,0-2.23,5.85,27.45,27.45,0,0,0,4.61-6.73,1.58,1.58,0,0,0-2.4.56m421,125.2c2.93-.73,6.23-3.26,5.21-6.11a19.81,19.81,0,0,0-5.94,5.37M211,437.83c2.19,0,3.42-3.31,1.8-4.78a6.38,6.38,0,0,0-3.16,2.53c-.61,1.23,0,3.11,1.37,3.21M447.62,534a7.41,7.41,0,0,0-3.09,6.29,24.09,24.09,0,0,0,5.38-8l-2.48,1.41m-3.88-130.79,3.16,3a5,5,0,0,0-4.23-5.92,1.92,1.92,0,0,0,1.15,2.73M649,97.39c1.47,2.06,5.3,1.44,6-1a5.07,5.07,0,0,0-6.08.9m52.62,438.4c1.39.4,3.58.19,3.4-1.25a4.29,4.29,0,0,0-6.22,1.79,1.8,1.8,0,0,0,2.71-.34M775,86.36a1.32,1.32,0,0,0,1.52,1.43A3.24,3.24,0,0,0,778,84.37a3.41,3.41,0,0,0-2.49-.48,3.24,3.24,0,0,0-.46,2.48m-230-27a5.29,5.29,0,0,0,5,2.19,3.37,3.37,0,0,0-5.18-2.39M290,388.37a1.45,1.45,0,0,0,1.56,1.49l1.52-3.5a2.08,2.08,0,0,0-3,2M777.54,79.87A3.89,3.89,0,0,0,779,77.38a3.94,3.94,0,0,0-2.49-1.5,2.62,2.62,0,0,0,1.06,3.88M600,381.54c1.9.79,4-2.1,2.59-3.64a7.14,7.14,0,0,0-2.56,3.46M848.55,512.82c-1.53.07-3,1.93-2,3.1,1.52,0,3-1.91,2-3M451.24,147.49a1.43,1.43,0,0,0,1.22,2.24c1.38-.73-.2-3.35-1.49-2.47M749.1,387.31a2.1,2.1,0,0,0-2.91,1.05,1.66,1.66,0,0,0,2.84-1M241.61,235.89c-.44,1.26,1.52,2.48,2.45,1.53.53-1.08-1.31-1.67-2.5-1.48M480.08,525.36c-1.35-.14-2.67,1.77-1.54,2.51,1.07.54,1.65-1.31,1.43-2.49Z"/></g></g></g></svg>